<mxfile host="app.diagrams.net" modified="2023-07-16T04:26:56.441Z" agent="Mozilla/5.0 (Windows NT 10.0; Win64; x64) AppleWebKit/537.36 (KHTML, like Gecko) Chrome/114.0.0.0 Safari/537.36" etag="OIV_Ucl9yICbAN0Z0QsF" version="21.6.1" type="github">
  <diagram name="Page-1" id="Oh12haUS-0P2g4Y5k1XG">
    <mxGraphModel dx="1050" dy="541" grid="1" gridSize="10" guides="1" tooltips="1" connect="1" arrows="1" fold="1" page="1" pageScale="1" pageWidth="827" pageHeight="1169" math="0" shadow="0">
      <root>
        <mxCell id="0" />
        <mxCell id="1" parent="0" />
        <mxCell id="L7o_J_CIeaqoIE181NFn-4" value="" style="edgeStyle=orthogonalEdgeStyle;rounded=0;orthogonalLoop=1;jettySize=auto;html=1;" parent="1" source="L7o_J_CIeaqoIE181NFn-1" target="L7o_J_CIeaqoIE181NFn-3" edge="1">
          <mxGeometry relative="1" as="geometry" />
        </mxCell>
        <mxCell id="L7o_J_CIeaqoIE181NFn-1" value="" style="dashed=0;outlineConnect=0;html=1;align=center;labelPosition=center;verticalLabelPosition=bottom;verticalAlign=top;shape=mxgraph.weblogos.github" parent="1" vertex="1">
          <mxGeometry x="220" y="200" width="75" height="75" as="geometry" />
        </mxCell>
        <mxCell id="L7o_J_CIeaqoIE181NFn-2" value="Source Code on Github" style="text;html=1;strokeColor=none;fillColor=none;align=center;verticalAlign=middle;whiteSpace=wrap;rounded=0;" parent="1" vertex="1">
          <mxGeometry x="203.75" y="280" width="107.5" height="30" as="geometry" />
        </mxCell>
        <mxCell id="L7o_J_CIeaqoIE181NFn-15" style="edgeStyle=orthogonalEdgeStyle;rounded=0;orthogonalLoop=1;jettySize=auto;html=1;" parent="1" source="L7o_J_CIeaqoIE181NFn-3" edge="1">
          <mxGeometry relative="1" as="geometry">
            <mxPoint x="447" y="237.5" as="targetPoint" />
          </mxGeometry>
        </mxCell>
        <mxCell id="L7o_J_CIeaqoIE181NFn-3" value="" style="verticalLabelPosition=bottom;html=1;verticalAlign=top;align=center;strokeColor=none;fillColor=#00BEF2;shape=mxgraph.azure.virtual_machine_feature;pointerEvents=1;" parent="1" vertex="1">
          <mxGeometry x="350" y="215" width="50" height="45" as="geometry" />
        </mxCell>
        <mxCell id="L7o_J_CIeaqoIE181NFn-5" value="Local Machine/VM" style="text;html=1;strokeColor=none;fillColor=none;align=center;verticalAlign=middle;whiteSpace=wrap;rounded=0;" parent="1" vertex="1">
          <mxGeometry x="325" y="275" width="100" height="30" as="geometry" />
        </mxCell>
        <mxCell id="EVjqb6hqpJj4IS2rLbfz-3" style="edgeStyle=orthogonalEdgeStyle;rounded=0;orthogonalLoop=1;jettySize=auto;html=1;startArrow=classic;startFill=1;" edge="1" parent="1">
          <mxGeometry relative="1" as="geometry">
            <mxPoint x="559.5" y="355.8" as="sourcePoint" />
            <mxPoint x="559.5" y="292.6175" as="targetPoint" />
          </mxGeometry>
        </mxCell>
        <mxCell id="L7o_J_CIeaqoIE181NFn-7" value="" style="image;aspect=fixed;perimeter=ellipsePerimeter;html=1;align=center;shadow=0;dashed=0;spacingTop=3;image=img/lib/active_directory/databases.svg;" parent="1" vertex="1">
          <mxGeometry x="535.5" y="355.8" width="50" height="49" as="geometry" />
        </mxCell>
        <mxCell id="L7o_J_CIeaqoIE181NFn-19" style="edgeStyle=orthogonalEdgeStyle;rounded=0;orthogonalLoop=1;jettySize=auto;html=1;" parent="1" target="L7o_J_CIeaqoIE181NFn-18" edge="1">
          <mxGeometry relative="1" as="geometry">
            <mxPoint x="575" y="240" as="sourcePoint" />
          </mxGeometry>
        </mxCell>
        <mxCell id="L7o_J_CIeaqoIE181NFn-12" value="Database" style="text;html=1;strokeColor=none;fillColor=none;align=center;verticalAlign=middle;whiteSpace=wrap;rounded=0;" parent="1" vertex="1">
          <mxGeometry x="520" y="406.8" width="81" height="30" as="geometry" />
        </mxCell>
        <mxCell id="L7o_J_CIeaqoIE181NFn-18" value="" style="sketch=0;outlineConnect=0;fontColor=#232F3E;gradientColor=none;fillColor=#232F3D;strokeColor=none;dashed=0;verticalLabelPosition=bottom;verticalAlign=top;align=center;html=1;fontSize=12;fontStyle=0;aspect=fixed;pointerEvents=1;shape=mxgraph.aws4.globe;" parent="1" vertex="1">
          <mxGeometry x="680" y="215" width="50" height="50" as="geometry" />
        </mxCell>
        <mxCell id="L7o_J_CIeaqoIE181NFn-20" value="Browser" style="text;html=1;strokeColor=none;fillColor=none;align=center;verticalAlign=middle;whiteSpace=wrap;rounded=0;" parent="1" vertex="1">
          <mxGeometry x="675" y="275" width="60" height="30" as="geometry" />
        </mxCell>
        <mxCell id="EVjqb6hqpJj4IS2rLbfz-8" value="" style="shape=image;verticalLabelPosition=bottom;labelBackgroundColor=default;verticalAlign=top;aspect=fixed;imageAspect=0;image=data:image/png,iVBORw0KGgoAAAANSUhEUgAAAjoAAAF9CAYAAAAN/cKJAAAACXBIWXMAAAsTAAALEwEAmpwYAAAgAElEQVR4nOy9WXMcWZbn9zv3ukcEAhtJcGcy98rM2pep6uqu7pnp6p42G5M+gF704fQsM5lJT3qR6UGmaVnPdE9XV1VmZeXCBQRB7HsEIsL93qOHez0iAILMDcxkIs8vDelEIHwJD/fr/3tWAdjd3X1NRP4XDMMwDMMwLhAFQIxxtiiKv/2Gj8UwDMMwDONccd/0ARiGYRiGYbwoTOgYhmEYhnFhMaFjGIZhGMaFxYSOYRiGYRgXFhM6hmEYhmFcWEzoGIZhGIZxYTGhYxiGYRjGhcWEjmEYhmEYFxYTOoZhGIZhXFhM6BiGYRiGcWExoWMYhmEYxoXFhI5hGIZhGBcWEzqGYRiGYVxYTOgYhmEYhnFhMaFjGIZhGMaFxYSOYRiGYRgXFhM6hmEYhmFcWEzoGIZhGIZxYTGhYxiGYRjGhcWEjmEYhmEYFxYTOoZhGIZhXFhM6BiGYRiGcWExoWMYhmEYxoXFhI5hGIZhGBcWEzqGYRiGYVxYTOgYhmEYhnFhMaFjGIZhGMaFxYSOYRiGYRgXFhM6hmEYhmFcWEzoGIZhGIZxYTGhYxiGYRjGhcWEjmEYhmEYFxYTOoZhGIZhXFhM6BiGYRiGcWExoWMYhmEYxoXFhI5hGIZhGBcWEzqGYRiGYVxYTOgYhmEYhnFhMaFjGIZhGMaFxYSOYRiGYRgXFhM6hmEYhmFcWEzoGIZhGIZxYTGhYxiGYRjGhcWEjmEYhmEYFxYTOoZhGIZhXFhM6BiGYRiGcWExoWMYhmEYxoXFhI5hGIZhGBcWEzqGYRiGYVxYTOgYhmEYhnFhMaFjGIZhGMaFxYSOYRiGYRgXFhM6hmEYhmFcWEzoGIZhGIZxYTGhYxiGYRjGhcWEjmEYhmEYFxYTOoZhGIZhXFhM6BiGYRiGcWExoWMYhmEYxoXFhI5hGIZhGBcWEzqGYRiGYVxYTOgYhmEYhnFhMaFjGIZhGMaFxYSOYRiGYRgXFhM6hmEYhmFcWEzoGIZhGIZxYTGhYxiGYRjGhcWEjmEYhmEYFxYTOoZhGIZhXFhM6BiGYRiGcWExoWMYhmEYxoXFhI5hGIZhGBcWEzqGYRiGYVxYTOgYhmEYhnFhMaFjGIZhGMaFxYSOYRiGYRgXFhM6hmEYhmFcWEzoGIZhGIZxYTGhYxiGYRjGhcWEjmEYhmEYFxYTOoZhGIZhXFiKb/oAjKcRAgAqgDpUBNSBxPyOiAgIICrECKog0eMREE/ww+fvQ17oR3hp0Nho+YCiCBERAecQgaCCQj7ZABFBya8CLp17wwAUJfp0H4o6JF8mbnopEZrrR4Xg0lLF5fUE0e/IDWh8TtI15ca2h/R7zBeYikIewWh+1CHpjyevOeMpbAR/CVEhXdDTg+FY5CihrqmqEaGuiVERFTyewhd4V+CdG7/37GWD+xLLqRvtS2/jyyyn9/s519EkUkQ9TgoKKXCuABwxKKHOClEVHQ8UzY9hnI1O/QeK6OS6iaJElAhpKTq+j0WTOCLLaIXxbaRfw3K8v/zvr2OfMLU/+7zPX6ojjldsxrC8TaaFTL7uaJ4JxmdhFp2XENX8tUgEJA+kE7xzqDq8eJzzQJGsFCoEFTw6dbPomUvV78ZN4lwrDTyq6fGjilIjAqoxPXzyIwvCWL4B2ZJjM2/js5DxMyg9uPJDSuLYGigqCA5BiKKoyzN2TdbVr+MhLJL2ByBu6rH5oved92ef93nruPFlE2M+WGE8AVM8U6pnbEmEZvyyydnzMKHzMiI+uaLGJklAAo2p0rkSQVB1hAiNWwYUVaVOT29ENd3wTy1jer+GqW1/kWU+zi+0Tt6Xhrz+F92nTu5z+bz7juAjMUaiBmKeLokIIoL3JRorQMbuwnSMZug0nk+yzuR7NN8Q6aGlqDQXqAMBFwXB41RwUVCnqP/mjt14OUnDnEtjNDCxUDfWnOa6SkyLHeP5mNB5CYkIIprETvPiOB7AA56oEDSiMccL+Ii6QMyG86J0z3Vc1SheIQhfaBllcoPFL7juV1m6iQcA9wXWHTICEdQ50CQgnQoQiSHinOBUET05Y5oaTs7xmzUuAs31L1P/bx5KjWVQx69Prh/XzFkQyLFjburZJS94ieb9ARqTpeFF71Mai0b+7PZ5z17qqWFGG1GjLl9CZ4ud9LQYf1zjGZjQeSlJbhaRafeSkESOgLgUMKtAoURfoUVNpKLWIXWo6A166d7IMczRpYF2vMzi4fRSx9aSZyybQ5kc6jPfq8/Yx1lLed4+z7qTn/Nemdq2IBS+pN2epVV2KVwHiUqoBK2mNqaKeyp2wkSO8SxyrI1MZuETzr5uotNTIomv7aE//fAf7/9r3Kd93s9YJ7s5VSIpjmt6IJ1yhZ6SMzJ5l/EcTOi8hIhU6cJVmVzkKsmPCzS+2+BqKjmmdj1GdY/D4x0O+9v0+gds9jfGM4UXsWwO70Xu46wlfLF1Sgra7RnmuldYmL/CbGuJmc4ibTqUZRsNJTE6fPYlpIEjphjl5lx/fV+98S1Axq7NdEHq1GsicepBl64cFVCNRAHE5RvIriojkcYZBRqx04yxE7GThJpDJTCWUWeZgowzMaHzUhKZTj/VbMVJI6hSx0BgRCU9BvGQw8E2h8dbrO8+Ym1rhf2DHfbqTdKsM565FNHn/v3Zy+kB+stu48ssp29o+dzrykBotzsszF3h8uUbXL18m2sLt7jSvcVssUjbdym0RRRFtKAJ4m7S7xV7KBkTTrqroAlYbx5OE4tNiodTCagkB0MEkHhCBBkGABoR8YikLD7F5WfA6etkYt5uks3VLM+fiQBsb2//oCiK97/pgzES4tMXE0KKvlcE8msjBkgrcDTY4/H2fR5vf8r67jIHx1v06wOCDAlxxNAPSEE+csaSKbMHz3nfc5bwxdcRpkwuX2b9Rn18/nV0oLRabYqig4sepy0Wutd59fpb3Lr0OnevvslC5yplaFMPIl5atKVMeQ7qCBIJEs76mozvJDq5/L1DcER8srVqgKi0PMRQMYoj1AnSaRG8cjjoc3jcB1W8xbt/Z1A0lQGBsU7RqIg4ylZJu9WiKwVl0YLgiFXE55IYTQJKHNdWm5QZkWxybtz/xrMxi87LiApRBTQSEFwB6iKjOOA4HLC3t872wRqPNj9hbW+Z3f4ag/oI9QHXAvWKNhXMzgxJPh3Y8qz3PW/5Zdb5mvetEDqRuqhR1ydUkTCCwVGfoMccHO4yin3uXHmTS+3rtMoZhII6BKQWXCETcWUYAEiKzhFBNZeVdEoMqXSBEBgMRziv+JYjeqEvAzb3d/h09REPVx8zGPbQSYCY8R1CmjhAjTgRWq0Wc3Nz/PK1H3Fp8TJz3QUK54iVUtcjnDqcFGcMQxMroomcz8aEzstI8GiMqAquJbiWMtJj9ocb7PRXebD6JzYOHrN5tEq/3qeSAbET8YUjilLHiBP/GQEs7nMGxXwBywqfsa0vsm++gCWJZ29DCyGIogQoFCQQwgHbx4HD/i790QG9wQFv3PwB12bv4HBoFFJCcAs5Ia4MAwpXEJrrQkHrQLK75lKBPqAORgS2D3b4eO0hH63c5/ef/pl7Kw/o1z2iM6HznSHH26gq4lItpRBTmY1W2Wau22XjjWVeffV1vvf697hz9Q6zrVlEHBKSeJ5k3ebsvmzZmY5bNJ6NCZ2XEFGfQ0wCzkN0I45H++z0n7C2d58nB/fZOVrncLRN7UbpW/QChaAxVWX1KUAgbfA8qm6JO7mEp18710pgZ21/ugrX1GtjI84Z2yrKXEMn4Ig4pyCREPsMqpr1w0eUZUmnPUvpW1zqODrO4Ys2qgG1EcQ4heZ5eSqq3eSMa/bGKmWrxdHggJWNJ/x5+WN+98kf+fPjB9zffMzG7jYjGaBl/Y1+BuPrI10nCqQaXiCpWKmA9y1mWi3czojX1pfZ7+9Tv1fz2vXXmW/PQ+3QgebYLvN3fllM6LyMZIEhHrSoOY57bB09ZnnjQ5a3P2a3/5h+OKTyPVwJ6j0KhCgoHkcEwgsJCz7tPHq5Q5FBaKeZlMZJ0J4TnFdcUdPr77CyJwSNhBB5dSlwY/5umrWPZLIhw8iEGMbGxeSMyGLHK7jI0AU+enKf//df/wv/9Y//wgePPmJ7sM9QAiMXCL4m1hb39V0iZXHmSve5RY+GiFPPUSw4erzFR2v3WN58xPbBHr/5yV/y/Td+xHw5w7A/pOXaJyaSIqdD2m1C9jxM6LyEiKRCU+ojw3DIdv8JK5uf8GjzI1b37hPbA0IxBBeR0qMRYg2gFE4QV0AcpG012zyn5el/v4h9nLWcjuj5/OsKMYxwOLw4HELqfxVzG6yIzAiHox3q3ZqoEFWZac1QtlsksehxWBlbI6GaCnWKguBTEToRVFIWTOVqVjZX+cc//Ff+z3/8v/jToz+zXx+ibcHNlgRRogSiPZi+Owh53IHUIziPZhFiqn5GueB4fPCEgw932e/1GAyGtDuzvHv7rWStl2Q9lGYs0tNOdbuenocJnZcQ1RpcjbohveEea5vLrGzcY+NglRE9RFKzwAApEk1TtxMfHd75FIQLkwSrc1zCKe/SC9jHWcvTSuvzrat4Bjgp8BQ4bbLYIIRAJRHfKogSOB4esLb/kEJKFtsLzFzr0nZziLbBhI4xRboeBS8yVWSyptaK41Dxb598wD+9/y+8//BDDjjCzRdIB4KrCdUAtERc6xv+FMbXRxIhmsMJJEqKCIgOVFMhycWCEB17+0f88dM/4NRz5/orXL90jRtzV5FjxikcArnK6tSYbGUDn4sJnZeQ1P9YqeOA/vCAvcNN9g42GVY93IxHykhU0AiqDqfJ5uBwECX5g8V/6Zymz7t8kds+aylfeB3Fu4jTkJQfRYp/okBECRpQIlIKTqDf67G1t8bmwho3F+7QardBWjZ+GBMEyOnkzjm8ClEDQZUqVoy05tPlezxcW+Wg7uPmWxSzjooRIWYrrDJVdNC48ORYLo0eUfBFM05XaEwJFYMwQLoFHkd/c8D9xw94sPKA/YM9bsxfQ0XHtdWa/4vmcMmx+jGehQmdF8JZj2dorsjm1dRYczpILXv8pSb6iuPYY/dwjc3DVQ4GO1S+ptVyqFfINXaarCOPQ5ygMaTX/FcVFc3xnOUFlqdey3MWdPyvyWdt/q6NdUafPkOT9ZutT2/n9P4/3+eANKjEWolaE6PgnMN5jxNPAVTVkHani4ij8hWHoz3Wdpe5duUGrU6bOWnh4gzjDvKaPpXSNG88fUaePj82Bl0svFO8FLicZ6UxogSCUx7vrvCvn/yB1aMnhDYUXU/tAtWwQh34dhtqTxzFz96RcWFwOTNUII8haWIaJIIK1UGfYnGezmKH3nFkb7jPBw8/5MNHH3Pr6g3mZI5CASLa9PUZYyPMZ2FC59zRnKkTx0btpMQdaElT4jtFzAZqrfGSmk85PGUhHBZDgjtm7eABH23+nse9jxnOHCASGcUahoJQ0iZC1GSxSG06c2bSVzdj+tCIrvyZppObThhRc+iv5M+ruUeXKqrd9P4mFbLZeJM91bwgMTU8zFVBIaSA4ymr1JdBgVFdAoIUoDgiEYg4jYgoRQBXRagjvhB8q2Z1tEzYgXqp4m5ZcE0v44m4GHK2TdqGQmoWmk+3aEodRRtR53LjU3uoXRQERWONeIhaUFUVQSuqVkXdDfxv/8f/zv/38J84KI6Jlz3HOkIGAnQQVUJFmoY7uya+NXyGjmi+ymmX/ulVm4QKJTdjFiYecRWIs8jQcVQfQjfCYsk/P/kdV/9wgx/+4Cd0Ol2KbLdXILpc0kDlRBV942zMfvrCmO6H48a/NyJINYKLFM4heFK1hEgdIrEYsnm4yvLKPTZ2VhmOBkRiapMjDhmnVE+sJpNr/Xz8LFFyISqZWGKa13T8o7nE/ZSQyWm2SGogGl3zPs3vSEIGwlgrpRsXVITokuNZ88+5M1Fb6f/icqf4gMZIFUYcD3vs7m7waP0eu70NggxQFwgEQowUrgAKYnAUhcXvfJdQhRgDGtN17r2nLEucc2ztb/HBBx8QQp0mA6ZlvvM8czTWU7/EVGcn56JT1zW9oyN2d3fZ3tok6vmM699VzKLzApCxCEmnN12iQtN91iFETT1vnHPEmIVPVut10WPrYIWVrfvsHm1TuWFylTRtFMZTgZPdbLUptHcOI2x0ZyWTn9hb82mnXE0ptohsjtXx8Z28SceiTKca1DHtpirO5TOcpNl2k3yeXxUhRk0l1l0qLFjVAw6OdlnbWOGqPuaVm29RtGaTTzwAzkFI/jcnRSroNf4MZki+6KQ6lTqupeMLj/eefq/PyqPlVEzQPePBZA+sbx/P+srOSM4Yvz61zjPHhPEfJJe8cCmG0DlEHTEEhoMhx8OBXTdfEbPovBBkauk5KUzA+QikgmGN0ULE43IV373hE9b2H7J5+Jhh7KXgY4nEGImRFL2fS9Cnu0zGVpeT1p0vT5RAFB1bceI4+ykLmXEhPZ2KzGlecugJi9Z0GPHTwufkX4TgIMp51ySeOilTgaCqmrLciHjn8F7xZU2IPfYP11jbfsDm0SrRD1PNIqfEoIgUOPHJbKyNtY4Ty1N7NS4AIoJzRW4Bocl6o0pRFrRaLaoYiSHkAnE8/ZQ7+/I3LhpNBMEZ7qwx09fCVIymF4/PNUacczjnsZHkq2EWnRdAEvTJZRXzA18ae4VEPELU5C5parcUbUdAOa4OebDzAau7n9Cr96Ad07eUO9pqELxnLHAguX1gKtiXZ08oPy/aRM2l3yZdmVXGNpynSQcSm1lKc2By0jojJ6Y+T9l7xvs/j6LEE//1WfMqwUlTpVQQnyone43UMdAfHvBkZ5mVuU+5cnmB+dZlAp5aoXRJvFajMDVdkClrlWPSqdq4OGiqnYPkbtM1ISQ3bFEWlN4RK9Co4HOBuFwNN56wwNqV8a1HTyw+8yt9vrVXqauaGCqiuJRNW6d4QOfsWvmqmNA5d7LMUcnR8TIJpyHiVFPRJwGHJ2gkSkCKkqrqsbm/zp+X/8ja/goj+rRKP3YKeedQkVysDKbtICesOecyY9STbaNoJiiNFen0x27u+sZ69bSogGkBNvn7pCmdTgms83YCnd5eUoXiC0QrmuDiEKv0naDU9ZD94SarO/e5cXgdWfC0y4WcxZWzJmKdC5a6vIeJhefs/RrfblKblaCBsmxRFCVBR2hQQgiEoGgM4y4pxneYZiyenms9433elUkKZ2++Rs0WfAv0Og9M6JwzAhORQw4aPmWaCCHiKHCuSLNBaqIP9PvbPNz4M0/2HtEb7eHbHvXKaDQE5/FlQazzrFAVeYbJI2X6fNXPEadaPriJyInu7PtWm3TrqTtbTpa5dzptYZmIgWwHyv+PUxag8wj0PTnSnPbVOgcaCqLUoDHHXgjepdo6tR6zcfiIh2tLOC24s9AluICLES8OxMMzYnREX4RgM75xJLkvY4g5xi41aQwhpNpMTVCpcaF41l383G/6GRPP8YjUTCIl/yLZdVU41Gl2lVqEyVfFzuB5czqa/rQYUQgRwOOkTJmFrqaWPrvVFht79xnpAO0ovp1Sl+uYUgm9kCxCWucA2Hhqh+f3QHU5hVpUT4mcZLGQ5gdA4yTYaHxnP+8nnRaXT8/4h5yfpjn9+zxMUzIdEK2k2KjJLClqinVKhbscqEeco2iXlO0WvhM5qrd4srfMVm+VqhiADwRqgiQxKNq49iwY47uA954YAnWsielmHj+QvExZNKfjdBpMAH37mM7+lOmYw1Po6feceq88Y0RQpR6OqOsaqiq7OI3zxCw6L4ST+lEkTGXmpPRwR8lxVUFL6cy2Wd55nz98+I+s7n+CdJRSWsQoEJV2q4Mg1KPRlNsq5rumcffk6DeVbH/5ak0Dk4Bp0uIFtMkgk3z/Jp9WM4t1KviyGMucECO+MStFJcYUi+TwaYYiggaZGLymZz7PC+D7grhxDZupQkDjqhaChuxwkpJGmCoQ6mzLksCxHrK6/QC04NLMTd64OouIJ46UlveEie+Nk//KXa7P4XMYLw8aI74ocOKIGsffsKoSNeK9x/maKMkmqtPXtTzraWd8Y3yGa6n0nmo0QlXxRZGz7iQnMiQrjOTvNs13JD8CNM+p5ITAfdrGK1A4vBOCa+HEpfIFefvmvvrqmNB5oTQJ00l0pGd5MnXXErM1J9Ib7bB9uM5+vUW/3iRIcgM18SypKNTJ7eY/5N/labHwlQ99KmtKc5BtEwAtKQ1bYwrELcTjXYoUChqp6xynUIc06DtH6dI2YowEBYkK4pKbrykgKGfs+9yITAoVTp2oE/FGTUCSnlhPXWQU+xwOtlnfX+HS7DUuta5R+IIqFIikrIiTW5ouEWYYxreVGCPifXLPRyWk1FfEOUSE0jmqEFLgsHcgLpfDaVyY5rr+pjGhc85MnqHJOnAieampakkkxIibcYRixPreCstbn7DXW6cXd1E6Oag3PyzH6+fKwdI4Rk7NC7R55as/XFXclLBJBQ0nMTgR1RolVxMWIcZIPYqEEMeerFDXUCjiC8I43CbXsXGeSMzWp2YwaJxX+bVz0Qmfxzs79R5tBEoiSkBdZFgfs9Pf5MHGR8zOLNK+3mbOzzOqlbb4SSx2U569OW51Ns4ZxreQ5rYNVZUseM5Th9Rix4vDO5cz7xQfodaIeDce/7WxxDyn8OlnxSkb54MJnRfAyaSkp3uSqCjqAr5TcBx7PNl+yMrmfQ7rPSgroDNZY+oOaKw2OpXGrOP/jfd+jh9CUJo2DE12l6bGhAIeyZ0slHqoxFop6DDT6tJqdwmjY+oYCXFEqGuCVOAUXxb4wqOhnjo76cO5qbR59LR15auSijJOqZIzcFPvBdWQKicXNcfVIWu7D7k0f4Xrl64xM9ehjA6NMTcLdSe02XmkxxuG8Q0T04RMJP0UvsA5l11YEEd1as5QlESEGEIePbKFOMbnih3jxWNC5wUwMVbGqSDV9AhUUXCpV0klQ3aP11jbe8jO0QYj38d3iiSECCcztnQioNJSxoKnESL5lek3fWmiNELnxKsgKUDZi+DFpeLGI2jFGdp+livz11havMX8wiUkKMejI3YPt9k93OZosMuoOkapiTEgTvNnZdzNOQpZ7Di+apwRU9s98RmmLDipmvTJCs3ThJgys3yp1DrgsNph83CFzcPHzHcu0WnPwDGAO1PYOM2N+wzD+Hbikvs9aESCpkkaymhY45wgdaTdblO0S/qjIaEKiBekKEBzirg/e3yxudDXgwmdF8S0Z3b6URsB8UqUY/YOtnm0eY+tg3VGegwCrtOCahKDo3oy9mNSAdkl19VYDDU9pkJOay7P6ZNMPaSlEVMRiZKKWsWCjp9jvrvE1fnb3Lz2Breu3GV+9gql9/SPj9g8WOPJ1gPWd5fZPlzjYLTNoOrR6ZTgc1E9AdTnuKTzSgaUk1/EeFiZClA+4R47nTUlk7wJibiWEhmw29vi8dYyC+US3cUF2rRO7VVzULglNRrGtx3vfSr6WKc+ZxFhNAwQa1plm4XuPJ12i0FdI8cDRGMay0SIEcu0ewkwoXPOjA04+dpOESe5RUDK50HKyPGgz6ONT/n4we/Z629CGVEvhKggdd5YCmybWHOaB3dBepw28R+NoTQ1E1SJX7kystMph9X4+V+Ps740JrHTkQ5Xute4e+1dXll6h9tX32SxfYtSuhSU1OWA6/N7XF94hdXtj7i//iHLm0roJ0HmNeZT1Vha0s5Ev7JRKlOkgUbOsg5NW3caN9mU11wU5wsiAdUqJVOUQm+0w+rGQ+blKov+Btc786TygSmVPTabS2cS6+5oGN9emsynpoJ6us0D7U6bm7fucPPSFQb9Y1bX1tK4SCrsqponn2464zNv8xv4HN9lTOi8AM4yIjiFME76idRVn7XNVR49WaFu9fFznoqKuq5yctD0A3LaMiDjQOTGUdU0ZVAhpbGfmz94OkAoZJGTA55zA/Ky3eHS7BVuXrnLK9de53r7VYRZtPYMj5XO7ByFK2kttGh3hYH2OBxsMwhH1BwjCsFFpqsJi550L3018nlUOWmwkWafORtrrKriifc574gR6rrCFULpC4aDAdt7W2z4Ne4uHHCto5MMOXPFG8aFIlYVwaVR1nmPc1D4goWFBe7evcsrV66xuvKYJ2uraIjJbSVCCCGNz85Nep8Z3wgmdM4bhRhrUMEXQnSeWNc48YASZUB0Az7d+wOPR38mLO3TG+1TBEeraNGqu4wAxKU2A+pQcvE8CcnKwBBE8Vl2SBPAqyDaBpTKpyJ2ZUyzCUeqdZxcXwFpOar6GGKgKDyiJaFKVqKiaBGkyu0qFIlKzIXQUh9RQSNo3WKmc40bMz/g7swPuMqrtHU+VY8pIq05B1rj1NHSeXx4h7gwy2Axsr/T54AnBI2opiaJLtfmqbOSCjkd3MWUbeYkgItEl2JrojqUAoIgmor3FWRPXkjxP6EcpG1oU+e5qcOcavkEAbTESRPPE3Ax5NpHkWoIQVuUZYFzgVgPwQ8ILc8GH/H7Hc/crVluzNylGM1QD5WWb1FpoKfHlO0CX5n6uUhobmzrSMbCyjkqB7U4QhMzN7a0StLTquOq4PbIO0d8ttQ2E42YC5HmcbFpRjzufzxNM/lxFR6fUgmCEGqlcB4KodaIdjzBK0VLqHoj6r2K6ws3+Kub/46f3fkFR3M9HqwsczQ4JnhBCk9sKmR7N3U9TB3n6UN5AafGmGBBBOeMCPjC4z2586wDV6Qz7ZWKEZv7azxeW2Zrb50QB/hCUiZT7nQuJ1KudTpShPEtMdXBM/1Tx/8Gl4LkJGdnSapvowSQgEp2EsUsWPJY4Tzg88B8Yp9Pk2KHHJ12l8uLV1icv0Kn3Z1Uk4kpM6spDuhcSafVZX5mkbnZS8x255OJd3LmTi01DxYxFVgUDyrEWtEqnpghSQ70a7pJh1iDE8S5qRHu7KHEaXMUk/0yzDwAACAASURBVHOdBsnsdPQFRVngncOhOEntIYJWHB7vsrb1kIdP7nE42qP2gRgDozBpZzGohs88h8a3kUlfufH91/zphMjRE+sYL5ip4SNHEY5FZyNwnpUFKT71rKtGFUEF7z0qQhVCmrSiuKjUvSEcDLg0e5mfvfsTvv/OD5krOnzy8cfcu/+A434P71JMjytKpCyRwo/LdxnfHPYVnDMi4J2AS1k4qrnbsVeCiwxCj+XN+6xtPuLgYJNIoF36dHPF7EYZZ+k0fZ8ikwykZHVR8UQ8qlP1bvJPsri0QQuCU4ILqB8R3YAoI8RVjEYDQh0hCNQeYmo2rkUk+oiSxcRTvuX0mnOOVtlipttldqbLTLuDnCGMpgWJF0+n3aY7M0O3O/OZ59JJQCSmsGsFgqA1xJHCEKjABVLfKQ/OR8QngZWEJZPzkgWP5J8mamocXD1uDTEVy6OpWqn3qSZGqAWhwBdtEGEwPGJrb51Hqx9z0N8CXxGcjq1k3aJFYeE5hvHiiC65oHMVdxVHdEJ0KYMzSuNsTz8yNQZMcmGn01mT5bsKAY0jcLkVTlCkryz4Rf7i+7/kf/zb/8zPv/9DYj3ioz9/zPbGWtq+L1FIFbM1jRsabBD4pjHX1TmjkOomBCXgkrlEUuG5YTjiYLTLypNP6Y8OkTLivUvWByV1zY51SgbKpvExJ6YjEztsk2IuUzVnBAhV8hV7gSgRIQfTARILYgVtnaHwJeIctVYQAuoUlYqmqOdTMSeaLBWFKymLFmVR4Lx/KtxWcjomMeKnUytzLQqXq4o+D+ciEiSdwih47VBKBxEldf+K1HXMgcapKqkvsnRJemP8AVLa+olvaSx20EgUwRGSe2EqEjpSE6Im37uC8wXOCeoklQjQPpv7K2wcPWFx9jotN49qyrYofIlvuXE7CcMwzpfpQuYnXVNyKqPyOdQ1Ih2K0iWLsQbQVOy0bBWEYUB7NUutK/z87Z/wP/z1f+bn7/2U9SePuf/gU3a2NogKZXcmxebUNTFUUGRLftRnppcbXw8mdM4bnbiRUtBMckvVvqJfHbDdW2N97xHBD+iUHrRGK8GJJ4gQY3i6Z3cz4RhXzJn0nUpOl2Z/zeO/+WuK6dEY0RjQmNo1OG1zuT3PTLFAp2gTiPRGB/SqIwb1gDrWSHSM+5SfMWaIgMuiBUD1ZBDvyXOSzoOSyqfHGImfIzhPcpVlX7doSYduMc9Mu0vhPdFFKq3oDXoM62MGdS+5rCS54NKnDzhaU4c1aYIq498hRTDleV1TP0iyNUuTxQeRFC8Vc5yTRlwhQM3eYJ0nuw9Y6l7nercNsUUdBlBHysJuMcN4UYzjnqa9/c99/0QQJfdjeqEoHFIla3HRLmgVjhFDYhVwleCD482br/H3v/otf/HjXxKqmj99+AH/9sG/cTTo5/5mPk9WQ2oPUaSRPD6nHphNgb4ebBR+AWhMN4+Iw3mllsgwHrNzvM7q7jKbh6vI3JCi7RiGESFqsowUqdHlRMKMt5iXQvbHJPdV89ecDdXc5wJ4H3CiEOvUVyo6WnTolot0ikvcXXqb+XKRsmxT10N2jzfZ7K2xe7zF4XAflSxcspCRbDlSjakaaFRCbjp3smvzBCcO8VNTruZgtVnqcwemWEeKWNIt5pnvXOX6/G0uzy/RKduoUwZhyO7BNru9bbYP1ugNd6hjhW+DSsA7Nz7eaaEmnHbJTVvPmtS4/G+pcU5T/JQkoVPXAbwiLuJKOD7e58n2Ay51r7HYXaI7O0c8VMIoUOB5WrkahvFCEU4kUD67SrlQBEchSjVUSoGF2Xl8Kez3thn1hsy5Wa4sXOUvfvQX/Pav/o6bV2/wz7/7J/744Z9Y3njEyFVIqxg3eFWXrPTT1n2z6HyzmNB5IfiUHSVKpKaSPkejTZ7sP+T++scc+z7t7E5CFRdd7lRLmlk0LpSx4JmkWyunZJAAGlHRKfeV4os6hffUitOSjpvj8uxNbi29xuXuLe5ceZsZP08pJTUDjkY7rO0/YmXzHqtbK2yHJ7lq8emOWkyESpz0hXp2cbyn7ceam5Z+FqV2WGhf4ubCm1xffIXbl9/k8uw12kUH9coojNhd2Gb3aJ2V9gPW9x6yP9hkVB2Dj+Bzu4cmSLQ57qmjTm01ItPaJwWUSv67QyJEdSkeAMal4JWISkRagc3eKvNbn3Dj0i3mO/OU5QwuFnj1z53RGYbx5YlnuNZPx4I/ryaXKHTqEh8dbeeZX1zg8tIlBsMhg4ND2q7kzatv8KPXf8g//OU/8NrVN1jbWeVP9z5meecJPUZIu0xxQUGhyCUpRFJsTtPv6qlYR+PrxITOOaM5NkREqF0k6IBB2GdvtMn64QqPd+/TniuQooIIXkq09CmmJNaI90g9nW3VuKtOP4ibf0VSxeKYpy0pFd1penj72KbULpfbt3j1yrt875Ufc2fuLdrlAiWd1MZBA5UesjR7kw4zxF7BXm+TWkcT9xXTOyfH2iSBFmIgnHqYhxBw3o2DsdO5ybExkmXRZ4idtpvncvc2r17/HreuvMXthTdYKC7jpUhuMAJL7SP2524z27pEy7WRHWF3sE3FMY5I8JPA7nHMtro8IDbxTZMAcCWiUyYY1WSh01gl0SMlRZFT050SguJbyuHhNivb97lx+SYL7ctc7dyiXc6mQG8TOobxYpg0ADwxUk1bcE6LnOZvQpoPlUNodUpm57vcuHmL7lyH9dUNZqoWl2eu8LNXf8rf/uq3/PydX1D6gj/d+5AP7n3I44MNemGA0iISiVFx6hFf4NAU99cqcSJUVf2CT4TxPEzonDPJXeXRWCNFRFzkqL/H+u5j9o42CW5I4f2Uo6lID1Cavk8Bh2dsez2x8Yn8YZxSHrMLKPWfIroUjyMglcPHNoud67x64x2+d+vH3Jl/m4XWNTwdXCwocKiL+CgszQjDxbc4nD/mYXyfg/4QDYovy5SeHqfjcLKokiwYTp0H17i8ZCLWxoKnSdHNcT3TQcnpdUWJlNrlxuXXuX3tLZa6d5gvr9DWuVQ3R0A9+FaL0rUopaQsy2RBW685CsnaElwP55JwCSGJHe9SSXcJkkTM+EM13YY1zRRVkVyHSFQRcYgk61oSQDIWnIGKfr3Pbn+Tw+EWl9pLtHwXreJUHFNzHnLV1PwjU7FOhmF8EXIcpObxNA83mid644ryYxd8qqnVFD8taphxbZYWr3Dr7i1m5mfZ2tpmb32HBVng3dvv8cvv/5KffO/HzM/Ms7yxzPv3/sS9tYccDA/Rjp/kLrt8X+fxVyVNm05YlyZH/YwXjBeBCZ0XgPOeIBXqA/14wPreI1Y2P2VvsIF0lMAIVJL6VxlbaAQlauT01zKZkUw/MDVnGwUmCZQOVcl5lY62zHN1/lXuLr3De6/8gtevvkdXLqGxoHBlymbyqR4OoWS2vMTNBThY6DFXLXA02EuBzNJ4qlJzuvSgHnuB0oP61DkQ5864d6eiALOrbhzv3AgibeKAlJbMc/Py69xceI05d5m2dPGxQLMeKXAp08q3mJmfY352HiVAUFZ3H3EcDhmFw/T5JKKaKpU6PKkre045HR9UE+nUjDtJpHg8jGONlBhDWjdFZKeycCVUHLK2/4ClmWvMFZcpZmYoCzcWNuOzMCV8GqFjGMaXQKYmeyQrM2Qvc1RcKmhGDGGSi1Cn2LmWK+i22rxz83UuX19i7uoc27vbPHn4mNgL/Oi9H/H3/+4f+Ksf/po3b7xFLTV/Wv6QDx58wKOdx/TqPjpTTkSWm0zUGjSY4/plwITOOaOq1KFCSmXEMU92H7G8+QmbR4/px0NUaqL4NPHQxkUycUxJU0H1dDp58zZJjeVSdlGuMYOmOJKYlhJLitjl+tXX+d7tH/Ha1e9ze+5NZuQSnjYhCikSaGLvlejweFpuhtn2ZTrtNkVREKuKGCIhpkqfcrqVwgtkpj1Pt7VAW+YopYvXMsUCNTOoGFMQtCbrzqy7zJtX36V0BZ2VOR5vPKJfbaUaOK6xnOTGfFm9FVLmYOUcByVh8m2IJjdXI4Ca/PRx/JRLossrUjqGowFrW8u0whzd4hKdGwtc6baJx3m1LGwaPk+KvWEYz0ZUU/IHk6kKIojzqAfy+JASEBRfC60Is0WHpbkFbixd4727P2SkA1afrPLp/U8JvcBP3vox//CX/4m//slf88q1V2i5Dmv797n/5B6Pt1c5rPepJaQ4BZ96DzbH8HWNj8bnx4TOOaNoivdwkUF9yNbBE9Z3H3Mw3CUUx6ikGJBkyWncUDqp3pm3cjJVUjghdkg3rpOUGC2NdSSCRI+nw2L7FjcX3+CVq9/j5uLrzPsreNqIupSNBTkuJYktGVtWsmvHewpfUNV1amqn2f4hT7upXhStoo3zJY4C8OPZUnLL6zhzK4lDh5cWl9pX4aoyHFZU/cjB4TLHdZ9QB3wZUREimmoKaTH5DqbE5clxasokPv5dSefN5VjwQFE4qrqiNzpia/8Ja3uPuX7pVRYXL0N/0t28se7IlGvP+uAYxpdDmiaaTHl/nGRvlSOGCHXqdeejoyXCQmuG6wuXubV0nTvXbtPptDncOWJzfZPj/WNuL93m59//GT9598fcvf4K891FBmHI6sYq91cesHmwySAMciuQs8qkGi8bJnTOGXGgXqmlx25/g5Wt+2wcrXDsDpBCca5JZU69l5oZgKI5O6DpyXTW7ZNid5wTxKVHv8sZRRoEFwraxTyzrUXevvpTXr32Nrfm32DRX8PThpBEjXfZTSRhvBtXCJHAIBzTqw6pR8McK5NElxcB789KonphBKkZVX1GekSLNjEKElLHdp9baiTLSiTG5DIs6bJU3kSvO3zo0NteZ2dni+3eKjGOKEohSCSoS+0uGuEEgIwzNJoOY+OA72z3Tq9mS1yeKcaYihUWLY+bUQbhkLXdh1xdvMXla5dZdHfGgibmLIxxYLY1/DOML02qghHQogRyJWQlx/9HJIKPDh8cRRAutWe5e/0Wr995hVtXbjDX7XLvwRorq4852D7iztW7/Idf/wf+7te/5Z2779LtdBGnbG1v8MeP3+fDB39mY3+TihoKh/hJQ2C7i19eTOicN6KIH3E42GF99xGbh084pkcsanzhcDFbUHLX7HSPpEJ/aXVJNWzgVIivjH8EwaWOn6n43igJnRYzzM9c5dribd69+TOuLdxkobxKQSs/q0Oe7SSBkCw1ASeCupqKEQf1LrujTQ76R9ShAgXnBRGf4lFEqevwtcxijofbbB0sc+3SDYpOi9IVBO9StppLAd+Iz2fJIzHiXYEgXOneRG4WHJZrtPUBw8ExR/UuuIArUz+vVJrdZfF2cphKyeWMXYMpUDyeek86j6lERtq37whaKRtHa6zsfszN4yUWuQNMXFUhJK/9aVeWYRhfkAAUHicutb5RhTpk63YSOLO+zVzRYabT4tbVG/zgrXe5vnSValizub7Lg+VlegeH3Lh8i7/62V/yn379W77/xvdZnJ2jEEc/9ljeesiHDz5idfMxwzDCdRzqk0tbm9nRZwyKZvn55jChc+5ERtURm7tPWN16xMFwBy0Crkypy84L1KRgXGnC1KYCVdWNhcgkLXlSo6aROio5ODjGZM2JJbPdRW5eucsrN97klUtvMt+Zo8UsjqaxXLbiqIK4FLinjiiRSgNHYZ+to1U2Dh/R7/cIIVkqBAF3tiB4kRyONnm8+QkL7cv4KwXthS4tl8usS64ulKsue1cAkZCFW4nn0uw1XpXvI3WLXv+Aau+YQX2QBIvzREkhyZNBKgvMbGZrGqKmoO/GdZitaprfJwFxpDgmVVxRoDFwdLzL2t4yj7evcXf2l3jvKYpiUoPHBI5hfGVSCJ2bSulM2VapZYyjE4RLZYe7V25x88o13nj1DW7fus3+4REfPbzHp58+YGf/gFvXbvObX/yKv//N3/PTN37Mpe4iAtQEtns7PNx4yIP1e+z295AiWYNjrr/12Qf5nL99jRby7zImdM6ZGAPH1QG7exts7a8zqPpIJ/Wb0ggt38qWgakMn3F4iEsZQkkJPXX9TzpqJ39ViDUShIKCwneYm1vi5vW7vHrtLRZ1jra084M5M272lHKzXXbBVBrpDY9YO1plZfM+a3uPGFUDxKWgZQQ01qS2ClkMfA1BtFU4YHtvmYfFIl47zLQvs1CWFNrC4XC+yXgY53ee6EReMsP17i3C1cBeb4294w0Gxz1CGOGcpLTzOBWnlFcdnyUVkthsCjY2n7lJVa3H7isRIYYaQoH3QnQj9gdbrO7eZ+AHtFopTqeYaglhoscwvhriUnJCJDXSJESIQimeNiVL3VneWLrDe6+9ze1rN7m2dJ3+cMi9Tx/w548+YXNvj6uXlvjRez/g3//6P/CTN3/M1e5VPEIdAkM3ZGN/neWtFdZ21jkejdButvdqxaSD8Jc5+HM8EcZzMaHzPJqgV5iqtUIKgG2C0FTH1TlVlVEcsTtYZ7v3hIP+NrUOwadGmIQcw0O+xmXaFZJ9vSdMoOkBO50ADemYRHJxKvUUzDDXWuT6wg1uLb7GjfYdWqM2aDnV3qmaVApuHtQSiRLoDQ5Z3V3h4dbHPNj8lCf7DwlFRasoECcQlZACgYg0gbTZ/ZW29CVO7ul1TrvpFHxkf7ADa/eQ2GGmuEJYFOba87hilpIClQKiUmvAi08tKcRBjrBps8jVhcDNK3fZ3H9Cr9onaIUgFE6oFSQ2sUpC09NYp777SQCyTI5t7FhUtK6hVeJcjr5ygms5hnWf9e1VDuf26dKlKOeJKuPv02Wr2rRL7Okzqc/8y8vDU5L8GzkK4+vmWd+zPv3nZ2r5qTed7tMwmbOcvZ6Qg/UkZ5wqElIl+LnWLItFl3dvvsHP3/wBr928w1yny97hIR988D7//d9+x8bBPtdv3ORvfvXX/M1f/A2//OGvuFIsInXarrhAf3DE6u4TlteX2drb5DgcU0hrUh+nCZL8Mtj85mvDhM4plDIXkwq58WxT/CkSxaUaNaqUohTOE7RGY01EOK5GbFT3+MfD/5V7B/fpc0xntkWMShnaeBGGgxGtIs3ufTzdBCmCREYuVTb2UxnNqAeJRKf06z7Oe9p+BlfNsOBe4fXFd/jVrb/mzbm3ackM2m6fCGkOVa4HE1NAcSVDKulxEFf5+Oj3/OHJf+Ph9sccxh5hcUS7TkUM61gjOJwAziEx5J4ugeAi6jRrqaYeD1Ckvydcti8DMgKp0+/qECmAIUoNeETLtBVXgcBISigdG6NHHGxvsyfLvFG9y7W5O7zq3uV66xUK5vCU6XsREFeMO1M4KVigTTd2aS21mQtX6IQ5Ptr4I/24Ba4muBqloIg+neNY4gSiq1AJqDqittPh5ysEIIqOxRGUScRSgCp1PcCXoGVgvbfCv+z+37x6802+N/MOs/EyeuxpyQx4T6010cUU5KwOl7/zpvWHjis2vwwNs8Z5/VOvnch3yZx+AJ61nvFtx53KpR4PVTL129gIqpOXxkshNj3yXJj6Y0wuKIG2K9FQo0FQcdTNPp3gijYhHkMIECJtShZklqvuEu9ceZu3brzB26+8xcLCHIM45NHGFv/9w3/lX97/HYOq4s3vvc4vf/or/udf/0/cunqbm+4aDIXRYEhr0dNnyPu7f+Kf13/H//PJf+HRwUNkdoZKaxhFfKtNjDHVLvscnKlrTOx8LZjQeYqzBu1swdHUxVq85PotAaIiXlAJVFWfo+N9tra3qUYVrhCkcEgd0yy/cLSq1lk7PYNklUiGhTRr0JxS7Ysiua4qpdua5dblV3jl+mtcvrSEd45Y1UjZbpqG56DXSf56kEikYnewwcrOpyxvPmB3b5dqOERdSG0opgamb4pU3ya5dqowYHd/m7auMJwLtHWe+WuXmPXtlIUm5fg56hwoLtUJyiPtbHuWpUtLXL1yg7XDFUbhgLoe4IpTZmeZtlJNu6u+PBs7q8zPzHE0f5NWq4t3M4RYoaNIIJJDpZATpcUa69GXNIt/bZj15rvKWcPD+Jn/nMti7Kofx79NbSy78BuGVQ0h4kRwvqCUdJdEDcR6QLvVJsQK6sis7/LG1bu8d+NtvnfrTW5evsFsZ5b9owPubTzk4foj7j9cpvAt3nv1HX7xs1/wy5/+ips3bnBp9hK5zDtSJAf4QXXA+uYmyw8fcHBwhLqIFCneUevU0iFViz+fccJ4cZjQeYqQ1UHz3EyCA03dwDUI3qeg0ipGAgFxykj77B6vsb77iN29XYIGWkWKJQkasqtLnp05PoUbN2UqmU5BT8cBpRSEOkItzM0scPPabe5cv8vCzGWclkTVdNQxEJsqvHmTSmTEEf24w8rmp3y08geWd+6xU20x0hoKpfCel2H2LTi8E9Q76ipw0NtDR0L/sI/UnlI6vHG9pCOLlOIR7042RI81MZaA0CpaXF24yStLr7K5/5j+7j77ocKJBxdOfC2N99DFHID9FRXf9t5jFma77F6+kTqxlx2oIGhIMT6aMuXHDjFp0s9l8uR4KcbRZ10Tn3Vw3/y1ZJw/2jzfp7/ez3mdTowgp91Vk3g7EaHVctR1siLH3CSZOiQrDjAaKfO+y2JrjlcXbvCLV3/Ij15/j6uXr+C8Z6e/z/29ZX5//wMerj6i1zvm9Ttv8Juf/zX//le/4Ufv/oT5MEO36I4/R9kqqAls7W7y8PEyH378EQdHu6h4CpdS2GORLVExThI1jJcWEzqnyZVxmx5Up830qgFRRySlCUcXiW7Abu8J99ff5+HWR4Q6ULgCX/pxqwRRCHWgChVlrvnwTHIcRxOhQxOwmls/uODRUNCWWZa617m2eJv57hU8LUQcvvQ0Ac2Q+jq5AgI1I47phW2WNz/m3vqHPNy4x+5gg7ocgEvxLYUUwOibNujQNA4tihRxE6qKo9EedVVBFISCstPhxtwrzPtreMqJoCQma5uARsFT0GaWW0uvsXm4xn61w/H2IdFX5MKqOQtOxj9NDNZXpTfaYb/3hNWdZbrlHJ35OTqujRsy+W6jgKvHripE0vWXXY3WGNR4aWlKfwFPuTKfE2Kmp9/QZDKOMxyV4XCU/l24lICgkRhSWEHpC+Z0gVcv3+Htpdd4ffEW37/9NreXbnAc+mztbfLnJ5/y/oOPub++Qn9UcefWa/zlL/6G//jLv+UHb7zHklzCFZLSGJQ0vrc8Q4asbKxyb/ke95Yf0BscQ8uP3XLjMoHf+CBpfB5M6DxFk2HTNHucBLZKBKaCkMUJFDW9ep8new+4t/U+T3Yf4hd8arEQs2sLctCafi7ln3oxpUCTmGf3giKaY0ZGSst1uLF4m1dvvs3N+TvMFYske4BPsTIEhJiqCufg4VQnZ5PNw0f84d5/4/Hup+yM1ojFCPE5FDfqpHXMN01jkZKAK0C8QKgZ1Eds9lcJG0J3dha9obQvz9Kii1CgmtyMkt1CEpJvyEvBYvsad6++xW5vi4PDHXpxnyDD5BZsRq1caZmmR9ZXHM2iP2JvuMmjzU9oSYeZcpGlTgtXdHC1S7U4NBAjTWP1qcvEporGS8pTl2a+h84SN/rMqOLxqinkrdlGLu8QAV+kOuSqMFJalaPb6TDfnuXnt3/JGzdf5/XFuyzNLLI0t0g1GvBg/QEPth7yu3sf8Gh7g053kbdvv8Hf/PQ3/PaXf8dPXvs+i61ZNOSmuyLEGPn/2XuvJkmSI8/zp2bmHiw5Kc6aA827ARw4ZmZXFnMyciJ3L/u17pPcR7iHO5Gbnbm7HWAANO/iLLOqkrOIcDcz3Qczj4jMrupuIGu3q4FQkZSIyIwMJ+Fupqb6J1IInpqNgw2+uHOdG3dvsHu4i5aKlAVRE4M27aqAsfA/gIE6jdPFNNH5VmEQDVlAzmDFEEURCdQ6YOvgEQ+3brJxeJ8j3aGlCV2jPgn6jdyyjVDoN1RzyGlW1rdpqMeRmK0OQL3Q68xwafka11ZfYamzSkkb0eS9lMSVJdHH800Y8Rz6HdZ373Jv6zo31j/mMGxRM8Q4RVxKcmIE6vBCQENCVDQzpIyVTLBIzbfDI0/Yi9xen8O4Fr3OHEvti7ToJN0gGNHnRQTvA65o0UJZmb/I+aXLPNl7xHB3QIw1auuc7GT/qfgcM72ypu/3WN+5g9EWizNn6RSzdFUQ2hmvkCpRx3le0phMPL99mcY0nlc8rQ2v3/D3E3GsgpNfN87fiFB2uoTaEwYVWgXaaliZXeXamQtcPHOe95c+4MziWVa6i5SuYBiH3Hv0gN9/+Seur93i7tYa7d4cb7z8A9577X3+7sf/wDtX3mLB9jCq9A/7dOdmATAukQyqWHP70T0+vv4ptx7eocbjWgXRQKBudhDNpqHxhVgVTuPrYpronAgZmTgmxJw0rStN3kaQKiyBwECO2O4/4e7GdW5vXKcvO7heIOr4fZIBbiFEjIB1luC/vg0xwgGrQQmpuqMx40aElu2y0F3m3PwllttnadHDkvBAI0qDjkW0lJohB2wdPuTOoy+5vvZHdusnhHIIVokmt0lQrIzpz9/17WsboJRJq61a0jejEokl9Os91vZuYdcLeq0Z7JkWy60zlNJNx5DKVIg12GgI3mNcybxb5czCFc4srPNkb41aB0SpSe0+g6hN2J0RVup0EZ0nmAF7hzXs3ObC/lWW5lYoXAuDw6pLNUOxQBKS/BZzxP/gOEmxn4yTWfFJTM7X/e80vr+Rv9f47G91lAOMGIrH4yuM8hElC0SVetCHYaCohaXWIlcWz/HGxZd549rrXDl7kdntDl3Xw1jHgT/k1sY9fnf99/z77U/Z3t9hYWmFD9/6Mb96/9e8+9I7/PDiG8zaXuMeQ9kpJypQisezFXb4/O4XfHLrU+4/eQgdxTjBSy51m2QUSoj5sOQFKYFP41kxTXS+EpOnZFIpNycvIVJrxLsB/bDH7uAxD7du8XjvHtoZ0uq2qPseMab5D2JQal9hjKE0KG9/uwAAIABJREFU35Z1NQ4VTZsPqaUyW86y0F5mtligkHauYNiEW0k25iCOpt/mCfR1j53BE57s3+X+xk20XWNaKaHz3iMKpbhUOVGTKJTfcdiE/Evtuwg+1ogoYiymBYhnv9pm4+A+j3fPsDK3zEJrnkgreXuR/seZIiWbtUWi4Eyb+fYyC71VnLZoBAPHdhxCxI6p/acNo6hThjJgv95iv3pCX/eo7QItOkR16btr2mUwzg3Mt1RfncY0vovISc7JhAXGoP60aMu/nMh1hLF8RmywL/m11dQasl7oui7n5pd55ezLvHLmCpcXz7HQmscdOObbsxRtxx4D1vcf86d7n/L725+webjDzNwcb//gPX71/q/5xQ9/yrXVK/RMj3q/T4VStktcUUANFFDjqanZ6e/wYPMBDzfWqPoHSK+dxiCSW7lxJTEoWUvjv8NJncbzjum3dCL8MGIKi7UCJqIhZudui+AIpgaruC4c7exw9/F17j6+QXQe42BY9bFSgo6RHWJkpIwbwzczUELwYMAWSVcm+IAlYUxCpSwsrnLxzDXOLV6mV8yBN6hGjLVoVCIRm6RpiC4w1CMePLnNR7f+nduPbxCKAbhA0EjEgHWYmNpeMcQEyLNjejdCEuRSzYaX8pW+9AicZ8avTzs/a0zAb9Es4ydFTkaS3pCUgvohe8MNbj38mJKCjsxyaa6DlVZaFRqh8jWWgqIQYrRENbSkx/mFC7x27Qd8dHePg6NtWnPpPIYQKLCo0eeyUosqHA36tHtdxAc+uvl7ClosvLFItDNISBo+IShRM8lcFGfA2GT6qd85cUkQUULIqkmS27FZpBEaGQPNwokxG5gqRZGqoSFMM7a/qngK5NA0rSdSyzhmjQsxghiTx4VI9BHVrGZqDKVJlG5f1YQq0C3aLLTnKcTw8plrvHPtB7x6/hUWW3O0Qol6cEGoWp4Df8T1zTv86+e/418/+T0Hvs9bP3yXt19/m//557/lw5feY9HO0abEILS67dF2IbFTq0ENbcOW3+b/+bd/5v/94//HYTjCLPYwbYNvREWdTQroGHAFYVrJ+V7ENNE5EdaVaX1vUssoDeIRVUcQJYqiUnHY3+bR7j22jtapTR+xSjRpQnpe0m6qPi3qRfOqydF2HWbbC8yUC3RMl4ISYx2a5ZnF2vH2bQYgV1tsHT5mb7BBxSEUkWBi9moZu++O4mnLsxcimvVh4y0eUROo4wGH1Q7bB4/YHWywNHuOOelmULYSJY6sIYyBQlq0XI9eOc9se5GO62EGSV21ofEHVUR9AmifsttSlC10MMQTcGbIIB7wYOs2t9a+5OXlkoWiwFqHU0eMikFQUYwoIdTjFuh3HCmxgWZ6aywsoKHD6yjZETFYq9mdPSfvDf5pGn8V8bRvMk4oIiQ2YSr5aAQ1SQlcSPIXRgzOprZ+8B4CuGCYc12W24ucm1/m3Zfe5tzMKhfmVphxs1jv0KA4LGIKHg82uLF2h99d/yO3H92j1evwg5fe4Tc/+Q1vvvQWP7zwBrOmR0sKnDEk2WNFMUiWcDClpRTY1X3uPLjDJ7c/5tbabQ6qQ3BZXD4xShi3ZRvSyjS+DzFNdE6EMwViAlFqNGq+MWyjU4vawFD6PNq7y+1HX/B49z5B+1gHQQ3PY+mtEpMbb+aliwBBccYx25ljafY8c71VCtcDXF5ZTdx4YrOjhNIPhzzZe8j9jVts7z2i0gNMKw9AuVVilIxBalR4XxQkRTqeVNVOVPO0Bkwl4ygeMQEfAvvVBhs793m0cZfV7nl6MwtYSiBmmYvxUQnQtR3muossz6zSbc0jByXqK0yRgOZBfHI/FjuuVv2FYU2BMclwFGcI0uf+k1vMFgvMzyzSKmfpiMFoGyOCqMsUv0DUBs/1HX8juT9hrKIxT1gjI0WTmGpYnBUUj6pircEYgw+eECusaX+nhzCN5xv6lQXRSWyfJrbpxMt0G5p8T0fUD8ALDkvbdlnozHNh4RzXFi5yceEc7736Nl1aWJ8wdkHBWKGKkcFwh/+6+TG///QPfHb9S1rtNj9+/yf89jf/yK/f+TUXFi4kPA5jIoMSssu5waokFQrxBIkc+EM+u/sZf7z+MXc37jPQPq7bOqGnNpHc5HbbVxaK03jhYpronAxJcvwaIjo58RsFF5AicDjY5cH2bR5u3WK3v0mwAVFNQn9SPBdMhRqI2VDSZI0JJ47FmbMsLZxjrrNEYRNjR6PmgnDClxhJRneemqPhDlt7j9jcecjOYIO6HFKKIyU4CXidzRvSdl+oe/Zp4EVJ+CP1qFgEnwDVccDO0ToPN+9wfuEy873zdEy6vK0kDY5JSpOTkk7RY3F2lbn2MqW2qGsPThCjqZX3nBZsvvKojk1cpYCjwR7re/d5crBGr1wkFpEWigkFBpOkC5qB9EX4TnRcrRn/KldxIuleEcHZgqgG72vqWrE2oGhyl38RjmMa/13iGHt89D3L2KlPpMndE6VbE5bQBKHrWiz0FrmwcJ4LSxd5eeUyV1aucLa9jKvBeCF4j4pSdFsEG3i8sca9hw/4v2/9Cw8frVN22rzzw/f4x1/9ln/48O+5tnCVFq08XqQEJxAgy4aM7foUr55glM3dDW4/usPaxhqDcAQthy0cIXhEkwXFVPzy+xnTROdk6JAwga/BWDAWI5FoajyHbB+us759l/1qB28qkEAMipMSY0y+of7yiAJOIEaPUUmeWgFc0WZx4SyLs2fpdZaw0snsqrEGjKrJ1aeKSvfZHWyxufeQncNNhnEAEpO+j5qRtxKQBp7RpzwPhM3pY7wvZCraxEgqDlGPiqFw6VdHR4c83rnPw517nFt9laJoUU74LGkma6cPN7SkzVw5z2J3iW45x75WmJgqQFjBZAjBadvwVRUonEmSARFMKUhbOPBb3Nu+yVx3gcKVlLZF9AA2JaFZq0mQFwCjM8bgNMKV499FQohsbW6xtLxE2XL5nAVCMIgErHPEqebhX3eMGJ/pLjOjNqUgtaJ1wITk2laIoe06LM8uMd+d5dLqJa6sXOLSwnnO9M6wWC7QouBgdxdxFtuyBKccSZ+1rXU+uvUxn335OTc27rK8tMwv3vkJf/+Tv+c/vP/3XFm4TEtbUOfrtBgzGZM6mck4Q0AEtcrBcJeba7e4/eA2+8N9aDlMxyXTUD+ZoRuOmzFP4/sQ00TnRMQ4RDBZx8EguGTyqJ6BHnHQf8L67l02Dx4xlAG4jJ+IiSmQpPpOHyJZqyGv6GMAWxYszq4w11umZXtZDNAgJvXBDZI9rZLWTH94xM7hBlu7m/TjAaYAFUvtI1YcpgH5ai5Dq4yc2M0LsPxWcgaTVZ5FYqo/qSGqQU1mSxkoDXjr2e9vsbm/zm5/k04xR0F3dCSqEcn28RpBnKHreizNLDHfWWRwsEf0FVIk4G0qpMmpK3QaI2IMNqbVoRGHLWBQH3HvyS3OzF9ktrPIjJvHWYsLib4aNJt9mhfDS2ec5Bz/XYyRGJVHj9ZptUtcMZf8xtQhksH8jaXFNP4moilGJsNNUB+xQem4Ft2yxXyvx2J3mZeXX2JhbpHzC2dZ7S4zV8zQ0RIOPf26wlpD2S3RUtgbbHPz8S3+dPMzrt/7kkebj3nl4jXef/t9/tPP/yM/ev1DLi5cpKQNPo52RInoqG1tkrkxJrHCjOJjYG3rEZ9++Qk3791iv94Dl/6r9pEx6jKbjU6Tne9dTBOdEyEZkwMOyZYKMVYM4oAq7vHwyW3urd1gr7+dWFm5YOBcoin5KjwHNLJJyVaIiIkYCpLmcYuZ3iJtO4elc7xf3KywG8FAavrVLtu7j9k5eELlhxSdAi2E4XCIGbPPyapByZEbyQlGfdqDOHXoBNhPRGkcvpEG8ZhKySHGZDxuIv3hITuH22z3t+h1l2jTStUUGgXU8eeXtChdl6XZVRZnVtkaPGYQqwkAZTM5n66HVViTEmERIAmMiYAvPDv9LW6vf8lMMcPc8jyzOIwtkxx9VGJUrHkREgRNRf+ss/Q0ULEYi7UOYwwxKs6BiKX24bmw16bx4kYj9Dd2JofoK1w0FMbSaXeYKdqszMyyODPPytISZ2bOcrX9GrO9GeZbs5TRYCvFRtDoUR8xPctRHLBzsMfN9Vv84cbHXH9wA1rCpdev8U8/+yc+/OGPeP/191npLNOiTah9wjYaRazJC9YkmzGq70pakEZRDo52uHXnFh9/9jF31+9ShRpKAQ3EmJTmx8Wq3POa5u3fq5gmOifCOM2Yl4R1SbpQQtSKyvd5tLXG5vZj+uEILT0xG3Y6V0AVCL4C+83qx98YzaSsDehTMGJpF92kC4PJysFgTWLoaMyK6aRVzLAecnCww8HRAV6rRPMVh+owgXs1JRBGR4pBqbw72W9/ASKncHnvmoYWoDb13r3HZwqrp2ZQH3I42ONouE90y/AUbzGTk46Sgpn2PHO9WVrbJYOhJNVrkwZbMe7UrCtjTUqarMHagqgedeDEoFXgweO7rHbOcq5zmU5rlpbrkgtKGGMxYrKP/XcZks9ZqnbJxApZRBFRVlZWmJ9fwBXQ73tE0gIgKVub3Jabxl9bTCY3zaMoSBWw1tApWpyZX+Ls/BLnF1dYml/g3PIyC8Uyi/2zdIsWhTh0WEGVTIVbnQKcYS8csnWwxa3Ne3x67wtuPbzFQCtee/l13vvR+/zdD37D6xdeZ6W7TKFtog9Ya8HqRCVHcruK0bgmQJBIHfts7WzzcO0B99bucXC4h+kZnE36YozcycdWQN/1nTiNPz+mic6JGEqJFUtJm+ADniPMTE0/PuGLx//Ozf2P2TFbqRRi7MjPrvaa0PxFyWlvhZYrIXisMRgiYWCYs0tcnL1Gz8/QCoaWjRm/kdpcikGNZH25yJ7usj68z7q/x365QVCPCTFhftQCIVVwBIJaUgkjtRqsRlTNCP+jahCBIKB4JHpcjLgYcNFjtAYS6BQFiak9FG0/qzW3gDRZRwlgaoLxid1kcsVEZORnM2pP4ceMclzS35CMJxKPiMGoYKUgwQ0joRPY8Gtc3/x3esslZ+USDrDYRMHPh5ppGJg4y1LnEkvlOeywjYsObNLpCRQ8Dx+bKApWSDIFlkBSXQ4ErD1iSMXd/Y9YPJqjNzdHYWeIlRCC4NSg8Xk1RP/yUAxKF8kq1RpCSmSswZgWIoHl1SVMoVR1hTHgig6h9kSv6XR/QzRVoqS/M6avN68n3/O3HjamobtpNY8ZUDEzMCdU3fOrpl2Tp/kkRhkzIUEcRpMOToxKDJGitATVxBY0ApPTvDEUsUZjTsZJGl5+ELFq6FLS1lnOdFY4M3eGa6sXubR8gZW5JTquTelLSnUYU1OowVaROngUoSoidRmo2kOe9Lf5/OAmv7vxex4+fEjbtXjvyrv88o2f8aNXfsy7F99htjtPEQtQwRibEYZNdTq5uZgQUTHpNgRQxcaaodZ8xuf84eCPrA0fomUiL4QQU4nKZHyPBMYI5qbKO70Wvy8xTXRORMymmBoVExPLqo4HPDl6wL0nt9gebuGln8XkYp4Hldj0bk0eRE4R1hh8NtIWlQScdW1mO/OU0krigXCM3dAYkYpAIHKoBxxUuxz4A7xUqHiilJhIsjeQxEAYYXL0aeZ0mmndnPib5C3mNkbz3uYhe22Nqy9mVIvRjHuRhk2kEE0DXtS8L7n0bcZO3k2DTUWTxkxUhJA+OyuURVFwMIgDdo+2GMS9CR+apw1KgjUF7aJH23ZxYkebi2IS006fAyxbSKwlBNSD2FGVSiUQTWR3sMnjvQecW9ig7CxgRDBSJD7ci0CFU4ia22gCzeo2xkjUSB3qhHfwVabEW4w41ICxDmNsVpN9dkh2cm90gyZ1eqZxIpprQk5cHpJwepJht9poZTHG4QFgbRLMMwI+t2IQokY0JIB5VJOICzZp3sSUq5NvNoxavK/wPmBVMFowazssduZZnVnh1Qsvc3nxPHPlDAvtBebas3SkhQaQGmxQ1FbUYYgPqcVkugXBwU61w9b+Fh/f+5yPbnzC7bs3WV05wy/f/xU/fe+nvH31Ta6eu8p8ZwHLuGLbCJyO7vdGbFMkDc3aAJKTWv3G3mP+dO8jbqxfZ+toCy9pTJGYKvpizIQo4OT1K8fbV9Myzwsd00TnRCgJoxOCIjZiisjOcJt7D25zf+0uQ39EtGOp8ibyWrTJDU4V3kc0RtTE1JoSR1GUlGWbsmxnHyZ3ItEZH4ESORoc0O/3qat+GqxMc/8brJHcCjl5d45vaMnMmqZBkbgSzQoxJ1ZZh0exKDbZJkx8jMlYpyanEbGY6HLbzGCCZHHS1D6zhDRQaVNw/rrxQ3OCMwYdikmA4xgDVTVgMBygRZ33++kCX4LgxCWhSHEYMYQoaQX3nATBtNm/ZsBUklVHxhmFWFPVfR5trHOvvEXn/CILrYKiLLLe0ekB0acNJRJDxAoYq4jL50cq8IqaKk+6BoxDg1BVPqWnYtHwzUV/fQaOp0l2EvZnCgIFCDYvpnJ7m5PJTp6IFZt7SvmOatowmYigWemayLg96tI5jxLBjP36JIL6MKp0SHBYbyhU6LgOy90lLi2d49LKBS4vXeK1C1dZ6MxhgqCVQlBiHYmaqr9JQbuVKrFGsS2LtmCrv8v1tetcf3CLj258ys7OFvO9Bf7ux3/P//rb/403L/6A+fY8HdfBygQgUsaPzVOTbrYRzT1pGAYoAkf1gBv3b/Knj/7E3fv3ODg8RIoCl72sGldzJu7bY9uZxvcmponOyQgZn2ECYiO1VGzsrHF/7SZbe4+QDkjWYzgeeTB5DqrCGhMVsslFxBjKVpt2q0NZtpHGVO4ZE7GqMhz2GVZ9fKhQDXnAyv3mCdrnU/47/ykPpCPQbxgNdk2io00igx0Bh8eLHCEBuif3Mb1XdFKET1O7SpLg3OjT/5zTqGnSNQkuS1RPXQ/o94/wbZ9aRDwbN2UwlEXyvTHREhqs4XMa0EbjY57rhTBKIdPfhUprNnfWuWOus9y7SHu5R2lLCCYL9D2ffflLwwi0CiVoTfT9jMshWT67xPwTDOIUiyGo4Os644zAZyzbN00S02rOtwxJdYn0PJd/R/dac39CWnzZiSpH/omKNhW2kQFwTL6ySLb4AAlKVJAQEJ8KkoUpKKRFp2jR63RYnp3n3OwKFxfPcWXhPOeWVjkzs0zpDQwkJVE+WatIDIjG0QIHUyIWnFP6UrHd3+PW2i0+vvEZdx/c4+hgn9dfep1f/ORX/ONvfstbV95hppxHPLgsCDoadL6y+EzCgA3ebXS6jFKpZ3+4y42717l1+w6bO9t4IqU12Vsv2SnLN4lpPW29OI0XLqaJzldiXBIOUnNU7bG5v8H20SbB1LiRaJRM3FsnS5unG6BjDKMBp2HoOOsoyxJni7zlr9mGKiFWqY0QY2IfSG7BRCb+v6kUTPae85vGHzY6LqMyWvUpqUSedHuesi+jkWU8UHx1PBiZNIwTHx0DXb9VjDSEMsAgCz1676mqISGG5Kkzet/TP9tZi3MOqc2ohZIO4ZsrEd8UYzbKBJB6Yj+sFQiRvj9ie/8JO0dPWJxdoduZxUiRqf6nnfRP9/9GwLnA8HCfg4MnVHU/YcKcJarFYxCxtFtzzPaWKUwnLfwl6UCpxhGr78+JSZHCaeIzERMtqVR1gBH1qekfN+f7RNsZSMCVqGBSa1pEU5s3pvtINQn8aVQkKjZabHSUpqDX6tFudTkzs8xcd5Zzs8ucm1/m3Owqq51F5oouPV9Q94dEH3PbE5rSrjFp3yICRohG6ccBj/afcPvJPW6v32ZjbwNxwpWLV/jZ+z/lP/zsH3jj0g+ZKefBS2qvOVJr/2nRrNdG6t3591k3tApDNg42uf94jZ39PYa+TotAkxTpR+Pc06qM08rO9y6mic6JsJlFgonUOmTz8AlrO/fZr/cxLVCbwX4io4HmeV/viiakkIHg08TvXIuy7GBNwQhR+4wbTlF8qAhxSNQ69aYzDkaZaIUcGwCPL03GyYsCSX+mUcJtkiQlO4tLGhga+vGoRvyUqpeO9GmO//7YKz25/WefqXEaErJlRiSGgLcVVT3AR59K1Tbtj+rJCTP9t3UFzpVY66iNQDA8zzJKOuU5iVOQ2PT3DLh0Tirpszvc4MnOA+a7i8wW87SZzyv2096qpz2WiPojttZvc/3uJ2zurFOHCrWOaBwhWlQKFubP88ZrH3L57DWcK7AiFM7gh/4bmWNPS2hiTJUAa+0zW1t/k/GVxD2XIUfJT/M3e+J9Ex9hwJgmEUoaMRoiEvMizgecGtq2Ta/oMON6zLVmWZ5bYb43x5Wly8x2esy3Z5gvuswWHbo47ECo63663kPCdqmRsQ+WbRIdqK3noO5zf/sBn9/5nOsPbrDX32dpcZE3Ll7jR29+yE/f+hnvv/4Bs3YOh0tmxFaICnbyuJ6x3prUGlWr1OrZONzky3tfcv3+dXYO96iCR1wy8vUx87Vy9Xt63X3/Y5ronAhnHDF41AQG4Ygnu+ts7D+ilgGuJcTcVhIY3z3POYSk/2AQQrPIMhZryjwJ5MHsqeNXSky8H+L9cOSVNLmyaejq2Z78xP+mRx11tf3oWDXvW7ONkaY7AZPZHjKyWph4X25JKTGBb6UBQefHyUWXNFLrOSl7VjVDcmVqtF9hZMCatHUCMXpCqHOic/IY02dGTZo51piU6LjUbmuMMfQ51KbHlXU50ZIzGfQpGKOYFlTVIU/2HzK/u8Tq7EU6rVmkcRb8LiMGfLXN+voNPvnoX7jz8EsOqz7ROKIVfCyJ2uLs6su0WvOsLJ5htjVDVEm4CK1J4I9vt7mmqtYkOs3vpjERE1XC4/fJ06qQk1VnSQUf07wzgg8QI04NzjhatsQWhlnXZml2iZXuIgudBRba8yzPLDPfm+fszDIt63BYbFCczxIEIeKjx7mCECOxwboIRJFMhoAqVmwO93i4sc7nt7/g5oPb7A/2WVlZ5b0fvs87r73Jz9/5OZcXLjMjs1CBlIJzlijgVScSncnjla8c9rhWHdmv9/n8/uf82ye/48baTY6GQ7xGsIYokoklZHdznbam/gpimuicCGcc/WoI1tMPfbaPNtkf7hJsnQCqJiLRnIDi5GZEs2p4Dl2GERAuAqZhAMA3A2QTY6Kqh1RVTfD1CFCo2pSpJ1pXTxsQRVF1OZEbg5AzWXNUQUmVhojJyY7QYAWgARQ35eqULnhS5zvXf/KhRNKYEgA06eGkaMj7Tz/O9BaDhJBzzrGKEAqqiQaterIVx2g/QwgjdWvrBGssVk2T3vGtZ+aviZH1RAPwVmiwTyrgg8daxbUMQSt2+0/YOnjEoD7EdJKxaPiOEx0RxRhPPdxhe+sujx5d5ygMoSyJ1hJoE2IbY7scDA5SS8Qq6gNBc1vkz+lITiQ6qjqq6kyTnRyj60EYrxakWYE95Y2T132ubsZEuSaA1JEiCl1b0nM9ZssZFnvzLPcWOL90nnPzq8y15uiaDl3Xo1O2aUcwahCNBB9AImoFNUlsQkTxmTlpsk+LaNrdGCO7g0M+37vB7bt3uHXnNjFGrl18mQ/f+5BffPBz3rj4GmcXzzHn5hCfXcRjWpwE2xxPXsFMDsijdvzxw46i1NRsD7b55Nan/P7LP3Bv8x6xp6g1mMIh1qSWnWq6Rb+OKThNgL43MU10TkQSQBMiiTLb933qWKMSiYTxuml0M50sqzyHq79Rn2367jTb4ukVhqdUdjRXNHRUVZH8Wd+OSaRNb1+zUF9T/5UROTy/HlPppWnGj/Yla01o3u/mWJrES8aGf5PInMk5/ZumtXGqprm9RqbRMsJ3fG3peeJvxtiEHwjjiUNEn0PhrunVjT8omQ3m6pzmQdwAJjCojxgODwhhSPONnz6+rhU4PsvPPFcGnAUrAdUjlCHORqLzSAEQU6ZqI2VRYKwdzbsxJobNs3K1yW1OJjKTwOTE0JnGOOTEYmtMBjheTZWnDk9Gs7GmT2rjzltKtcy4Lmc7K5xdWOHc8jkWO3OcmVtlubdE13VwwWFxOCmRcIQ1YXTvqqYqC6p4SexHGisdAeMSns97z/7ggMc7j7n+8AYPHqyxu7/PtctX+Mm7P+Hn7/+ct156k3Pz5xCfNLAa5Q6FjCXyWOtOXM4T5ZvJ1aYq0ShRIrVWbB9uc//JfdY319gfHhBnHMbasS4ZjFtWY6n5aXyPY5ronIhYR6wtMKXHDyrquk+U7JBNGDl+K4ki3Uz+x+N0U5MVIYRAsMnnaFxbEL4du1ZwLhkrpsnCZlpl4kbFGL8x39GmmpITkobGLUjyXgoRrz6trgiMCOsxnSNxjpEvTACVmP1Rs/K0JLZTNDYlSApBmpZY2jnzDRmG5mMJjDFNqgJRCdKAkLObO6T9zh41MUaMMbjC4UmSvc5arHOoFyBgTJHK+no6XSSjduI6GaVlKanWiBiHqsdnXaYgNbV4ag1UocbFNLmcLiZYOjB63lT4xgnh+DH9PQ39GiKxGoB6vD/Clh5EGMgAsW1EKwxdogba3S6K4n2g5Syh8thGrE51tL3mEcZJzWhv84XunMO56TB1MkSbRGdcuUhze8y/aq7ZZnGTr7jsO2bUYALEKtKSgoXOPIvlLGdnV3nt0iu8dO4Kq0ur2GBwIZnMutrkCo4CPiceWZzPpjZsrTHtl3WEEDDOgYHaRFxhqNSzebDFF3dvcP3BbT59/AVaR84vn+U//eI/8p//6T9zZeUqJgoSbBJPbRZyeW3grAD2BOZLJ+6s4xE04mNNbT2bBxt8cucTvrh3nSeHWwzFo5mVFmNkJN7drKCMYTJ/moxpQef7E9MR5GRoAt0qaSWf2ilhhAU5tvr9ypXfJAenmxibasl4fm22LFlh9sSGv7bs0Sh4KiPcYVNd+Lr/a5Zo6GicaZpXo7E1KMN6SN8fUWtNSxRXthoPznQ+Rh0mJZCYUP3+AYPhME16moQHI5P2NmLeAAAgAElEQVRWFJ50aR6vZj3lJOXtNCDj5mVqfxmTdHG+7jibOlJigkhSTpVICIpqhbFfe3K/XejYDX6EfRoVeQyiWfdEkthjzNcfzfPnMKKGrJciYjCmsW2QnAwnU84mmuRmTPNOoE8TDNYmllgxvqyIvsZjUhKLJrBoAI9SioLaJBgo8ViFTVXzvsjo9RT4+eeEGY9Jk51WmajkqILWEBSNgsaE/SsClL6kW3Y5O3+Gl89f4+VzV7m8epml9iwuWGQIVg02Trbmm/ar4oNHmwqvpJKLmbADtu0SYw2eQGUqto52uPngDrce3OX6vZscDIcszC3zxsuv8bN3/yf+7oNf8fLKS1gsw/4w3TO9cgTkT4c3MRZOnInjdc+JMZoAJhBNopP/6fZH/Jd/+2c+ufkZu4NdTNsmsRAZjzbPu0A/je8+ponOiUgmyyYNCqPFUrraTZRc0SGbu40jaTb8WcToZ0YMJFXeida74skOnONtPHVjWcRPLXAc05BwP00p5yktsOZDtaHQ61ffJ1mbwhiiRvp1n72jPfarA9qtRWyzCZ92RQNo1vAJ1OwPdtk73GU4PEzVEkmVMZEAOiKHkRSEZaK1dPJgJ1t5+ZnKKPs0IljjslfV5GU+svUb/UbJDtwh4sP4uDVGYqbfnibkxLOTncYE4LYIqdWYJB9TktMkcqe9sEwuPqZ8bpxoNJWTEMJX9GuOm5Un9VuhkdhvZAWSn5BqpK5q6iLg64gPUEhErcttB5daXRpHuJtmH+B4y2oa3xyaFzDjxVZTycmPZoJeXiuEgAlQYmhZx5ztMt+a48LqBa6cu8y1M5e5unKJs4tnsQPlcP8A9eHEnJ+qkkq6zXI6DGJy+u4SBkfTFexDoPIVg9Bnt97l7uYD/nj9Y+49vs9hPeTM2XP86NUf86P3fsSvP/g5L6+8nFivXjEqtDptUh09gYiBsSq82q9ogKaXx6+joAly4MWzM9jh05uf8ofP/sTa5hq1jXS6bfyzmqqTw95f9C1N40WJaaLzlWiqMo2aLjR39lcnrDjymDGnn4uORTPBGAxiJG1LNa9i8h3+jMlBEIwpcbZMPlB5/01DMX/mqnnSUymxqoRmvBwzvRQDxqII+9U+j3bWWOrdo1xus+AMhS1RwFpHxBNtwNNnL2zwaOsu27vr9Kv++EBlLBCYLBuaAfybllNjhE4y+Iwp2UEwtsS5gqIoxu7fTdlnIkLUVFqvKwaDI+oqMdXEJiZWEtM/LRJ4/P9RJtbho8NLNS2inaj8jFOe54HSsbZZ/45xSzpaoUsG+qY2R1PFgSbZyQlXlJyAxZFgM7lCZNUBBmuF0paURUHLGgpXEIKCTXYBIwmCZm9OVHGmCc+3D5WTM7GOH6MizmDVJvJENJRqmWv1WOzNc6F7lgu9c7x87RWunLlIz3YwteHo8T7UEa0CZdFMDyFRw00zFOa2YuGIATTmBVi+plQjFR4fI5tHO2zsbXL3yT1uPbrDw+11pBTefOctfvTWj/j1K3/HS5eucXn5YtJVD0lSo1V2kv1CTkN0siU12pHJY5/sxU88l1RJ3unvcO/JHT6/+ykPNh9QSYXptpLhrx8+5eROfPQ0vvcxTXRORPJXSq0PkVRhMGKwalIlg0kQoGYxuJNr9NOFNZZsz4JJyxdi8FkXp0nAvmabIrSKDmXZwZgS1BJijW0M70Z4kbz6UwPHCsEGIWBGnjmANl5TqQuuRvEaOPR7rO/coV12EAxhKTBXLGBtgVCgNhAYchi2uL9zkztPPufxwRr9uI/a6isJTaoladY++xbnVJs2Sxr8RA3GOJxYXFlmU1EL2RNr/Ilm4lwLIUTqumZY16hJLRVrs3bQKfMcQ0gU2xwp2fGjfTAjfIXJFZPE/DJN++h0m0/bMA1VG5K5aNJQaSo4YcQu0WOtrAavI6LQKhIAVLLnGEJjpGix+DhWDE/VIqX2NaFSQl2jJk+IIhOJ17Rl9RfFUxXYJxMfAx4kBEwNpW8xX3a5sniOK2cvcW3hCudnzrKysMJidwE8DPsDhodDCixlqxiL5pnGPDQea/H4YbpWRJLylynSdVUR6MeKvfqIO9vr3Hv8gJsPb7Pf32NpdZVr167y01/8jA9efZcfzr7FTG+WkjIlZ2ooioSN89HnYSkZlBrMOIV5Zlf7eJIjFvp1n5sPr/OHz//Il/e+ZL8+gFYBxjGoq69UyJ92KR4jdR0vx07bW9+DmCY6J0JITJs4KsaCVZv0IXCj61pRkkl3RI00XaXnE8YgcVxZiSHgg6eqK7wOU8sHeNbdbkTodGZot7oUroSKpCQ6KRr4NWdgXBiPY/l0hJBBMGqa1krgyAe2jh5hnzii91Shz5mls/SKWSIdfBzQH+6wefCQu4++5P7Gdfbqx3gZIkaJophn+FB9mxAZm+8lSfuU+FhXUtoWzhVJt4OmMtFQ7PPrfOqsFWKo0VATjc+Vq+fFeEo2F6Gpio0Gx2R+CSlBE00DvcksI2sFa3K79JQ7UtchA37HraLmPAAURVaE1WyC2HzrJjEArQnZFym1vpK3p0lO99lg1cSmspnA6WJiSowKSXL9xdiVfHRmcvtsEpg8jb8k9NiDNC3PSmjHFme6i5xbWOH1C6/w8rkrXJw7x6zp4avI4dYBLVtQiIFWmQskJnlSSZyopdiJ8SDZuoqxYCJlYYkmMghDdgb7bFb7fH7vJrcfPWDv8AC1yrWXXuH9t9/h7Td+wAdvvMPZ+fPMxgWKbKSc2m35MBR8HSisze2oRtcrx8TTvGTjaWOIqrKzt8Vntz7loy/+wP2NB3gCZbsgOoOvQ15MfjVGsKenXJZ6Yh+m8WLHNNE5EQ1Ic6w3Y7AiiTUyaiukrL5Z8cjoVnu+V75qwuv4WDMYDqgGfap6gDpP4vQ22zMTz5NPTbvTodXqYoxDVVKvOkYMySJBmGjNfWWAEEQDotmpShMmY9z2ycJ/LiIhcBR2eLTr6R8dcnC4w8b+WWY786jO0K+O2D98xMbuQ57sP2C32sDbPrQUr5kFpmYspNc0/78xMhU06wslWYAGhyQ4W2BskatYDW7p2R8dQ8RrEhpsgOcxTOgCnSJkVHgfJ3RRwOZzrOTqIUC2UhCTWkLGZtSBf9anf9vwWe6/Af8qMQSCBmJIytfCuLqiomkFbU1iogXP4e4ue4f7VFWVKosjYHxKesvSYqygMVKHChsVEwLElLwNDocpeczbSMlcovQ756bJzp8TozVO82Ri8aImjUlDpcCx2lvitfMv89LKRV5dvcbKzBI928F5Q/CBGCq8BeNS0hJU8dFjXFo0TG5GtNEQM+CyO71Rahs4DH3Wdta5tXmfuztrfH73FkNRlpdXefv1t/jxa+/y/tUfcnX1IpdmzyQmoTlR2aMZew1FWeQaTjxeiW12S0/Wgo+fGwUGfsDDjXWu377OjQc32T/aQ11a9KmAFA7i8Ztrmr/89cU00flK5HK+SRTo5I7b1DQylXLUNpIxOI88QcfnMFDrGBuhRDQGQl0zqIdUdY22G1XiCerLsVaW0DYdylZrRM1VMkhQGpzKxGgBJA54MfqI9BBRzEjPR1RGXjFpkZXwLT4O2RtUHO4dcni4w9beOr3uLMIC/cEe2weP2T98Qp89aHuKlsGVDl9XSRVYc03nqUqLze8mh7RcmRq1DfP+5cOx4rDGUdgCzKSB6NNPthKpwpDoA1GbQVUzPX0yiTxlSHNGJw6toe1nIR1RxRmbgNRic4XxOWxfLNYI1qWVsa8DIdQMBn0Ojw7Z29tlWA+JUUdUb2NSG6FwDic1enSPJ1tPOOj3qX1AytFBANDvH0DYZu3RPeZ6C5hY40jO1aVrH4O3W+totTrMzM4y05th1s3kRGdywh4nvc/sVPxNR3Oz6rETJArRh6SLU3Y5v3KeH157nZdWLnO+t0pRC/6opvaBsiiwZQvNon+JKg7WGmIe22wzZKgZmVyKZmElIkE8h/Uh61trfHr/cz658wWfr9/GzLS5+tqrvP/W+/z2l7/lg8tvcdbO01GLHbpU0Gz5dAu4RByAccrWGAKP1dbHhxzy82fWgSXd2dt729y8e5M79+7y5Mljhr5CiyTSqWox9s+fAqep+PcvponOiah9xBYFse8odZaV2fPMbN5k53CbVs9QawKrOkqsN2jIJVUnDHRAwNOlc6p9CL7GFQXBJxZO0THsDR5z9/FnXD37CpVcIzEcDFEVIyG1E0iMKKOGGbvEy8uvcffBZzw6ukNntiDYmr1qSLvsYaPDasSJBypUlGBqAm2gSG2UZhlnobFWMJqBwzFVSYA0+MwAeA7Z5DBswv4E6LlMPy0SE4wI8RBKaT/1+JvqjscSRLEoohGrieLcTK3RRGpTU+OxKqiWaL/FSvsMV8+8y1LxEm1dwJBAjaGoIXf6vU/tqmE44Eg22R1s0Q8HKRG0DhgSiBgcoqe7TbyJeSUsFEoWC4RgPJghIXg67Taxb7BHXa6e/wGvLL3DnJwn9kuMFIicEiikFSEYfGxTFgX4ik7oc7D1Kf/8f/0f3HryGX07oDJQiyFiIQouglPPoOrzYGMtJUEq0J5FtAKTXLCtRtqmpnR3+Zf//3/nj5/O0CnaWFtAkKThpALOUREIdLFyidde+hnvvfkj3nr9LVomYqpB0oiJBVFKVJOxSDSpJiZ66tLWX0dUyVDVWIvXGrwHJxhRbB2xR8qVzhleW3yND86/zw/mX2XGzGD2Y9a6cknFWAO1+tRqtAEbQYNgAuAK+v2ALR1Fq0PlK0LwtF3C7oX2LrUNbPR3+GTtOv/60X/ly1u3MSKcmV/lN+/9kv/lN//E26++w8WlixTaStsFfAuQNAGdhLzYyRdPez7xniEDgvd0XA+JQlUFpBCGtmJPd/nj4af8l0f/lT/tfsFj3Sd2XGrJGcW6kIRV5Rm9qxzPVLqfZjzfm5gmOifCOkOMNVGVXnuGxflVZrtL2P27hH49OmOaxd8a4TljDCUlga+/ab5NJKdxzdYIyUUq0TUjQQPKGPT51cpMWn0VlFhjKaTAURDV45zFBRknMKNo6ORjZtWLtHI+ubtZqzk911R5EGOQkBKIQkp6tkvLtY8p6jYtLEgMNDERMUK/32dQ9ZPytdHRuU9KHc9PFbVJ4PTEAVnnCF5QL8y0Z1mYXWF+bolut0dbuhgsdT043balTMXGrB4dY6CONbUfMqwHrK0/ZLfeobKCzwBtCZKSS02YG1xOpkmaR5oFD9PFkkoJdVWzH3c5ONxP112MSWIgRpwtwBbUGqilS+Eis92rXD6/ycH+PqZTUmhTrRsr/erT2jN/49EAyUeieUUS6FQficPIrOtwZvksVy5e4czKKu12J1VOYyDWIWGvTENMyPeUmEw6dbltHikMiLV4PD4MQSLeOozAkfU8fLTOR7c/4/r9m2xt7nJ25RyXz1/kjcuv8ssPfsmbr7/J6vwKzriEE0TBJA+/Sdu+vzQUPV5EF0AiFUO29je5fus6t+/dZXdvn2FVEZ3k60kyi9DDcxizp/FixzTRORGFNfSHATHQ686xKudZWbjAw5077FYbCBbjyAN+qlqEECBkBd7JMvJfGNKIniAJFIgiMVDrkCoMqHVAKT2c2DR1a4MnmhR4K+jaWWY787RdlwFDQHAudWM0NkOkTSv0zGrQY9id7zpSFWcyjim7Y7KqhqaVYjRYbdEpusx05phvzzBerDXJXBpdE9U+ogQO+/vsH+0mhWfbTB4Jk9S4jZ8mRM1XxvM4IV9goiH6iPiCmbkFluZWme3MY6VIMvqnNk9L9hYaQRtBzBjRUFGHIVXVZ1gdMvRHVAFqY9AMPLVBMDFgrWBsKx1P1jcyIqhaJGvpJG0lJfgKVaGKAzSOWYq1H6IiVBqoqSnMHoPqCB98vm4NOiLfw3HV8ZiVlU99Kv4qQlxz/ebWqmRdmWHA1srZlVVevfQSr1++xurMCmW0EGNi1ElM8F81iTZOMttULCrSiB1gxaGFEqQm+KRFI0XkSCqqasCX6+t8dvNLPv7sM7Z3d1hcWOSdN9/hg7c/5N3X3uKNS69xbuYMLckiokkdFDFQ6HO5rBEMrcIlrJsmyE8Q2O/vcW/9Pp988Sk37txg92iPKoY0XojB5UQvxKm9w99CTBOdE6G5fiIYSgrmOstcWbnGk911qu0hniNirJHEskWNEqISvR9NAJzSl6fx2kIkKfPGNDkM/JDDwT79ap9WOZPczJuVWFqDN5+Ao02vNc+ZuQssz66yNjjAD/sYl4HTkgibNqYBLoFvGpzLi5Ho2IwpapywGmyQNNUEkkWGwSEBYiW0pM1cd4Gl7jJz5cKoipJA1SYxtEhWEJ5ArQO2DzbZOdggaJ0kOkZyAc9npdcAukEyzXwCb6QGosWGgpn2KueWrrKycJ5uax71Qu3rsQjjaaIRuhypSCtBIlFraq1wZZowjE0WJEnTx2CjJkahSDJqzCg1OZbQZyB4g2WTlExZYxDjcJIo6BCpY6Yia4FVg3OGorCU7RLjLFplkTqVDPgHlTBS4H2xao3fYTS2HTEtyozaJArooSsdXjl7lTcuvMT5pXO0fUE9GEIAYwVbWExIIHkzAsMnEL+oyWc5VX/UQNTAUCtq5/HU7B5ss7m9xf/5+b+xu7dHiJFrV17hvbfe5acf/ox3XvsB15av0bEtSsq8kErj4ug6lpHV7amipKABDtahRm0kSGR96yGf3fqET778mPXNx9QSEvDY5W3atNgxGp8LrHIaL3ZME50T4X2FsenGCQMoig7nFq/y8oVtjsIBmwcPGIQdosa8ypWJVo9kwbrTRk40TPJD8kaJAsM4YHN/g725bUo7S2E6WCmQKKA2AaPz5l0o6bkFzi9f4cLOVbbWHtGvDlCN2AKar14lg401JUpmcvunjNOCaGWC2DoZDesNw8jZW2vFesdMa4bV2TMs95bpMjOhD5jF6TM+RgHPkIN6jyf7a2wdbVGbCiQSRZDwHJKL5jiadkyz/8cA3w7xll65wKWll3np/BucmbtA18wj0WX6/PMoZBhUPVHBGUFdxEbFOsGYiI9D6jDAR/BiMtYreauJBhCLs+VT2ppNpQxCrNN+ZtZPMl+sUlM0AoVJrVdTIChBPd7nnzoQjZu4Zhr8V2MM2VTjpm0GgKCN9HhMVTMToTJ0pc35uRVeWrnMmd4KPUp0GAlVSMw6Z7LwecTESGxUjdXkMUSyZKpS+ZpypkQKS1XXPDncYm1zjbvrd9nc3OTLe/c4v3qG9z/8gA/e/IAPfvA+r114haXuAh1pk9S5UoVObGZtZvZniJr0l+wpv09NSbaPifkXTGCrv8VHtz7id5/8jltrtxnEAbQs4hLAOqjiYqOBlgVip/FXHdNE50Rocu1BxRLqgEbHXHuVi8svsXO4zXB4yHBwRPT9ZG1AYiiISYOEBj21kq5mBV9jDAEdwWeqOGBrb53txQ26rQVm3AJOXKp2pGU2ibIVEW8oW21WFs5wfuUK93ZucLC7S+36hBCwxqBiSMLAZlQpGYsRfveRVvYNy0tRyfKFAiPKqaa5UNXSLmZYmT3P2cVLzHUXsRQ0FgWGtGJtulcBz8AfsTvYZHP3CYfVLsEOaSbt1D5sZPRPdz6a7stYHLH5PINEIVZCtz3P2YVLrMxdom3mMbHMtGw78vA6XTTfa3o0IuCSP5EiGHEJ4E6enERyS1RJalImU12yQFxm4YxMUoXc6gMRl5l6Eavk5F8JvqbW1GUxxqZrT1MbOE22zUk6md42ek4vxnX5QkSMiE3fEzHdJFaFuc48V89c5czcWTqUSBUxQRLA3qSkow4ei45SRlFJQHExmcypRKtpXOs6hnLEo90tPrv7BZ/d+pLHG+vUseb1K6/w1g/f5lc/+SXvvfYuVxYv0rU9HKm6BDYLDabESbRJfiNOkuL7aaO5t5xLRsIDHXD70S0++vJPfHHnC3aPdsEJasfVdzTiBYyXERpvGn/dMU10ToaJWW8lsU4kOAqdYalzlovLL7F7uEUVjzgIAeIwKYUasJKm0+cxFGuMmCL1z0MexLDgtWZjb5Pdwycs9VYI7VWwLUar3AgjmjVggmPOLnFh+SpnNi6z09/kEKUKw7xgjqP2gFGDSjwxKX+3ITq2gkg4Aj3x9+SBo0EotGC+vcC55YtcWrrCjF1EvQMXcxLojuUYniFH/r+x92ZPkhxXut/vuHtELrXvXb0BjR0khwQ55NxZbHSv3ft49aL/UzYPMpOZzCRdSTNDDneCIHag97X2PZcIdz96cI/MrOomCU43iSYnP7NGN7KyMiLDI9yPn/Od7zvl4HSXw8EOPX8CNnW5pRb1gqSPF59B3v5DvwfjqG2COG7UILGgZboszqyxNn+d+XIZHTpiFFxuN288wZ7rHEyAGFKAI4nfgUCIBh8sUdtY8ZnM2aScMnE9Zvq3T+cdbchfRRlZb5CJ/GqRXPaSHKFZsamaqzXee6wpUC3BOwgGayzWNirQKeumNFYsOtZwmS5IY2jEoIRMBNcATh3LMyu8fu011mZXKKJDBxETHaV1RIFBrGgMdEMOZhtd9EaVHFWCDdQmsHe6xc29e3x67ya3Ht3j8OSIufkFrm2s87/83X/n7dfe4q0bb7M+s0YpHYzalCURN5bHIGntaA5qxbgU7Y6ei+dHwFNTsX34hPc/+xXvf5rEAYcmEAtBbc4QGmgsJJQsVPliTmGKlxjTQOcCjDOEOmDUYkxJDB5qaJl5ljrrrM1d4szvU5/1GBJSOSAru0rM2Zjn7iSIiFgsKSWLZN8oX3M2PKBXHTAMxwT6wFzSW4nj4GTkCxMihe0wP7POUneT2fIBg2qAaJ2PlBbQJgdlaEpZLyar8/vW5j9EG66Rnm+63YxGGmM/QShoM1MusDK3ztL8Ko4W1UCxs5DTVqOJNdmL1tTa58wf0vPH1DrAmLSAi7iU7YpZAfg5s+uS7RJkItJK1RjBULA8s8qlxWtcmr/MrFtGhgUGR2FtCg7CU/WiPxjGAkHz2Kam3hgcGgp8aDHoCWc1BJPInM2pmrTuYUVoF5IDaaXJ+I88uUwq28YgBG+JXtAQcTHRxUUsYh3qa7xaohj8IDDsDxn2hlSDilbbJn7Q6MtOli7NqAQ4BYkMbg0aNbWDq2DFMNueYXNlk/nOPK5uoXVInLvSEjW1ljsrWGNIkXwabJVIpAYj+CJQi+egPuSzh7f5yce/5IsHt/EClzeu8N2/eo/3/uo9/ufv/DfWl1Zpmw6ijuqsRiRQtloYI1mJ3TJSGsv8P0Wh9oQYcZ3y+a6DQBVqBrHPiT/h5pOb/PLTX/Hp3c/YHxyiXQM28cPS7ZNELSUkjSzTlFin+IvGNNC5AB9rEJs3rIqxjuiV0nVYX7iM54x+PGbv8DGVD5Rdh3NCVdUYEZyz+BB+73F+N5RQeaIzuOy3FEOgCoFYKU/2HjFTLrDc3qQ7u5hr6403kgFCTvJYwLFYrPHOjW9zWh9TPRyk8locECTiXArOQh2y27ehqkLSAnsuyFcMZH7Hm8RgnVD5JG6mJqm3iqTWV4OB4ChNh7XZTd689i7XL71JmwWEglYBVeiljqyUsc4eTZFedcTjo3vcfXKT4+EBriOYwhJizMFOWgyk8QR7DlhJVR8fhogUFJ0SrSJ+qLQouH71Da6tv86MW4DK4LQEVXw9RERx1lA/51wcQs3IA3roaRUdfPC0u6v8zV//V5Yvv0K/PiUKxIa3BaRQJmIIUB9z9+5n3H3wMWIVKYvE4bGOQTVEDFQD5Ztv/4Brl18nhkBhCgpTptKIgdpXDGuPmBYzs9e4uvk2V9avUhibrne8cK0VxjYZL0em8WWAGEs9HCKuwBYG3w+0u7OsLK3ibAvRAiIURYnDMaxraq3BJosYCRETBWPTZqrWgJQWUwoHg0MeHDzhk7uf8tGdL7nz5BGzC/N8+5vf5Qff+1u+/62/5rXrr/JKuZHUjTXNM50O4xh1NE5jAc7mvFGBEtxXuKdDCOd4PI2cR/PvwbCmaDuMs3zy5Sf8r//HP/HPv/pXTvwZpu3Q3E4+vm8CMTSih/Gc5vIUf7mYBjoXoJncFomYLI4mCCZanBbMd5ZZm9tksbvO4KSH1h7Nk0eMAf8Mh+w/FEIizKbddJrdEy9CUeM5HRxwdLbDWb1HretYUyDRja0UxOY8dECixZoWc+1V1heusXu0xfC4x1AjqkPGuYZAHZXStGg5l8mOz3Uln/P3UzCTCJd5l99kEyKYtCJjoqPr5lme3WBpZoOZcj75KuXsTWHTddHMDRFRamqGesZpdcTJcJ9BOCPicbZglDxpTC1/CyH6D4IRtK5BwZUWp4Z+FSm0w9LcJVbnLjPfWqaQLkZt7qqWRDJtZGmfc9eZ4geTxzoxucvWPGurr+KKLlff+AZewpgona9DWiQiGoYMjx/x/tws/eEhx6f7VAECERtTl067M8/c7CLvfvMHvPeNv6HlOrRciVNDDGBs6hKq1KMUFG6Jmc4q3dYMc90uokkn6mI0k6p+diT8OEUKxDWkdJtqxBmh7Vq0ixalTe3WaNKrwUgKcDRJY6jRlE00SS092IC3oKVyPDzl9pPbfH7/Fp/fvcnA19x45VXeevMb/OC9v+Gbr3+b1y/dYLlcTjyySa2pC0HOyBB4lMmU8+/7it9zEud0sUSwbUMQz4PDB9x8cpsHew85Gh5TUaMiBMz5J1jzf7Q5o2k25z8CpoHOU0j8gFT6TgutaNrlF6FkoVhic+ka26uPOR4ccuaPwHucdXj1xBj+XbLi5zBylU7nE2SitGzhcLjH1sksuydPWJ25TKvsJvGvAEGTI/e4zV2xOBbcMtc33uC4t0d/eMp+r2IY69R5000BkvoAsUYbPsvXDI2Z7yoGm7X+0gQewQtOS7pmjrWZDa4u32Bj4SqdYiHxqyAnAkwqLWpMHBJqPH2OBrvsnTxk/2SHYX2GlpoySB+p3isAACAASURBVLk1OpVNXoytZxTwRIxAy5b4oOgQ5loLXF19nfWFK8yXK7SkREPuYsrrghp5znxSQurMGWunVLXQwlCWi6ytdImFIeTL1hB/m1KbtwFLjRlucLC3w2czP+PkeD/FXtGghcUaS78f6CzMsbL0Glcvf4uZdheHS91bdUylQaOoTXa5GtuoOghKPRxiMkl68pqPerDUjDYAU2Qh0WyZISoU1jHX6dJtdSlMGyF1zNUaU3ldNGdz0vMQg0+dcaUhFtCXiu3eMbce3uGTW5/w4NFDfF1z45XX+Jv3fsDfvPe3fOONb7E5c5mW7VBix0OR9yGTT8rTQc55NBYOvy9x3Pif/bYOTpXI1tk273/5Pr/+4tfc3XnIcRjgrYximqe5QBMv6KgLY4q/YEwDnYvQUS8CKhHUJwE+tWgsKE2X5e46l5deZXvvEfVRxbA+pVUUYJNR5XPDNIRRSHyUpHmjLpUR+sNT9k+3eHx4l7XFTTrlAm0cxibRPDS1+lpbYsQRo9I2Xa50X+Fs7YB+v8fZ2RFnVR9PwAUojaE24ENEtcbar//hNybpr4gdJ5hjUEItmNrRcXOsz13h6sobXF19k9XuJi1mMc1tLc3vRIwEEjvHc+L32Tl6yKP9B/TCCdHGZJ6puTzSlLjMi1lXk5mqQawSQk3oGUrtsDJ/hVfWXmOps07HzmFiSYiSdFFEUBFyjP3cUFK7OLZIXThRqUhE36itZAESRmtWCnwzH8r7pH9itYSQuhFjDFgpE8mz6aDxBdDBMoPoHMGX6XoqoEr0dqL+lAnHWc8l+YopY/+2cyef/55GOSMIaZ7INdnCGbqtLgutLm0pkphoEjfCk3zNiEmFOxHbIsGkbM5RrLi995hPH97ii3s3OT45ptPp8Nfv/TXffutb/MP3/p53rr/NYrlMIe0ULA9J1i6Mh2XCsjafZI4yFMYyyH9YDkVERhxIAO89qjry8KsYcmf7Fr/65Fd8ePNDdk53UKeYVsmYCt2cy+QHK4221BR/+ZgGOhcgWpJIGqkDRyRgNCnMFMHgtWSmtczm0is8WUrk3r3+gFh7MCmJ8rw7cM2dAJmZkLNLqUNCrVJJxUl1yJPD+6wdXGahtYZrtXAUmNxCGmK2bAKIQmFKMF2uLN1gMBxwfHxAvR84Ge7hXcQViUuSdCZq7ITB59cFYyTxW0ZpeEVrEG9pa5fF9jo31t7lytqbXJq/TkeWcDhCVFwi2tAoAxknmYTcY+9siydHD9k9fExgiCmgcLax80oTqw2jtvvnjV1DCJgitW77fiAMYa2zwitrr7Ox+Apts5SChJhIvwbJZN90H4zk8p8Dgkk6kAIui6WlIEcRDURjk25QJiCn5Ek2gTUBi0GCwWJTiGIEW1rwUCvEKFjXpnAdrJlBaCNqMQiFS4TkEGImvca8QKcHRhCsJen1THp6js59/N8pElQaXRpNTQdOmG216LRbtGzSKTI2qdhUUQgawZhERJaCUCq1qdg9PeLzrfv8+tYnfPngLsMQePP1N/ju29/mH3/wd7x16TVurN9gxnUw0SIhjUqjQDyJp4Oc/GqqgZJvKmT03q/wPbPTfYOGo9MEPvePb/PBzff59Zfvc2f7Lie+h7YtzhVp0xl9OpeYGfYjz7jp/fQfCdNA5wJELUjIj2kc7UCNCqjFKliZYbGzysbKdU6Gx5zU+wyGh4gLIyG750GUbDGhIQtaSdKggNQlVSgVQw56+zw5eMTazDUKmWe+7KbvEMn6KOn0TUxs2MIWzJeLXF2+zvGVfbypeLAfGFQHVBqxhWJt5nC8BPOAEIkxBShJfyO1YxfSYr67wsbCNa6tvcb6/BVmzTKW9kROvCERJ1Kxyd1Wp9Uhu0eP2TveZhDPkCJSiE3jGxWNknSUYlrgX8SFiChWBKtQ+UjLdlhd3mRj+Rqz5QpF3SL5C6XATuy4eJOkDpo2qH8/nCnx0RND3mXbXAYkIM5AzB1n+f2jDieNSVdFlXLCOoM4RGMy3VQUawuqOlJ78CG1mWvMDtgaiCgx5rKUNN8vBVmqShSfxRkmdv2NUKA+NzP+Lw5BU6lVkpEYRoXSONriKAEJOStnk+AkWKw1uKJAojIwkcN4xu2d+3z45UfcfnCfylfcuPEG/+UH/8jffe/vePfK66y2l5lxXYy6VO4SOTe/TU518kwNrouTYVMWbv79u8c2xngu0DHGjMjJp6enfPDlb/jNFx9w5/E9DgZHeJt4fF4138+5jC/p3CZtRF6CKW6KPxGmgc4FCDbrrpxvwSZGiI5CSnxdM1MucGX1OkN/ykFvi+r4hBgrjH1+TkUE0CSwlVZuS1MEj1aRQojBczI8ZvvgMY9mHlHIAuXCAl1X5pLLeGiNyZoVQemYLqszG7x1/RtoERAXeHik9Op9JCo4nu58+bqgpEVSA4rBiqVdzjBXLHB56XVeu/Q2G8s3WCjWKOgiUQiQO8YCSo3Qwro0uw0ZsnOwzf0nDzg83qZmQKqdaGqN9gCCEQsmZKnB5y8cBQwuJvPBwjoW26tcXrvG2tJlWjKLlS7WZz1akyd3mo4QQ2N+8FwwibytGhLvJwY0yR7njigZf1eRrLYNatK9oKIkd05F8WkhCVVSpaYAl6QZxNhksyEWa8HgiRqI0RO1yF2BgE3ZNhMlbSwmKhyayRWjKy/Joyn1yE8BJMHA7A9GCIgEChFKU+DE4RA0ahZyVGzhcNYRUQb9Hnd7j7jXf8jtB3d4crDL3Pwc716+yt9//x/4z9//R969/DZz5SwFRdr8RUVske7PTAi3Orl8NKXH8fOiE3PQRCWecyWt37MpbEpXDU+n+XN6esrdu3f5+Qc/48MvP2L7aJuKGilyb2EMWbgycfpS4MyLsCKc4s8Q00DnIqLNuifQEAya3a3DEFUIAxBrWJhZZW3lEsv7Sxz3H1FTIS+idAUESaJeOeoB0UQ+FJLWlkJdDznpH3NwvM9Cechyd0DLzmIlEU9jABPjeHGJgqil5WZYm9mkt3HCgCOGcsqTox6RHsRkUursUwy+PznS5Jh4JEaEsmgx255nZWaN65vXuL7xKnPFIi3pYlQIPq3nKSmQXN6FnP4WGAz77O3vsLP7iKPeMTiPD1WyBdXEdraZH6UCQQN5OX6u72GMUPtAgTBTzrC8sMjy4jpz7XnssKA0Za4bepoCW4ig4hCb0/Tx+SQL6qpGI4izlKXNxPUUUBlXoDGMds6jsEqazF7idCBQlOCMweRsiwJePWjAWZtIsipJswWysnJA8TjXShkgI6mpTVOAiWjDm382HUdS2DPtkJlA1JytyZR5TdpSDsVqGiOvSvAedWS+jjKoKvb29/n8yZd8cvwlJ6cndGbbvPn6W3z/r/6G//TtH/D6+mvMui6lluANIcRkdVMYIoFKKypfs2DnOTdHnCsLjTd8MnqXjubUTNz6vV/TmEyezsFOc4/u7+/z2Wef8eWdL3my+4iB72O6BbY0iUagEbEy8l0bhfFf/7Q2xdeAaaBzASKD9HdMonFKJIgSbSCaQcr6O4ONXbrDyOXWG9SXPaEHj3a/xLsBlTvFuhIQgo+4LD+usSbEGiOOdOktqB0rv+Ysko3Jl1tUkUatWDX1OQRBrAWnqHiO4mNuHbxPX04o5wyvdN6hRZeuzuUymoEcfAVvkpN27DBrSl6d7dCNayzFV/hcPmTr6Dan9Q5CP89DiZCd6BTZzJGxMd94rkrnNmbEgIaAFLkskfPFcdS7bHI3RZ4Es1m7NGaiNjdCixBqQXybtllgvXudV1ffYXPpVa6tvM5ysUoRcpbANh5eKRei0QBFcsYuPIe6w8dPfsbnJz9nx3/KIO5QWIehRQwFUQzBCNEEkJAnZ4MJBquCmpiyGhLS52Pz+I36gkap+6c4JUaxoUD686zOvcF7l/8bN+bept2foxCHxgFgiDYSBDQmYrtI4oq9kNnZJME2EQjBoxqTfYC4VLWaIGbqZMARSdkZqcEOiHVNaduIlHgFMYqqx2pgMKyZaweM1hitsCHZDhjaWLrUGtJ30WwvQbrWQL43mvtDx2WQXLZSE6fCbhNwGGJIellSWoJRhiYy0EC/HmKDpVO0ISqnDJAZx8AOuX16l19v/YZbd+/TP6tZW1rju+98m//yt/+Z77z9LVZnV2lri1I6iSzuAGtzOT1igJa0KGyRdxUNLpLI5RlFqYanMy6NNyPa2OakT2k2ZqA+dZEOfSBYDw76nPCzrZ/zf936P/nZw4/YD8dUrXQ/xZDvcwNCnalBmWuWjyAj094XQH6b4s8C00DnIiTxMmSCMhcJWThORz8zMenxdswsK7OXWJnZYH9/i56PSJH1SqSxx4MRASI/eOmlcSfCyISpKVSM8vgyWktTd0p+jcQhqfyA48Ee5UmLndP7LM6uMV9Ch9n0OzJedhO/wuWgydKVeda6hrCsDOKQGD2cBk6G+9Sxl3ZPuWomSYgDhfGCI5IWJJXRhKEqqSSSv3NsyhCayx/IKFMTY/LTGXskmfS7MRIF1FskOmbKBebbG1xevsGV5TdYX7jKQrmeJOeFVGpqdoup3pUmaRyYmpqa3eMt7u/eYe9ki0rPwNap1VZdIupmXk9M8tbYPBkakaRpM8GTabJ9TTp8HOzk8Tu3HqddpaGga+dY7l5mdWaTrlmEOvmk1ZrMRNPHpFla8p2jiXT0zGXjD8FYcDhd9/GLjcbOeMK/GE6kbjTFVwOqekgIyQdMEIwzOI0IycrBWYOViJCyYRIFI8WI+9Z83tNHurjg6FOvq0wDnQbSGHpmJfZgoCIyjIFaA3UMtBQwgrGGng7YOTngiye3ubV7l0EMrCys8c6Nd/juN77Huzfe4dLCZUrjED/eskw82vm4yQDUPFMu/KsGDU+/r3m6Lo56I7EhxiDGMKTP3Z17fHT3I754/AX7w2OGpFSuqib9q2YuyqT3p5v1Jl+Y3lP/ETANdC5AkhPMxReBcZgDkRBTqcMYy2xrjvWlTXb2H1KdDtPDFRvX5ZzJiKSa07lJI9empPn0BsnA8unpYKwIqhqRbHY48D32j3d5sHWb2fYSugRzdgkjFovNu3JIpuyGGHNHGdAu2mwsbGBbSrdbcv9Jhyd7D3jc+4I6VmlLby1WYjbVjIToG1utUZlDtDEXjUmWXkmzbzPvCOcCtuRTla502mGltFNSbU7XoqxL5rrLXFl5nfWl61xffYf12VfpFou0bBuLSXLuOePVBJOCwUgKIIem4snxYz747CM+uf0FJ2GX0FLElql0I5EoNZn+nVLe+WrbnNWKFwbCYDJ/ZjLTMqozjvy5Rpk67yhos7q4ypXNa3Tac6l7JAex6Vo8G8Kz7oOvASJgS8ARAlQVRJfGOYUvisS8yZeAiMc6hzMKtScm59Vp2eBFIVtuQAp2QowMqopBNcAn+j5VrIilEC1s7e7y+YMv+eSLjzk6O+a1jdf5q1e/zd/+9d/yvXfeY2NhnbYtUodpYxRqnspNZjwdhP770ZRLm0Bn4pgT+8CmI3TraIsf/+pH/OiXP+Hm/dv4wp/PLE0zNFM8A9NA5wKayrJiLkjOG1QSXydo44ZtQB3tYo6Nlevs7u0yqAec6mNi7VFjsc4RkbzRUGi6ACAFEROIeaFOi18Wq5MJV+eR2aLJu5XUhhx8xWn/kAfbt+m0ZxGBlfl1Wq0uQjsFJdHkFt68pMdAlIAR6BRzbBYFc+UMS+0lLnWvo7sDTvqHDKo+3lfjluCxMEqeYBQkuaybPDtlg2IwLl/TVOJofi+VRrKDdmTE1yAohpKCxPXYnH+Fy4uvcPVyyuKszV2nY5ZxlFjcSL03ic1kxdzcrgwQNbDV2+ZXn77P//ejH/Llg4+QmR6r17rMrxQIIXtoJQ5K/i2StlouS52bN5uZd8zbmhy9PKg5h5dFJ1HMsKTbnmNz9TqXN64yU84glclBZyYdj50/J44m+Zq9DJO3xdhZys4y7c4aLbfLILeDi0RE2vhslOXrino4QNsF1jiCpOAXeYZGzhT/LkRJ2dqYNRG8KqeDHqe9MzwBKQxeIpV69k6PuHn7Fp/c+pSd7R0uXd3ku994jx+8+QO+9/Z3uLp6hRZJXsFkM9ZY15iyfHbcMGL0Pv9YNryrZhN5kYkVNJJ6KTwHg30+uf0JP/3wZ3x691O2+/vEYuLdz9wcTjHFNNB5BjRzB87Xm8dV3STkRhZgi8HgihYL3RXWFi5zdLbLzqljGOq0drmmXVsSr0NjDpiaoCE2hxhlAmAyK3CRCJsX2pFFOahVYqg4Geyxc/SAbrfNZvkGS0VWScbm3V/eLUkiFRIhGhCxOFostdYpFiwLdpl9e5+9422OTg457R0z9H0CHpWQDDUlIhPXRRJjOAUANu/Lslx7IqRKdkfXTA5MkyoRtAaiwUpBu+gw256l1WpxY+mbXF66zsbyNRbaK3TMHDYr7U5UYkbB0qj0LwAB72sePLnDRx9/zG/e/4j7W3doLwVsscns7HK6NlknpilOjUqH54pVk7fHRHlxlN6/oB3SOKxm927jC2ZbC6wubDA/s4iJRco6GZP0TZD0O5y/5ybH+2uHGvAdZmc3uX7tW4ibpZJAkOSTZGybeliwOH+NhbllBEusU7ZHVZCmvDjFi0OTKpXU/t8f9DkZ9Ai+xsw6NCq94YCtw10ePH7E/t4+7VabN2+8wbff/AZvXbvB2vwyJWMNKTHJckU1k9+fFWf/EYaxyeOMuGH560WS1MdQB9zfucendz7h3tZ9jqtjKhvGpzLN5EzxOzANdJ7CyMcbRksfQGN0KGm3L5KIkkFRD91iiUvLN+hXp2yFjzg8OaSOIfEzRJPuBUnh2OiE0V3uZpmksY4VRjNG1RFp5rVRFiCimCJ1uPSqY7aO7iImsBQ2iVynWHiFwnZwtjOaoDQK1jkMlkBkHDY4FlobzJoVvt3+O/bOdtnb22H3cIuD3h794Ql9f0o/nBFMjdFIUE+QmAM2JZpx5qfh6oxKVlmrxSipzq8GvMXEglJbzLaXWVneZGNlk4XZea7Pvs1yd51OOUMhyagwhpSmF5vMPckeTkoWvJPU4dOrB5yeHPHLX73Pj3/4U37z4085ODmkswitssvq+hrOWcT4dLriE/mbpNsyIiw2mZaRAEfDX5jgjozGKYxeEclRJIYOy6zNXWVj4SptZsEbrCkwYqmqAWIvZnKe+uDfecf+aVBQlJd4440uK5duUPk+prREo/joEeMoiwX8wLC28gqla1MPB8QgxBBwxoFUTIOdF4PYZFSzgJ+XyNmgx8npEQOtMC2hGnh2zw64c+8O2ztbOOd49803+Z/++h/43rvf4crMVWbLGRxC0GR/0qgFW+ueHeS8aIyqYE93NioKLnnTPT56xA/f/1d+/Jsfc2//PlURkiuobTZvL8MzMsXLimmg81sRAZtVilNHTbNgG5ME5YxanCihTkqxy511hqs3eBJexQ/vcDI8SdkGSYJ3SZgtla9E/ThoyURUPbeAZon8zGRpfIdESe7oJk10IWbdfiPEYshJvUc89HSHvyKYHq5lWW5dRsXipCTTh1OmSMYcm3HBx2FdiyvFN1hpn3HcPWRvYYfD0232T7Y56e9z2N+j70+owhAvQ2o/xMdhIs5mHoYoRJvVnFNtCiOJxOhI59It5ilbHTp2jpn2Iktzl7i0eoX1lSvMtxeZZYWWaY86uhIRO5e/Gn2hpmPLJOKxp+LMH7O3/5jtvW0+v/k5X375BQdPDqGG/hkcX+sTzkCWsvknEYlpjMek33GQq2TRNTUXSkyjSGv0zvRq1qEhdbldWb7BtdU3mOusIKGAmLI5qorYXBJlcl25mN35+hFUGPiColxmdblLNDXOpevv1SdBQoXeicdKgR8Gog9gHKpZwO3l+kp/1tAYEduYaaZNWK/f4+jsiIGvqG3ktD5j+2CbJ/vbmMJx4+pl/vZ7/4n33vo2V5YvM2dmKSQ5j1sjZJEcYggYl/mEcj40HWVMX1S8Ok6Vc0GLkEDAU7Pf3+MnH/2YH/3yh3x4+0O2hwcMbE2QgEjx1EdOg54pLmIa6DwD5x/sZ6h3SGrRNdbhpEiVitrTtrOszW7yirzF8X6PflXjw5BIjZqIoZ2F15qyx3ltlKTRNlmuknMnlCT5IarHGkPhCiofCBqxxlJahw81p9UBD/qfEYsBFJGw7llpX6MlCxhppQxSyBSbZrIkjiTqRKDNMm27yOzsKovlJqfzBxz3dzkdHHEy2Oe4t8tp/4i+79GvjhKXJ1SjYEdR1Lq840xdXmIspSvpuA6FtFicT27jC901FrorzLdXmO0uM9uaw2qBoZ0Dj5iui6R6PaojYbncmEYUJeLpxxO2jx9yd+sj7j95wHF/j7PhYbrcTdeqjxhTJJl4adSPGxfmQNNRNElCHgUhOskD0HG5MZevhMSHMtgU1GB47dK7XFm+wZxdwNSOwhZoMPhYURQFdawnFo8mg3Q+LngZbJ58NlWtAtResS632kePtRFXdtJlCBVo0sYpnVChQNMmP8ULQUx6OVnjEhAqP+Ss30sbECoO+4ds7e9y0jtlcWmZt998h+9/83u8tvYqs24Gow4laSqZnFFRTdYOuYI10jpuuIuGiWDnReDcTT7+bCXpYB3VR/z65gf88y/+lQ9uf8j26S59OyA4QUo7ErZ8JvRFWPJO8ZeAaaDzDKRFJe/sNRssjn8K2ZLAkdqjVQ3eC9YZZluzbJhr3J95zMHJEaf1kGgjKajxiYA7Ipj+jq2RjkMsGRWzAqKCyZo6xlokpJZsMYAzGBFi9BzWO3AAttXCmIK4alnuGDo4rLWYMKLQ5G8lqeNJ0vEsLYwBS0mr7NAtZ1loLzIMPQbhhOPePie9I/rVCb3BCWfVMVU1IMQqpdU1XUNNbBSMsRTW0Wp16BZdCmmzNLfGXGeR+ZkV5tpLlMxgKQkR8Iq4RAiezG6bCRGfoAExNgmjyYCKU/arLR6f3OH+/k3u798jdHqYOY8sJy6QUWjNOlxbsKWhvlgeUnfB729i7JtK1gRk9IMcnCgYtRAMBkermGFz6ToLnTWsdpDgsEVB0Ej0EWmNVxOBUSv3y5f+0FQWNAZnSow1lGUBBIZ1BaQqghCIsSIEn9ryHViTnpP6+TQPp5hEjDnDmMvZAUKMDEPNaX1GLw45G/Y4Hh4zDBXXFua5cukK19avs9RexFJgxI20+4JGrDWIgwI7CnLywf5436PJlMK5UlkkMtSK3eM9Pr79CR/e/JTtkz0qWxOsgIWy5agHPHMKnbSNmGKKaaBzAVEmum0a+2o9z3ULweMsSf21HiZ2Sy5nEUqWOtf5xg3PWf+Mw0e7dOZbhJZnMBwyMz9H1asSv2fSGKuhhABGDRfzSE2wowJFkUjN9bBCMFhbJC6hD4BBrCO0Buz1H9O73+e4d8KZH/L6hrLeEdoyh5Eyc2Xy54uALcisH0wmJ6aWdEeLDqUrmHELeNZY7V5H8XgqvA4Y+B61HzKsBtS+IoaAaBtjHNZZWrbAlSWlLXCmRSGWlpkh2UQWyTSSEtTgcoKlasS/nG1ov6AhtbAjYJRARZSKvp6x07/Hp3d+zq1Hn7J7+oAzOcGuD3n1+2sMXZ/TA2V5rcXldxfRdp9QFgRf5aBVsLEpV+lo8tRcVjzXZdVMzJmTY2wKwHxVY02JkRb9s5rluQW+91c/4MrajZSlq23iRVUeEJxz1HXO5nCRrNvM+uOM29cKUZAan3lqiFJVQ8bdahB8oFU6IGBcIu17rRKXLNak6eZlC+D+PCHWEWJ27tWa2tfMdNp4E/jVZx9QttsMQo+KiqLjWF1fZ2N9g5lOF4PD4HKThMG4Jls5zhxOFmSfHjHzQvg7qkoIEedS/Tl6jzEGnDKIA7ZOHvPLz37Jv/zyh3z55Ba+VCgKRFJL+bDfR2Lr+U9kir94TAOdC2ge/vOYWGSkSeYaUktz3tPnHblGwQ5nmLUrrC9cZWv/Hqd+H5WYSMnDITDWT1FybVzGx0gt4DAmvsbRsUXNmCukJFsIbQQK83cwirSVYD2DeMrjo7vEezAcDhls9Lgy/yrzdgWh1dTLmi+PipkQl2MU5Fksis2035iLSUqZO7G6hccXFdoKhFATI5Smm5g/RkYeSAbB4DLrJmd7MpelOV5zPi5bMeB1LCdvDJKNJQMVA+1xMNzlyfF97u1+zs1HH7N/9oihnBI7nk4pXHlzkfnFLmEY6XRbLC7N0p5Xan/CeWsBS/K+YixO19TyRjtESWOV7MWJgK8ryqLE2RKtDDEalmZWeXX9La4vv4ENrdQpprmkpROfn8e3yeKMMkQvHZTzNPnmZhsLx435RRcdol8kqWMKYBRrACnYKaEeBLZP9umd9Vi7tEmMnrPQpz3bZWl5kfm5BUrXRUgl1UlGTBO/wvmQuhnB8aibFzeUIqgVhr6GEHDWgIsM4pA7T27y/q0P+N/+x//O+zc/ZLd/iJ0p8DHQNHDk9PMUU/xeTAOdC9CR/gnndqtMrHOQdvrSMGHz65K7iZzOsNi9xPWN19k7ecKd/T6DUOGsSeRhHBCzcjI05FOjaTExuUQ1+RCPyyfnHWQSNzY1R08a1nkr2NLiY8VRf5feVo/eoEeoK6rVM97YeJs5WcSaNsQSVIheCSJJb8c+1fuVj5rSLSOrBxIZ0BFo5ZaqmF2/LUVexn+7V9RTyioTQZbRrBWkeavZKPlqJMiQs3DE9tk9Hu7d5vbOZzzYv8PuySMq08d0DMYZbF2zsjbLpdUuRkuShUNNoE/tBxhbjA44bhNPi/WIWjxqzZ9YsCWMMnBo9iXDJu5TbVldu8arm2+zPvsK5sSBmvweJo6RP2pylbmwiEz+6OtHHq2RmWPmJcWJ8ZVIsq0gvU/N+P+neGEw1qaMTkydR9YK3iiHw1NOBqd8dP8zSmMJdeTy6mXW1i+xtLRCWbZycGqe6sieDL0bnHvLpNTFi6quikGl/HvBZgAAIABJREFUJuBxrmDAkAcH9/nXX/+Qf/n1j/jRBz9hq7eLtkHauawcFScF0cbcoPACzmOKv2hMA50LUMyIfJee44ZYMEqXjLI6TVnDRHJGRTBYSikxDjaWrvPqxmOO+ltsnfVpnAsDiQszufAZzctGs3jKZGSVyhoppomTUc8o5QyMAicl2ys4ScGVrxjGYw56D7i34xicnWAJrHQ3WJvboG3mENrJH0otIQrGNiZ6kp2D7blqyuRkmJa77EkEEFNHkckkIJN/cFFOfnzNm9dzm7qQJvCsMSRiwBjUCF4qqtjjeLDP3tlDvnz8G7YO77N18oCjapfa9REXMWWyHDCD5GI8UkDWGsWDaOo4GU2Ukq9cmMjapbMXJOkETbCfG1lARBFjUlddNEhwdOwC63OX2Zi7RivOjXg/zdWatHUajeTEvSCjdz79vq8fk6tKfjaeJQSoMA5jG+L9S/dl/mxhjSXEOj0jQYhikQIIDhW4t/uQtm2x0JmhM9thcXGBue4cTlrEkJ/L3+Eqcm6D96xhe0FDqQhiC5w1DLXP1tkWv/jsF/zwg3/j55++z3E4xXRLijmLFIZ66BN/UdN2y0+5OFN8BUwDnQsYl5RARj5DeZHDJLHAXD5Ki1MkGs0aLGk1N2qwoWCutcyV9Td4fPiYk8EJZ+EweSyRsq4xl0CaoKEJCJoyhmaeUOMRlao6edHNGFdYEkm6+XcIBUHB2kir5RAX0dBj5+QBh8f7DH2PS4tXuL75GpuL1+nYFYqijaENOJTcft74dTW6ds1hJoIWc3HRluZcK9CktCoTs+pkatycezWSPKTSb0cSH0ecRYl4rTipDjka7LN1fI8nh3e59fBDjga79DghukDLWdQmErSvlE7sEFWo8YAHCTgrWGOxkhzP0zXO/loSL3gqjcd18rVmsCLN7loovNBuzXJp7irX115jqbyE6bdzOXSCICnj4FlGAQGgcSR6qM1xsqfWy2DzJHiaUlsq8aXSbTq1ZnzjRGlBx68BLy4NMEXwdb6cNt9bpI1W22A7jqOTMyo7pNsuKUpDq3A4Y0mmvJLnmKYEmyAXbvFR9nhy2F7g8CmKjxXGGCqGPDl9xC8++QX//Mt/4df3P+RJb4vQjthCwEnis3kPqngihAjF83nATfEfA9NA5wLSLj2ZEqYNfMgPelOmGm/Hk/6JoVE7Tr+sEBTvFbWWhe4G19ZvcHC2y+Ckog7HjYlSOuBEhqbh+YjE5CadA6qYW6wnqxtjJV/GnzWCUMSCEGp8XVM6TboYxtMbHBIHRwy2+hwM9zgOR+wNDlifucx8d52ZYpm2tCnp0Ph6TTqWC+MFeyLcOn90SX45pmklyvyOxhqhMQU1YjLrI47mUiUpJ6dKUMquDfSUfuhx1N9m6/A+O8ePeLR3h/3eE06Hh/T8CbEIuGwKqqQslNYeNSWqqXMuGsE6AQ1oBF8HjGYmZvYlm6hbIupG2Z1xeenpxVpV0aCoWBbnVrhx9U02V19lplzGViWhCQ4kEjWMidUN12ti7J8qkfLyoLkG46awRu/nKyw2cn5RneL5EHwEozhJz6aPOZOrgRrAKVEjPtYM+0POjnsMh0mwsaGdARPBzIWy1LMgY6YWfKVR/50QkiZZwLN9us1PPvo5/+/P/h9+9unPubd3j5MwAJeU3Y3XbDLskqqY6tQ6bYqvjGmgcwFRJol3z+qHneySavRdJgMfQCNWhVhb2q0ZLq29wtbxFoeDPQ6GxzllrOe6eUZrLeTJZzLPk3yRyFkbGZ3As5x582+pBc3t7DESQw1iiTYQ2oYzTnjYu8fx1jGPjh6yOnuVy4vXWF+4xsLsCqt6GScl1prUFTEJSZMooyyPyxWd5tqkxVCNaQo8yf+KbPrZBDp28jumeruSO2eJDLTmrD7jsPeEg7MnPN6/yePDmxyc7XDQ36LSHrZwhMIjxqBiCHUKTJwVjDhq8agYojMEUWoJiFdMDLnTa3KyHI+3qMXEZBGhF+wZfus1F8vczCKX16+xMLOM9B0FswSaHtgcrOpEyUcbC9kUMKSi2IQtCKN/fq0QUjcgakadiSqNNs44y5nQRMUCalMmaBrkvFA4kWzWq0hIgpbN3Rs1gk3B0HAw4OBgl92tJxyu7lEvDumUbUa+dc2dNdEMMb7Zms1VGrvAONBRnj/QUZTa99k63OKnH/+U//GT/5uffP5THh494lQHRFeDNYhEoiaunDMWcqBDabPX18u0HZjiZcQ00Pm9mNzBjxdyclkpcS4a2mp+lwqFdVQScVKyNLvG2uol7h3Mst+fFApM00YUk5I8k5Ds7a0mrxHJn8rkw4+yQBdPN/ssSVScKXAOIhVea6LWYC3GGUxh6ff7HB0c87h6wkJ7h6OVY87WB2ws9ei052m5LkVpUAoKl24V1dSALgjmnHVBc1JmIhsxDiPMyJB08sqOl/HUfZaDnaioGrYP99g53mLn+C57R/d5dPQFB4MHVHpCKCtMmaTvI1DYpPqsmpThnbNYK5wRE7fHBuoQCX6IUcuMdZRFCx2eJwWn0W663Sa5J+czMJM7WxFDYQskGtrtLrPdOWx01P1Au5CnB+mcW+xE6eDiWL5s0HxNxqQqnqauTnRljTqynhbHnOL5ULqC2kdC7TEqYFzKWhYpwI++xntPrzrlYG+fvZ0dDvf3qYYVlM2nfPUwerIIOZGPfi5479ne3uaLu1/wbz/9N/7t5z/m7uE9dB7KuZI6b/BEDcEHCIpgU5BjBFe4aYwzxVfCNNC5gDI2HSJCc3lGz5LkR/zi2jWxW1UEtZaI0JFZQlURA7y18B3iZuRkZ8DJ2RZmpqayA5SAkwKNBVSCUBDtcMRTQapREGTHB+FZk1PKCqV3hWIIkHVPivxndPpoqCgEihmBmZohj/ii94gv7vwL3IHvXPoBK3OXWFpYZ33pOvNukw6LiJSgLqvfOJIs3rgLq7lExGY9lFHZqzn/xP8N1AyIeJQKz5DK9DgeHLB98ITj0yM+Pvohe73H9M7OqL0nhIBpJc6PkXay4ZBszxBTAGadQ4FKyW7oAkGxNbQRoD26DnWsLmxL7QQXRlGpsyq+HX2WtRYviUvk8UhtccMOpjfDNy9/n7+/9F9ZHV7Dxi5Fq6Bfn2DdeDZOlrHFBOchkdN/21pjXpKJXBESh3WifVwn5PfFTxBYm4zOcOITXvow7s8KPYZJ5MqWRDXj6CMGlApTGqJGqgA74YQvTx6wObjHm/EJhVhK7VCGVhIJzJ/ZJBpjqPEx0mq30v8TiDEi1DiRzCMTTmONNQVFVhVvkpUxP3tFIbmSHwji875B8Vpz2D/k060v+KdP/4mPPvqYX/3mA479CcVKC1Na6qAEdWMCoLVgM3sgF9WDhmmcM8VXwjTQeeFQgvrUDIFk00xDpzXD6tIm1zev8+njPWKoKZwjiKIhgDiMLdE6pHXia14XHu/eZ//gkG7rMQuzD5nvbrLQXaNTztEtZ5lpz9ApOljjaBlHIWUS/xOXSnkmkYpTnsdktk+yafB4gtbUoc/p4ISj3i6H/X1Oe3scnx5y1D+kP+hzYHYZxAE+m4Naa1Mnl+biTtMF9UdF9tmSNNlr1ETmNFBQoGJo2Q7rq1e4tHaFbnsO60qkTt+4KC0xTturp3jRaHYTk/d/HP2ksBZtWaQKnPX73Lp3m5n2LBtLm7h3Cy7PXKFFe6SMNIq7DVhTXChLmdxBGbPrXjpOx7THP2/ealNGVY3gQ0AkIlawIng8x8Njtva3+ezmJ7x/50N+ef99njx5wnCY7FBs6VCUoDHVsH9Xa9gUU3xFTAOdPwIkK/41pForDuvmWV24xGtX3+L+wW1OQ4X6GlsIISYPJ+MsVRW+7hgHgIPBFqL7yGmL8uABM607zM+sMtueY7azwEy7S6ssKUxJqyjoFG0K26Z0Jc61ELEEDRCTvHysA7V6QvD4OMCrp44VJ/1Ddg8fcnC8y0nvgH59St9n36yWJxBRDSCSdp9G0uQekw3HH30ajI20YSQS0liZ5GBvokNCyaxb4JXLb3Dl0qt0WrM4XPrOGimd/bo1jaf4i8Q4RBEdt+43cU9I1R3EWYaDirtP7lENPW3XRRG+f8OwObdJu2yPMrIqoEHStkSgqlPGpPlMkewxZwwWwZnM//OBICl7a5rkkijGeqJRAoGBDjjoHXLzwU0+v/UlP/nFj/nozsd8Xt9hOKyoY01RthJvJ2oOcqa8rileDKaBzguGSBLvCkFSDjcawGFDZK5c4tLSK1xbfpWbOyecDk5p26SRE6NiTEyu1l/3lwBC6ZGoaKipqRgMehz7PYrjAmdKnLVYYyhtQcsVtFybsmzTcm2caSdvI43EmP744Al1wIchVayJGqjigEHdYzg8pe/P8AxRPMGGLAYG5zk+WRQxCwj+SQLCmDg4YixRAsSYMlbegBdcaLOyuMn1lTdZmbsCoSQiSdSwHlK4lyA9N8VfKLLW17mO0IQQKgLpvpXScDasuLf7EPubn1JpoHfU552Nt7i0tsGl5Q06RQdnUjNAXSXeW6tVjrnm0hxxAgHAYIrULoFR0EAg4tWDUfq+z2HvkPu7D7jz6A4f3/yEL+7e4v2Pf8393Uf4pVRzE2eIooRIyoCKYEzTjznFFM+HaaDzgpHE+lKXTt73p5p1ZXFFm4XWKm9c/SYHp9sMDo+QVjI8DD4p9ootXwqn6mhi4pIWFmKFD55BOENDJHif6MOSuj8KKbCuhZOC0rQwtkBE8FIn8nJQvPepph4jQT2eSF17MAFsRHJGS0xEMzHFhdxhEZvOLU1m6PnYf8odX1IYUKwREEkGocEwbxe5vvoWmwvXmbHz1IOIupTM9+hLatA5xZ8/JjszU3PAUyFB8NRWaRVt3GxJPQzc2X1A/4OKo519vlz7lHfffIdvv/sdXr/6Kl07gzVC0bagrtHrhEzST52TpAwrwDBp4EjhoBAgECQQCASpORgccG/7Hjcf3uLXn37AZ/e+4P72Q/ZODtgbHhBmAkW7nUraqoRGX0EEjPmtmdDp0zTFH4ppoPOCoRqpg8eIRVSxYhHjIArRF8y6Ba6vvsb22j16gx36/hAxmrzNg6coHeK//maCGjNytzCAsanVVKziCkU1ZN0OqNXjtaLCMYiChBYiQrBDUEU1EjVxdqKMW+JNWxCTFKUxic/UtD6lQMZiVFEzbktXTbtYsYanrU//CGjI2/lIYgWJhhgtLV1gfeEar6y+wVy5hoQSp4IxDrU1NtqkZP07LDCmmOLfhdGNH5mg+Y9/bkowFRoiNZ5Wu0QNDPoD7u894PTgiDvtL7m7f4fD4QFH1Xe4tnGZxfYq3bJNS1qITSTjSYwd3hIPR2wS8wxEeqHHce+I0+EpZ/6UL+5/wSe3PuHmvVt88MXH3Nt5yGk4Q53BzZS0ihnqELIURZoDUt+eTZkcDZzzHfy6J8Up/mwxDXReOASV3AIpSVXXihBUkWBxpsN8a4XXLr3F0dk2d7Y+xpsKMREfPVaHL8fzHJNQVyP+l1zSAWKyg8h2DZp9uWLustIoYCJRBGwcbQWTGmsiJUIOZFyyRogqiXwYIho0TW7GZB5O7iYTk4KcsdJZ9tr8414tI6nR3BOIGnFYJDrK0Gahs8z11ddY6WzgfIHEArGSnMy1RkSI0+3nFH8C6EiyoJF5UIxrESUQ1FOrgBNiqQRfc1AdMDg85fR2nwN/yK3tW1xZv8rV1atsrGywvrDOtc1XstZU4u3YC1ILah1DhgwYsn+8x/3Hd7nz4C47h4/ZPz3k7uM73N+5z/bBHo8PtumFfmrUK4S6hGgVX4cU4IiMGgt05BgyfXimeDGYBjovGGIMpbNoCKgHtSnfG0PD73CUzHB57TUe79/n3uPb6LDGdB2RIXX0uD8+xfb3wmgOdLJqnSqEbMmQAg5NxMOY2jyNkrMtLv0st33H/Lva+FaRJzWEejAAMUhmMIom4TmRZKPhY4XEiHEOUcGYsSrvn2oKTOamEc3lSNRhYoGjy1yxzPrCVTp2jjgUjFEKl3y1QkxZrDiVj5nij4Ks5yQmSzrI+Z/5iqKcIRiLHwyTUCYChcEWBkoY1DX3Tu7z5JNtPrr3OatzK1y/dI0bV1/j6sZlNh9exWFwxlGIxRhJ7eV5K9aPSkToVz129re4dfdLvrh7i+3dJxz1DjmtTjgbnFHh0VIoZrtoYRJRP3p8UDA2Pf+Q5kwjidfoTFYyeCm2fVP8mWMa6LxgaEz2D6KACQQ1RB1iTDKvU41YaVHGed698R5BPP8/e2caJNd1nufnnHt7n+nu2ffBMtgGGGIHsYg0F3ARSdmKY7ksU7YsOom8lX+o8sOpuJJKJa6k7Eqpyq64FMVyLNqOUrIYcZG5iCREkQRAUgBBQdhIACQ2AgRmMJi1Z3q79+TH7e/MnQFAgBIoUMB9WcPGTHff9dxz3u/9tj3v7WSqfIF0OkWxUgB1/YmOI82tLppnVE1ODioja+WgcULGl60WiPGcWsnAmgJUe0PaPLjaqVVk9YJznlWB2EMrJ5jw5HtSKdFIL62PfxIMMr5A0lIcL0ZK51nQ08/KhRvprJtPzI+hVPAoVb0qvl+ppem6UcZVhI8J2pIbgwTmO7ValD7oeNDyQRGkX9XibNAGzyh8xwM3cBv5fpXz/ihjY5OcGDvHj97dS9xJ0ZTP4xiHmHKIaY3rKOLaRasg23G0FGRUVbwK0+VppotTFIsFil6RslcCbfDTDq7SeI6iqqm1f1FB2ridYsRHLhZM0Kh01uNtZv8z0noifBREROdjgKlprwowKpBmjR9kV4GCiovrJMnEm2nJdtKYaqUyNY3nF2cqCF9n2Cahcy1FO8VI/6Zw9lOoZqqCmcq4QR+ombqqspMZ8qOC0N1ZE5i5iPCZOa8fP4zx0JogZdwDTJxUKk9TtoOGVBsxlUThoFVQX8TG8mjAOBedU4QI1wY1V0/tUTBqptilqjWpDfLFw914qWVnGYxTi4fzFb4yVPCoGNCmwGRF4ZQLjFTH0EbhaI2LqiUeKLQJkgEm/UBh9WpZlFW/jO97QdKB8nAcB5QKWr9IDUljbGPkAHNMAXPRPyJE+JkREZ1rDlXrWaWRLtVGGXzto3wPY4Ig35iTROk8TfU9dLUuYOr9ccbKZ3G1+4loC6SMkJbZy/Ts6UeDb+Z0+w59yn7VD6kv8p4/+/MSYuDP+uJ1h298As1K43maOGlaMp20ZHtJx3I4fhx8B2VbgUghtxpJM2E1K0KEawUVMiQgaEUTkBwgVOFbE24cHMDUag1KgRxTcwn7QeaT1niUKXvFQJH1A7ey8gP3lzYBfS9rp6Z01vqzKTBOkCygjaKqgtg82WWgNjm1DLEa+VJXeDYuw3ciGhThoyAiOtcYEg4IYEI9fow81MbU6ohqXAMNqVZ6mxczPDbI+PkLKDxMwlz/tT48AdVKNZtZHajDZ+qH3E5m5m8maPooBcRmp82H2ZwRdT2I2Qmf/HWe0VStrlG1rHDKcerTTbTnF9Ca7SKh6nC8mtvOBLE81ssFcxaiCBGuIS4ztozyCdsdQcZ2TeEJPhH83dRyFiWAufZPI8wGIF5rzuvXCLzNMQ+SLEzMYabni6o9B7WYIQK1yBhTa1xcq4MVHGRNjbp8U+IIEa4lIqJzzSG1UwL41FKMaxaT0hqNAx54PqRjeVqz3bRnuxke/YDRybOQkD7B1w8mTERmjDJmdTwOf9aAuLLsxEcleF+HP6+DTKTaDKcBjItfmwTD+1WfgM7EjnaCbLCyIkmatlw3XQ3zyCeacE08iC0y0om+NofXFqHaknI9Dz/CjQoZcIDtMl6bd4K3JH5HUCuSoGYeZu2F+lwxswmjawQkXF8CIUczves8ebNGdgJCFNQQxw/qB0ro8iz3tvKwKfEf9fGe+zhF0k6Eq8AnwElyY0GFfuTy+rU0ocCqqhWdM4Cv0CZO2s3SlG2noa6FmEp/QpbG2Wdy6fgYUWsCGdwoCRIOkSIVED8VEqlUWLMxgQYi3cKVmJXmUoHQP39o7YAJWpjWZxpozbeTTzUSMwlUde5CoYLFwFCzbMPXL0KEawd5hmYqSfn2eQP7ZM76zgzxrumOqvZT60VnR6sxKN+EUyZrgk6NPNWe9SDlsmaxeWam36sRXbN2dFYpmjmmoJXtxSmJ0RMT4eNApOhcaxgISmjVnm7lgvECSZkgnkX5PsoHRzn4HsR0ivbGHiamhihMjjPI5M8lo+jKmFnGLXER5SYclGxNtrkRPMFnJLEcsfBqH/OZIQqigqlLTNDXE8ZX+FVFLpGlq7mH3tZ5ZGN1aN9B+QrtxPBNxRJbXXsFHahUUYpIhI8D1mM0Q24C+DUCE4zdWXF2YY+wUvi10apqgcsqRIWsqyr4QO13g1HahpwpqXVjp4KZ+UKpwNUdDg8K7BczQ3jMjPI0F5FwE+FaIlJ0rjEUol4EZbao1aMxoUfX8z0MPjEnhjIOynNoqG+mu72X5mwLSl3/22LQtZ8ZG8xGFCqJyUEiFZkbcBsYcLqmbATqhjYKLSbeHJKjMDVq4KNqfd8/CdOb5/kYX5Gtb6SrtZvWXBuOiUMlOAetgjYVQuQwurZoRNlWET4+aDN38vZnnkUVUneskhJCrTif0RqjA1eyXytu6YvBokzAl8TNHGp2JSKPVm5QWqL2IwTfxvEZPaP0qtDcgRe0ftFRkH6Enw8iRecawwThxPY/8AK1wqjA0jLBQx+8U0UrQ8wkifkujc58ljT7HDv5DsVqAV9X0fFa32y/ijEOhiCjYUYYFv88oJxafS3F5TvFXO15hCdHsejmfsqvZXlcWoUxc6w1iQ+QYMUZV5bs8VpHtQTVmFG1bSs5L2VDHJRS+FWD0gZN0IxTqYCE+SjcUoy8amNefimtdfNIOHlUNYNSMUDh+17t2BW+CjsU5HyuP1mLcOPB6JohoGS02Wj+2ifmRN+EyY4EC4dj4FTwRAaibU3psdusPa029rC2TT0n+sbMjHdjZtxqwTQgc0gtENm/1HwSIcLHg4joXGMYBZ6theMTDq2VTImgd5Oh4hdxHIe4TlAtOqSrbSzI5WhIPcfwxFlKfgGtwNMePj6+rzBGo5SD8Q1KVQmWY5nodG2SqtW4+dnOhNkz0eVUJnMJYlJzWV2GsVy+Q5VQnmtIdUxwLST126/1nvJVoCkp5WBMBWVqgdS1GiEKBT7EvTra6xbSWd9HXawNv5omFktB1cFUK3h+1RZLlLAiY2mSBC1cf4Uuwo0FX82Jb/nQ9KVLkYrA1LrUX8UdfXF3lRpZqak+3hWYirnoHyr0+9xg6atERI4i/BSIZuDrAK11rUGlwfM8jDForYnH46TTaZYsXEFLvhPHi+GVvJqXKGiA6Tq1jjNaFlSJBTKgPLQytUaSEQCM8qyaA6D9QAvTtXYTeB6uq2uxQz6uo22rCQVk6xpoa+0in20mk8ziOjE0Gq1AO7pWFE1ceZeahSMHVoQIESJcT0RE5zrCGIPv+/h+0KwyHo+TTCaZ17KIproOYiaNKSmoGLQPyvcxvgeEF++aOwgI1IMqiur1OqVPGEyQKqtDwY8otK+DHwlnqDUrRfk4jkb5Br/qk46naWvqoqttEfm6NuKxuoAcVcE3wX1Q4SKBof2Ke8ym80aIECFChOuCiOhcJyil0Fqj9exboLUmG2ulOd1JPtVMgjS66uCiiGkH8KykbCRN1IQdZLVgvwg1hF1wkko78yMyvO8HioxC4VWqaE/TVNdMe0M3TfUdJN16tBfDVDRe1QPPw/hVmOtCsPuMCE6ECBEifBIQxehcB3hesDgqCc5VyrqxAOqTzfQ0LaZUnODo2QpD0ycwnouOBQUIg8Z40tRP4nNUbdG9lhEuv/jwa9Wcda26szLBkA/CBHxwwPg+PhVcYkHH+YqmLpGju2Uh7Y3zScebcUhhPI2peDhqJrgzSGzxZ7YZIUKECBE+UYiIzs8ZRurFKGV/xIUliJt62uo7qbROMjZ1nuHJM5SK0yjtBkUHlVPrqu3gG11zn1y+JsVNDSONSKWIWe1vysevkUIPr5YRpzG+Q8qpoyM3n56mxTSk24mbNMpzUFWAoH+Po7wgBddGIodL8oeDwSN1J0KECBGuJyLX1XWCEB4JShYopVBFhwRZmuvbaW/sJp9uxvETeCUvSMu0qdK1bCwUBgeDW/uJeiwFEHIjVZdrZEb5+MrDaJ8qRdCGeDyO57tQjtGY7mRe6zKaUz2kdR5tHFTVgO/hKHC1xlUE1WM9M4tMzWqdEaWXR4gQIcJ1R0R0fs5QoeBUITnGBMqA67rEYjH8skJ7ceqSjbQ39tKa7yKdyBNTceJODK2CbsFGA9pglF9bUjUGF0wk1M1AoW2jQQL3Xo3kgI/ne2il0ToOVY3y4jSk2mnPLSCtmoPu5MYH4weFDZXBwcM3Pp7xqPpVsMUVI5ITIUKECJ80RCvidYCak4kjv3ueh+d5JJwsxi2hVJVsqpmGTDtnzp9htDCKo3yIGzDV2jLqBAXudAw3FsP4LtVSEX1xEYyPhBtlidZGh7qJV/AMQfq9rsXnAMp1MEXwpjXpRAMtdd3kY20kKw24KhFUalaAA9p4eDWvlFOrihxUS5LKsDMI2j9EdXQiRIgQ4XoiIjqfQFR9D1PyMQlNOt7IvLallL0ynDEMTZ/GwYCr8JWPdnx8z6da9ah6VbSK4fsGx/nwuBDzMxKhXwwYjO/hAVordEzhuhpjoOL7VMoV0skUlSkFUz75TAcLWpeyoHMJDXUdxKuZoKq18maibBSBwlP7xVc6cBUaHQrFqRULjOoZRYgQIcJ1R0R0PoEw2gSNgcsO6XSWrtZFuPEYPj6VUxWm/AtQLaHdCjrm4Bkf36/iexVmKvF+ONGZqyrdiFAokqk45UoZr1Kl6ntovxZL45mgdHPJxRQNWbeRvs5lLJ+3mu6WBWT8OjzPxZhKEAA+hxcaVNDg0KiLLnVN29PKAAAgAElEQVS45qsyn4z2rBEiRIhwsyIiOp9AxFxFxav1EyjHSKfztOcVxc4ivlflvXMHmSxdoOoFi7nrqKCarwq6aRsMphotrwClcgnjz/TRwldo7eLoOElilAo+DYmA5AzMX0t343wSpPEqPnhBOwhDqMK+kX9Len/YLSUKTq18wKzeQxEiRIgQ4XogIjqfQBjKuA5Q1XhVgyrGSLsN9OQXk3SSKM/l3MhJLkwPMl2YwNcljGNwEzGcIFSWqvnw6sg3g6JjMBhP4cQ0cR0LqlBXDFRclEkRI0M+2cD8zsX0L1hJV+M8En6GypSHrlZxlRtUNzYzndZn0cdZrXt8W8do9oei+JwIESJEuJ6IiM4nEJXqJI4TI+bEwdNQAseLUe+2ksincPriDI3P5/3z73Jm+AQXCoOUvSLG+JRUlUqlSCwd+9B93AxEB0A5GuNDsVyhMl3BryrSsRQNde001XXQ07yE7paFdOV6iPlJ/KKBKmilcByDhwbj2qag6nIkRkiOdJOHWRWrI0SIECHC9UFEdD6BUJTBgFYaFxffC+JKXD+Fijl055fQUNdGrq6FXH0rH4yeYLI8SoUpCtNjjFWH0dEaC0C56gfZ4VWDoxPksw10NS1kYecKunKLqXeayLiNxMoplO/i+FWMNmgNnqpiTC2jygREZ27Ejag5QdFGL/xHALRReDcHp4wQIUKETyQiovMJhBtzUL5H1fPA02jPDdoPxBSOSlJRHnE3R0eLQzqbJDeeY7I8wrQ/zuj4Wc4NJ7lQOvuh+zD+jZ8RpIC6TJaYq4nHUmTTOZrq2ujMz6c920dTsot4OYsqxaESQymNVg4GD8+roBwPv1YfR1/UtDP0mwpq8sw0Vg3V7YlidCJEiBDhuiIiOp9AeNXUzC+OD0555ncDrq9x/CSpcoo6mulIL8NL+fhelWq6ynRzgX0TrzI0OMTIyAgGg+u4ttWE1hrvJiA6rorxqYYHSaUy5HJZMukMWge1b3RRo0pBSrjCgA6usV/jJUoBRqPwUZSCv11iH0G2eVBkJ/y+8JxIzbnRoIgbKBuNT4VEMs1UaYw4MfxpjzqdYaIyTqk4CXU+8USccsXHIUacBKVCBVwf4tf7PCJ8YqAURvt4xWlwXDLpPKWRImaqQsJPEvMCed7X1OakWuaoMbUSFlGbmSshIjqfSKhZL5eCrsWHaBV04dYYjBNDmyquG2Nd+2YmuyaYKk3j4oAbpFQrDTEnBlqhahlEH+UVhe2ezkf87s/yiqmRD7CZT1f6jvY16dEOkskkyWQS150he1KN2tYTuuhaqyvdgtAno0nmpoExVPyg6YoxCt/4aF9hDOTrG9m0bgMv799OeapI0S+hcMCr4vlViCWor89Q9MuU/PKV9xXhpoGbUFS9GEq7lIpFytMlGpM5WnINuMpFz+1jWPt9RjmOyM6HISI6NwAksNgYg+u6+CjcajNptwHiCkc7+MrglSooR5GMJylVypcmCASEwpgPfw32d4XP8hEIzdVsTzjJlY6P2jZ9cHIZHMdBa40xhmq1aq+VjgKZInxEGMCYCo4TBw98PxiUXsWnsa6eO7fcyf7jBxmeGKJQKeK4hiDgq0yxovDiHp7N0IsQAVBQLVVRjibuuviTFeJGs7RvMevXbGDRvD5ixkWFWtlconxXhA9BRHR+QSGKhEBrjVIKz/PQOHgFD0c7aCeO60C1avDLoLTCK2sckrNSptVHfOVn/M5P8/2Perzyf9/3rYojio5SyrrxIkS4WgQeTRc3HscrVgCDqx2KxRIxJ8HqpStZ0r2IkYkRpi5M4XiK+lSaoi5TKZcplyvguKBq4+4jWwQ/yytzrBR+PnKsWDHR+V7+1SuBTqCqHpWpEnWmjiXdfQzM66cxncef9HCMU5s7DUEsoLitIlwJEdH5BcXc9HBxwThO0Lk84abAGLQCcNCOh+MmA5eO4aZZ4MsE1yqsesm5z3JdRYhwNZDHzvfxAdd4xJw4pWoFSlWa65vYuvEuql6J8T3jjE2OgPaJxxxUMoaPh2cMxpdxZ2a2Kea6gqBMgb4Gr2bOdsP/Du/T1D57rfc5Z38f6/mqS2z3F+B8tUM2Xk+1ZKAIGZNgQVsPK/qW09bQwtRogZRK2559/uypP3CjRvrOhyIiOr+AmNsB/VI1cUzVw0PUiwqOdlG1dky+CRqI3vBQCqUde32E8IQVHvl7hAhXA2PANxVKFY1fDZq9ujGXhBuj5JdIeHE2rFjPyOgFTp0+xd5jE0wOFiAFTp2Lk4yBD1Xpl3ZZWVJf+hVd+0ztlct8zr6qi7fP5fapLr8tQvsUNeqj7POKcuy1Ot9LbP+Tfr7GUB6vUC6USJgU81sWcMfa29mychOd+Q68SW922VEz00fPVl+P5rAPRUR0fgExl+hcrEoYglBHhdGBauFjgsDlmopxsyg6xp8dfBxWcSLXVYSfBgrH/svzDI7j42iHhImDp2hI5hhYMMC51WdRyuHIB+8yVh6nOlVFmaCtiPbnPrMRbloYUBOGelVHZ2MnG5av51OrNtHd3EVMxVG6WhOgZMyEM2YVCo2Z9bcIcxERnRsAc4mOAZSr0coFZfA9UTB04LpSOmhwaXStYaUOLISreQ1LsZiP9F2jfLTR+MpHfZR9Kh9QIXe0uqrvKKODHmC16yMEL0xubgplK8I1g1IKrRMA6JimWq1SqVZwHY1SGuMbnKpixYJ+srl6WpvbeHnPDo6cPsLg2CCVYoWKCrK2IkQAcJTmlu5+2praWd7Xz5Z1t7O6bxX1bh3Tk9O4xgWlMHiz++4BUp3dZqdGuCQiovMLiLnE5pKuF79We0EBvoNWCmWCRd/4CpTG1JpSGlOzCi756gRqiLzWJvNgv3r2e1fYFlztPnUtdnDuvmfibGa/x2W35fszREbcVpGrKsLPAmU0xniB0eAG5N+nGhjcniGOC06MhW191H+qnoULFvP2sbfZd/gAx06foFidxtcR0blZYC7qfxfoMMrRONohlUjyO/d+nrbmVrqau2ipb6HOqUNXgnnQ+D6+DoIrbZ0vcVnZfYT9dBHmIiI6NyBm3MMGZUIKTC3IH2UCO0Aemp/y9af6Ts2d/dPu+6Pua+Y7s919ESL8tAjGjwL82lib7T5WykH7oLVLW76NeCJFU7aR9qYO3v/gNGW/BG5Etm8mKBVykZuAlmjXwXEcEm6CWxYM0JBtJJ/JEScOZQVGoZXC1x6eClyegQIPAVUiELptkbMIl0NEdG5YRC6ZANGCEuHjwIwFbUKLjDJBfzO/ClQNOubQFG+kvqOentZeSqUSnqle1DMtwo2NmSx3ufMKrVXQz9BxSZYSpBJpErhQUUGLHlVzRwUiOH4tnVzJBm0GfTSWroSI6NyQMKC8j6VMBMz2Bf/cKiMz22i5uu8qjA0cjRDhWuLSKTYGRcx18aoGzzMo32AcQ9yNkdBxTBqM52NMFDx608AEzk0DMCt5RKG1xnUcnHgcUKiywVRrY8NRQQiO0vi18WKrsNtsK1MLB4jIzochIjo3JBRIcSlxD1+r19q/Z/3zWu/jEq9zdvvRjjdChGuIwCYPERyjar/JiHNxHB+tgs8aBX5VFjiDg8JRsety7BGuFxRKGXwD+CYgLgq00ShfYYzG9z0830NhcJTG6GDshGgRytRUw9pok/GlQhEKES5GRHRuUJhak8m5due1euVj3PaHvfKRjzOynCNcY0gWYPDLnAVGUa2WwWgch1oXuqA5rA/4voejNa6KlMabBQaCjE+jgqJ/KiAqwTtBk86K8QN3lfFQWoEbqEC+TxCfQ5BMon3QNSvO6BrRwVw0CiPMRkR0bmCYj/n157GPn3Wf0eMf4VrCYGoeg0uNruB3zzdAFd9TOHi1AA2DMkEqMb6h4ld+zkce4XohaDvjoZSDtKbwzUwtY6U1JBLIzKVdJ1B/PA/PgCHoV6h8jWMC5dDgBWNQE9RIA6L88ssjIjo3KFQUjFxD9PBHuLYwygOkwaIKakKFNMdYPFBrDF7gpvB9TM0doVWtS1E0LG8iKDQuWjt2OtK1WB0pYlqmjNE+WnngKPwaOTKooIGs0YHLM6gXgtE6GF94tcwrJ5rpPgQR0YkQIUKEj4DAAaFqsREXV9b2PK+2gEkIqmTKELgljImCkW8iGBNkTGm/atPMDTVVUGmMCurjyJgwJvhBBVlZWmvwAhJtau2xBEHcjh+RnCsgIjo3LKKhHyHCtYZCzZFj/Et6DILWLLXc4NriFsTomNp2otYjNwuUCmK1Zv3N/i/IDtWGmXFSDd50pPZOrXq7L0NPz2xF+Qo3GktXRHSFIkSIECFChAg3LCKiEyFChAgRIkS4YRERnQgRIkSIECHCDYuI6ESIECFChAgRblhERCdChAgRIkSIcMMiIjoRIkSIECFChBsWEdGJECFChAgRItywuOmIjjEGrTW+7+N5nv1dKYUxBtd1bXfZWCxmvwOgtcYYQ6lUst9zXRetNZVKBd/3icViKKUolUpUKhVisRjxeBylFL7v2x+lFK7r4jgOSqlZxyD7cpygwqrneVQqFXtMjuPUyor7F31X66DAVLVatZ/VWpNKpXBdl0qlQqVSQSmF53n2fI0xxGIx+55sM5FIUCqVqFarlMvlUOddcF0Xz/MoFotMTU1RLpdxHMf+3fM8e77VapVsNkuxWCSVSgXVYk24scOl75VcX6UU09PT+L5PfX09WmuKxaLdTiKRIJFI2PMHKJfLAFSrVarVqq1EGr6Pcs9isRjlcpnp6WkAksmk/Zz8COQcHcex5yZF4lKplN1WuVwmHo/b+yH3ULYr19D3fXuv5XzK5TLVapV4PE4sFkNrPWtbvu8Tj8ft2AqP63K5bO+tjM0rXesIESJEuFGhAIaHh5e7rnvgeh/Mxw1jDNVq1ZILwC6KAtd1KZVKeJ5n3wuTB9d1LUmYmppCKUU6nbaLjJAQIVHybyE2QizCpCdMamShKpfLuK5LLpcjkUhQLBbtwi6LdSwWs+dkjJm1jUQicdG25EcIjTGGeDzO9PS0JUby3VKpRKlUIh6PA1BfX2+/43meXUzj8TjJZBLXdalWq5YUybZjsRjVapWpqSnS6TRjY2M0NDTgeVduUSEERwgDYI9Va01zczOlUolyuTxrgU8kEqRSKSAgO3J95Z7I/ZdrWSwW0VpTX19PLBZjenraErdkMkk8HrfHq7W2xNNxHNLptL0HnucxPT2N53m0trYSi8U4c+YM9fX1s8iIEEG5VkJC5VhlXITH0lwiJGNTxpKQGvmukDrgotcIESJEuJlw0xEdIR3hBSf8t8nJSTKZDLlcDoCpqSkqlYolKGJlCxmQ74YXQrG2ZTGVBVYgxEm+J5a+67qzti0KhizUcsxzlYG5ikP497DCJIuf7/skk0lKpZLdhuM4xONxpqamKBaL9jhESZHtyE9YRRK1R/Yn5KBQKNhtGmMsWYKAgFxp4ZXFfHJy0hJFIVVyX+TYM5mMJSRy/kLUhARVKhV7DSFQyurq6mYdv5CEeDxOJpOhUqnYaydjRcid7/v2GgrBkmOTcSLnLypW+LyVUiSTSSYmJuy5inoj71cqFTzPs+pimKSFCY6QYBknxhirzgkhjhAhQoSbETcV0QHsIiHkQVwEskDU1dVZa14WxnQ6jeu6FItFHMehVCoBWHVHIL9PTU3ZBTOZTJJIJDDGMD09TblcJpfLWZIUVnlEEalUKnafskAJqSiVSiSTSQCKxaJ1OcniJkSjUqlYJUdrbRdyIQOiPAiBcV2XdDptlQYIFlU5pjA5kEU37PoKE4hyuWxJhigVsi1BOp2e9fvl7lWxWLSflwVdCIIQN3EbistH1C5Rg4RYistJ9ptMJhkcHKSuro54PD7rvGW7QnLr6ursdRQXnhCfWCxGOp2mXC5TLBZnjZdqtUomk5l17JlMhmq1SqFQsKRRyG1YYRTyLGNEVCOYIcth9UcImbjw5J6Hx1GECBEi3Gy46YiOKCKiTIRjX5RS1u0ii6UsIr7vMz09bUmKEI6wC0FUhvr6evtetVplenqa6elpHMehoaGBkZERa+0LERBLX1w9soiLOiFEzHEce/zyNyEehUKBQqGA7/vk83mmpqaAgNyI60NiRSSWRGttXTWijIRdb57nWbImLishVIAlhLFYbJb7JZ1O22s2PT1Na2sr09PTpNNpRkZGAGa5EC8FidEJq26APefp6Wm7gCeTSXu/xLUlappcK4mHGR8fp1KpUFdXZ5UZcYklEgl7bnI/fN9nYmJi1vsS25NIJGxcjxAuUbvCKpnv+/bYhbDGYjHy+bwlU6LsOI5jSbjE5kxMTNh7KOM17AJrbGykUChQrVYteQq7ByO3VYQIEW5W3HREB7AKjsQ3hBesVCplLW8hKoAlRmNjYzQ1NZFMJhkfH2d6ehqtNdlslng8TqVSYXp6mkqlQrFYJBaLkcvlrNogAauFQoFSqYTjONa1EHapibsnk8mQTCatsiKLl1jtk5OT1m2STCbtgiaui7AqEFYyxsfH7f5kARWyNzQ0hOu65PN5HMehUCgwPDxMPp8nk8lYwiPbdRzHqlYXLlzA8zwaGxvtQg2QyWR4++23mTdvHpVKhUQiYUnm5VAqlcjn8zaWReKOJicnrZsvFotZJUburRCxWCxGKpWiVCoxMjKC7/vkcjlLyIT0SjyWBDkPDQ0xNTVFY2OjJU7JZHIWWRQiKIRGlBwhNkJEhoaG6OzsZHR0FGMMqVTKuizlOsr2ZWxMT09bl5ucW7Vapb6+3hLOQqFApVKxJHZsbIy6ujpisZjdthAuiUWKECFChJsRN1338rmTflg1GBsbY2RkhFdeeYUf/OAHDA4O0tTUxLp167jzzjsZGBjgxRdfZPny5TQ2NnLw4EFOnz7N+++/z/nz53Ech1QqZZWWcrlMfX09q1evZsmSJXYhnZyc5ODBg7zzzjucP3/eLpxi9YvLq7Gxke7ubhYsWEBrayupVMoer+/7nDt3jrfffpujR48yPDzM+Pi4VWUmJibo7e0lkUgwNTXF6OgohUKBnp4e1q5dy4YNG2w2kigYlUqFiYkJDh06xNGjRzl9+jTFYpHW1lby+TyrVq2iu7vbqj7xeJx0Os3Q0BCvvfYaJ06c4OjRo7z77ruMjo7S1tbGpk2b2LJlC729vRw+fJjm5mYbXC0L8eUQJmTJZJJyucxrr73G3r17rTtM3HAAqVSKeDxOXV0dra2t5HI5lixZQnt7Ow0NDdZVJORofHwc13VpaGigXC5z6NAh3n33XQ4ePMihQ4e4cOECTU1NLFu2jFtuuYVFixbR3d1tCa0ECct9LhaLXLhwwcb2HDx4kN27d/ODH/yAiYkJWltbWblyJStWrGD9+vV0d3czOTk5S3E7fvw4jz/+OIVCgfr6ekt00uk0586do1QqkU6nqa+vB2Yyy2KxGJ/61KdYvXq1PT4hshEiRIhwM8MB+JM/+ZMWrfUfXe+D+XlAFhSxmCWgs1wuMzg4yMMPP8zU1BS//Mu/zJe+9CUWL17M4cOH+da3vsX/+B//g/3797NixQr6+vpoaWmhq6uLqakpnnvuOZ566in2799PNptl/fr19PT08Nprr/HXf/3XPPfcc/i+z4oVK9Ba09vbS2dnJ8eOHePv/u7v+P73v8/7779PR0cHW7ZswXVd3njjDf7X//pfPPHEE5w9e5ampiba29ttEG5dXR1tbW2kUimGh4d57rnneOaZZ3j77be5++67uf/++9m4cSPpdJrdu3fzne98hx/84Ae888473HfffbOCikXFyuVyZDIZent7efLJJ3njjTfo7+/njjvuYN68eSQSCetyq1arDA0N8dhjj/GNb3yD48ePc9ttt/H5z3+eX/7lX2bTpk0cP36cr3/96zz66KM8/fTTbN26lZ6eHuvK+zCiI+/H43HrRmtvb2fp0qWMjo7yl3/5l7z66qsMDw+zbNky1q5dSz6f5/jx4zz11FM8+uijbN++nXQ6zaJFi4jH49ZNKC4hcV8+//zzfPWrX+XHP/4xa9as4eGHH+bBBx9kYGCAkydP8t3vfpcf/vCHJBIJex3ETSRjSlxIQ0ND/Kf/9J949NFHGRgY4A/+4A/4zGc+w2233cbp06d59NFHeeONN6ivr6enp8cqPMYYjhw5wj/+4z9y+vRp+vr6WLp0Kc3NzYyOjvLss8+yc+dOHMdhy5YtLF++HNd1uXDhAv/wD/9Ae3s7S5YssQHWMBMcD5H7KkKECDcnbjpFR1QMUV4KhQKNjY2cPn2aRx55hEqlwh/90R+xaNEiKpUK3d3d9Pf3s2PHDv70T//Upl8DNnvprrvu4kc/+hHf//73SafTDAwMsGXLFrLZLMuXL2fdunX82Z/9Gf/5P/9nxsbG+MM//ENc1yWbzfK5z32Ob37zm4yNjTEwMMAf//Ef09zczMTEBLfddhurVq3iv/yX/8LXv/51zp49y7/9t/+W+fPnW9eb4zgsWbIErTXbt2/njTfeIJfL8du//dtkMhnK5TKrV69GKcX69ev54he/yKuvvsp//I//kS9/+cusX7/eut8gSN/O5/OkUil+8zd/k69//ets2LCBpUuXWtebEKTjx4/zJ3/yJ5w4cYLf+q3f4oEHHqCzs9MqT57n8YUvfIFbb72Vv/qrv+L1119nfHzcup6uBAkwDru4xF21YsUKVq1axRNPPEE+n+eLX/wibW1tTE9Pc+utt3LnnXeybds2/vzP/5xTp05x5swZvvKVrxCLxTh79ixdXV0MDQ2Rz+f58pe/zIEDB3jooYf4pV/6JQYGBqybLJPJ8PDDD7Nq1SqeffZZ/uIv/oJ9+/bxla98hWw2y/DwML7v09DQQDab5YknnuDf/bt/x5133sl//a//lbVr19p4mbq6Onp6eujv7+eb3/wmv/d7v8dXv/pVHnjgAVKpFBcuXODdd9/l7rvvZunSpaxdu5Z4PE61WqWhoYG///u/Z2pqimQyyd13300ikaC/v59f+qVfYuXKlTz22GM8/PDDxONx68qSYOmrSeePcHWQOK+enh7+7u/+jqNHj9LV1WUVQtd1OXv2LKlUiubmZkvqXdfl/PnzAGzevJl8Ps9bb73F6OiodatK/F4ikWDTpk3ccsstuK7LgQMH2LFjB1pr3n//fbq6ujhy5AhLly61wfAnTpxgenqaTCaD67qMjY3R2NhIZ2cnGzZsoLW11T7nH3zwAQcOHGD//v2WDI+Pj7NixQra2trYu3cvdXV1HD16lFQqRUNDA1/84hdpaWlhcHDQZlBK2QgIFOFMJgMEiRJ79+7l4MGDnDlzhng8Tnt7O/X19cTjcQYHBxkaGrLzSblcpru7m+HhYev+lSzLyclJxsfH+Yu/+AtOnz7Njh07OHfuHKOjozQ0NHDy5Emam5vRWtPe3s7AwAC9vb3WQArXHEsmkxw7doznn3/exrTFYjHee+897rnnHo4cOWLnJolhLJfLjI+P84UvfIGOjg7K5TJ1dXWMjo7S3Nxsy1tI7F65XGbbtm0opbjnnnus8izPYSwWs4p2uVzmiSeewBjD4cOHaWlp4fTp06xZs4YjR46Qy+WsMSrjp7+/n61bt9o1RGIxI/X28rjpiE44k0gesgsXLrB3714OHTrEgw8+yIIFC8jn81y4cMEGHW/YsIHf+q3f4tVXX7XZLZLNEg50dV2XlpYWGhsbMcbQ0tJiF93HHnuMr3/969x1110sX77cxtnI97XWJJNJisWiVVa2bt3KSy+9xLZt23j11Vf53Oc+R3d3t32oADshiAtKssdgJs5l/vz5thaN67p8+9vfZv78+fT09NDR0WFTuGXSERdYOp22tWI8zyOVSqG15oc//CFPPfUUp06d4rbbbuOhhx5iyZIlNjg4nP20atUqfvM3f5NDhw5x7tw5G3D9URWGsKtLsssk4DiTydh4mnw+z6ZNm2hubuaxxx7jnXfe4Z//+Z/57Gc/S0dHh82OSyaTfOMb32DHjh0sWrSITZs2MTAwQGNjo832ymQyxGIxFi9ezPDwMD/5yU94/vnnueWWW9i6daud2AFefvllvvWtb1EoFLjttttYv379rLTyUqlEIpHg9ttvZ2Jigl27dvHVr36VfD7PmjVrSCQSdmHq6+sjn8/biVjItdwjIequ65JKpejv72fFihXU1dXZcgAS9CxjK8K1QSwWo6mpifPnz/NP//RPZDIZurq6aGtro6WlhUOHDvHMM89QKBT4F//iX7B69WobAzg8PMxbb70FwMMPP8zatWvZu3cvf/u3f8vRo0fp6enhd37nd/jc5z5nlblqtUpfXx+xWIyDBw/y13/915w/f562tjbWr1/P0qVLaWxsJJlM8uyzz/LMM89QqVRob2/nC1/4AkuXLiWbzc4qTFlfX8+KFSuYnJzkP/yH/0AikeDXfu3X6OjoYNWqVfT09LB9+3befPNNTp48aYuH/sZv/IY9F6kjJb/H43HGx8et6/Yv//Iv2bFjB5lMhgcffJCNGzcyf/58MpmMdXf/9//+39Fas2jRIvr6+pg/f76Nq0skEoyPj3Pw4EG+973v8fu///v09vayZcsWjh8/zv/9v/+Xv/mbv2FsbIyHH36YTZs2sWzZMnp7e8nn8/i+b40kyaCcmpqio6ODBx54gP379/PVr36V4eFhjDF8+tOfZt68edTX19skBqUUr732Gtu2baO3t5dHHnnEuprr6ursWhCei48ePcpLL72EUoq+vj47L3qeZ+NDxVBNJpOsWbOG48eP85Of/IRjx45RrVa54447WLdunVWhHcdhz549vPTSS7z22mvcfvvtZDIZRkdHbc2wKLPy8rjpiI64GuShT6VSTE1N8f7771MsFnFdl5GRERoaGmbVgGlubuahhx7i+PHjAJbBS+CnxGtorW0wqjHGKkbLli0jn89z/vx5Dh06RG9vr12ogVnF4ZqamqwV0aBIqIQAACAASURBVNjYyMaNG3nzzTf54IMP+OCDD2zW1IdBLAeJP8pkMmSzWTKZDOvXr+fll1/m8ccfp7Ozk1/91V+lrq7OLu6SuiwkTiwSWTDPnz/Piy++yNNPP838+fP59Kc/TV9f36xsIiGUUktn48aN3HnnnTZ4+lq5UeR+SpFAmdiEqG3ZsoVDhw7x5ptvcvz4cVpaWmyK/fHjx/mHf/gHxsbG2LRpE6tXryaXy9naRuGMtubmZjZs2MCuXbt49NFHefLJJ+nt7WXdunV4nsfw8DBPP/00O3fuZMOGDWzevNla6FIQUOr15HI51q9fzy233MIrr7zCM888Y8dIT08P+Xye5uZme47hbKvLXYPm5mZuvfVWksmkveYynq5GPYtwdZAyEZI9WS6X+fVf/3XuvfdejDG2RMOFCxcYGhqivb2dO+64g1gsxvj4OAsXLrQFMHO5HN3d3biuy//7f/+P8fFx8vk8W7dupaWlBc/zmJycxBhDQ0MDixYtss/N8PAw3d3drFixgiVLlpBIJCyBeOGFFxgcHCSVStHV1UVvb6+NJZPFMJFIkE6nbWHLDRs28Ou//uvkcjmampqsGvzkk09y5swZjDE8//zz3HfffSxatMjGA0oZBXlWCoUCAD/84Q85ePAgQ0NDxONxOjs7Wb58OS0tLdbIOHnyJIVCgWKxyMDAABs2bCCfz6O1tkRHa01HRwcHDhxgcHCQzs5O6uvrWblyJQcOHODb3/42U1NTdHd3s27dOhYsWGCLvkryhiRqiJKilKKjo8MmTezZs4empiYWL15MLpezCSmiKC9evJjBwUEmJydtWQ5JIBDiIs+367rs27ePV199FcdxuP322+nv77fKkqi74q7WWtPf309rayvf+ta3OHnyJMYYli1bRktLi03E8H2fhQsX0tnZyd/8zd9w/vx5GhsbSSQSdn6OcHncdGaeWCaAfQikRorv++zcuZMnn3ySt99+20q2knHT1tbGwMAADQ0NdlvhFPC5kLiLZDJJNpu1xGZsbMwGH8vgl8EsxyYPaSaToa6uzg7mycnJK9afmZtNFs4Samlp4Xd/93fZuHEjBw8e5K/+6q94+eWXbVCrLPAS0BouDJhIJCiXy+zZs4ddu3YxOTnJwMAA69atsxN5uDiiVHaWrLT77ruPrq6uy16vn/Z+yvWTjKtw7FVPTw+ALYQomViDg4M89dRTvPPOO7S1tbF582aampoolUo2RV8IhqhTnZ2drFmzhmq1yq5du9ixY4ctH3DgwAFefPFFJicnue+++1iwYIGdpMKxPHIPs9ksGzduRGvN008/zd69e6lUKnR2dtLe3k4qlZoVZ3Ola5DJZFi6dKlt+SAxaOJKiXBtIGqaZNwtXLiQO++8k66uLhukn8/n7WLY3t5OW1sb2WyWrq4u1q5dyz333MPixYu5cOEChUKBdDpNS0uLVXS7urpsuYN0Om2VA1mgxUhqamqio6PDuuDb2tp44IEHeOSRR8jlcgwNDfHOO+8wMTFhFWhBIpFgcnKSvXv3snHjRr785S+zdOlSq4yWy2UWLlxIb28vHR0d+L7Pjh072Lt376yClb7vUywW7fbq6+sZHx/nySefxPd9W6Mqm81SX19vtx2LxWhpaaGlpQUIEg+6u7tpbW2186Ukb2zYsIG77rqL8fFxCoWCnRd7enpsmYyWlhbrvpJ6ZeLugcCVFq4rJur0kiVLrOrZ1dVFd3c3uVzOEr6mpib6+/u59957bXFP13VtyxkpqppMJvE8j2PHjrFnzx7ee+89Dh8+zIEDB+x8D9g5QMpQiGHY0tJCe3u7JaPt7e02hKC1tZXm5maWLVvGvffey4YNG6yqdCUjKEKAm47oyCIrlpGoIwsXLqSvr4/333+fv/3bv+Xv//7v2b17t61qKy6mdevWMX/+fGAmlTmsesgCOTY2ZlOOjTGMjIzYOinz5s2z1kC4QrNYhNPT09TX15PP5zl37hzf+973GBoaYu3atQwMDFxRzYGZwohhti8TzP3338+/+Tf/hq6uLt555x3+9//+3+zevRtgVvozzK6+HI/HmZyc5PXXX+fQoUPU1dWxYsUKq0BJ+rS4kCYmJoDg4Z6cnGTNmjUsX758VjuGa3U/BbLAyESyY8cOACuZCwkYGxtj27ZtTE1NsXDhQnp6ejDGWIsv3FNMtu84Dr29vfT393Pu3DleeeUVRkZGmJ6eZvfu3Rw9epRYLMa6devwfZ9CoUA2m53VTyzs4rzllltIpVJWth4ZGZlVmDA8Tq8EcVdKocYw2Y3cVtcWSikmJydpaWnh/vvvp7e312bDiTIqz4sxhtHRUUZHR63F39/fz9q1a228ilQSl5IUQngEMmZECRAjSDLyREUuFot0dHTwmc98hpUrV+L7Pk8++STbtm2zPeJg5hk5efIke/fu5a677mLlypU2LkYKV0o24apVq1i5ciUjIyPWCBTXucQpyqKdTCbZvXu3deGH5xLAhg2ESbi4lcQIkPpYcg3j8Tj/8l/+S3p6eojH49a1JduTZ13qYcm2JZ5P5qOwe0nmR1GAxeAslUqMjY1ZYimlI+6++24GBgasSi4FQCU+Ru7NSy+9xLlz52htbaVYLLJ//3527dp10XUQY1Lu3dDQEJlMxqq/khkq6p+06slms3z2s5+lra3NFgmNetldGTfdDBguehcuEDgwMMCXvvQlWlpaePfdd/nmN7/Jv//3/56vfe1r/OhHP2JkZMQGF+dyuUv2qpKHTfogySK3a9cuXnjhBYrFIv39/Sxfvtz6zGVRBayaIO6HI0eO8M///M/s2bOH3t5efvu3f9v6+z8MonJMTU1Z8iUtEsbHx6mrq+O+++7jS1/6Eq2trbzyyit84xvf4N1337V1ccLtEmSSLZfLjI6OcuLECcbGxsjlcixYsMAeeyqVskG8Wmvy+TynTp1ibGzMuv9EqZhbVfqngdbaxqpI4UKxdAqFAidOnGDXrl10dXXx0EMPMX/+fDupTk9Pc/ToUYwxtp+YuB8zmYyd4MI9wAqFAplMhsWLF1MoFGzM0eTkJPv27aNcLpNOp+ns7LTnJm5ScSNJJplsRxauY8eOMTQ0BMyuBRSu5fRhCO9DZHS5D1fz/QhXB3HPintww4YNtliovMozLfchFotZRVdcMg0NDWQyGVt/Su6RKMCygEmFc5lT4vG4JVIyPqXMgyx4fX19PPLIIyxfvpxTp07x/PPPc+TIEaampqxCu3v3bp566il6e3utWuF5nu1HJ/3w0uk0y5cv56GHHgJg27Zt7Ny50y7S4iKXJIaxsTGee+45Nm3aRF9fnyUbyWTSKuNCFGSMyliXYpzpdNp+NpVKsWfPHpYuXUpbW5t1dYkaL4amuKbCTZSlOKoo5aKMFwoFO3fI/ZI+eTJ3SnyiUor33nuPlpYWFi1aZImsPMuiKE1OTjIxMcHu3bttXGYul2Pv3r08/fTTwEwGZDhGR66F1FOTuVaqpUt4hIyRbDbLunXrZiWjRCTnyripNO2wnzScWl2tVmlpaWHr1q0cO3aMN99808Z1jI2NceHCBYaHh1m9erUlKLKdcBVhwNZ1kV5VJ06cYPv27Rw/fpz29nZuu+02Ghsb7eQg1rZYUsePHyeXy/HOO+9w6NAhTpw4wbp167j11lvZsmWLdX9dyUqXhTrcI0mshEqlQlNTE/fddx9Hjhzh8ccfZ8eOHaxZs4ZMJkN3d7c9P7lu4hKZmJigUChYV1Y2m7WfCbd58DyPkZERXn/9dXzf58KFC9TV1XH27FmWLVtGY2Mjq1ev/pmkV8nImpiY4M0337Qyte/7nDhxgt27dxOLxejv72fz5s20tLTYxUMWK5ipHB1W52QRkXglIYwS+C1F+yYmJmwWidxHqeczNTVlrVfZvkzwxhgaGxst8RkZGbEuM/mcXM+rncjElSop83Jt5ftRevnPDiExcn/r6uqsSyR8vcXgCbuCZbyKURQuGinqm9w/IUTh3mUyjuTv4aKSYSMrnU5z6623smnTJj744AN+/OMfs337dpLJJIsXL2Zqaor9+/dz/PhxfuVXfsXGgsj+5Txlfsxms6xYsYL29nbOnz/Prl27+MxnPmPVajH4MpkMe/bsYWRkhHnz5vHWW2/NMgjFhRt+TsNjM6yehtudHD58mPXr18+6/oBVdcLZmeEGw+GEEVGxwkU+wy1U5DkN78PzPCYmJnjjjTesa1LmbSElcr2q1SqHDx/G8zz6+vpIJBLs3r2bEydO8PbbbzM4OEhbW9us6u7hLFZpaSMKUzh2U4jtG2+8wdq1a+39nxvfGeHyuKmIDsw0UgwzeOlSvWLFCr7yla+wfft2nn76ad566y327t3L4OAgr732Glu3buWBBx5g0aJFdqKRRVMeykqlwuHDh2364rFjxzhz5gzr169n48aN/Mqv/Ip9UGVgyyQ3NjbGrl27GBkZYefOnRw+fJjbb7+dP/zDP2TlypXWhXY1kAc6kUhQKBRsDE6YoK1Zs4ZHHnmEs2fP8tJLL/Hoo4/iOA6f//znbTaRHJ9E/4+Njc3q5SVB1zLRi/Quk3hDQwNHjx7la1/7mg3S/tM//dNZwbY/Czwv6CJ/9uxZO+kWCgW2b9/O97//ferq6sjn8zQ2Ntp6SRInMFc5CbszpfWFEDxpaxGLxewEJfEA0r4BZrszZVthiT6c9Rd2QU5MTFgrUWRzucZXQwaFhIm6JXEMYWUnwrWBVNGemJiwSooQWLmnsrALwmQmvDCJoRWu1i7zUThpQtzbYeItTWQlKyecMblgwQJ+9Vd/lcOHD/PGG2/w1FNPkc1m6e3tZd++fRw7doylS5eyefNm6ypKJBJMTEyQy+VsX7+pqSni8TibN29m06ZNPPHEE7z66qscPnyY5cuXWxe8zDOPP/448+bNo7e3145hwJ5XWNEJj21RrcIkyPM83nzzTY4dO2a/L0aJEAJ5ZsNBu2FSJfsWJQ6wc5YQo3C7lDCpLJfLDA0N8YMf/IB77rmHpqYmu99kMsnY2JhVvOPxOC+88IJNUMjlcrzyyiscPnyYU6dO8frrr/Pggw9aAhV2Yct1kDEiyRLhMTExMcFjjz3GwoULaW9vt/NQ9FxfHW5KohO2bGWQS2zDsmXLyGQyLF++nNdee40XXniBt956i507d3LmzBnef/99/tW/+lcsX758lgtMFhPXda2v1fd9+vr6WLNmDV1dXfT19dHQ0GBVH7Fi5PuZTIbOzk7b2+j06dOcOnXKBufJYizfA2ZZLOFzLJfLtl2D+Hfl80JaXNdl9erVPPLIIxQKBX70ox/xT//0T8ybN4+tW7delH0VtrhEOpfKxfKgwoyF0dHRQXt7O729vfzP//k/OX36NLfccosN3gy3brgUpIeWTDzhiTGszCUSCTZv3mwtuWq1SlNTE0uWLOHFF19kz549/J//83+Ix+OsWrXKus7k3MTlJeRH4g5knzLpiq88PClKsHV9fT1KKdLptPXb+75v5W+xUMOxDWECIrK6nFO4xYSMj3ANo/CELJZpeFyEY6uiyfDaITxe5D7I9ZXxKr+LKifvhbP45N6G71e1WmV8fJw333zTuqHCz6+4M95//337fngfEvsmRGnNmjU8+OCDnD59moMHD/LSSy+RSqU4cuQIHR0d3H///TQ1NTE1NWXdQEKsxGCRuJd8Ps9nP/tZXn/9dY4dO8bjjz/O0qVLSSaTnDlzho6ODl5++WVOnz7Nr/3ar9Hc3DyrIGi4sKaQH5hpTXP06FG+973vWSUVggDiF198kcWLF+O67qw5UwiTQLYfNhDCSqxcd3m+xTUn96parfLCCy/YrCpR7MTQFaNWtiPXW9xi+/fvZ3BwkLvvvpuenh7q6+sZGBhg27ZtDA8P88Mf/pBNmzbR2dlJsVi0LV/CBrKMA4Cf/OQnVuF1XZcdO3Zw4MABW7BVYgkjXB1uOqIjC3Q4wFQsAJElc7kcPT09DAwM2MG6c+dO9u3bxxNPPMHy5cvp6emxUmZ4ARKy9JnPfMbKk7IYhR96eWjkoS6Xy7S0tLB582bbVuHUqVPs2bOHb3/728TjcdatW2ctFXlIwpNl2PKXB0YmqfHxcbtvkboLhQKJRIL777+f0dFRhoeH2bt3L1/72tdsIazwIhmLxWhubrZZZ4VCgePHj7N582YbnCdZXmKBKaVobGy0Lq76+nqy2ewVSY7sTyatsDQbtnBl0uvu7rZkK5vN0t7ezn333cf8+fP5sz/7M77zne9QqVT4b//tv1mFRzqOnz171lquIiFLXRC5lkJWxsfHbeZFY2MjTU1NaK1ZunQpL730Eq7rcu7cORYsWGAn0nAnd7GUk8kkR48etecwf/588vn8LJUsTCrDbqnwtRDCFJb+ZRyE+7RFuDYIq36yWApkLhGSKZ8Px2WEn1+5X+IqEdXhxIkTVv2Q92XcpNPpWe5hIQ3hNGeZ47LZLPfeey9HjhzhO9/5Djt37mR0dJSlS5dyxx13MH/+fKsMyfakB108HrfjFgLF5I477uDWW2/lqaee4plnnuE3fuM3bC++yclJXnnlFZYsWcKyZctsUkPYtSVzSdhFJDFGco5C6IRgnT59miVLlszq3Rae/8LunjC5F9Iz11AIlwGR50TSz6VVTiaTseEH58+ft656MY5isZhVpz3Po1gs8swzz9Dd3c3AwAB1dXW4rsvatWtZtmwZO3bsYN++fZw8eZLu7u6LnuO5sTvlcpkzZ87YAPZ4PG4rosu9FzUqclldHW5KoiMDKywDj4+PW5+7WFeZTIaNGzfS1dVFc3MzH3zwASMjI+zfv5+tW7fS2NhotykDN9w/Stw34RTvdDrN5OTkLEswHOMTi8Wor69n48aN7Ny5k5deeomdO3fS399PX1+fVQ7mkp2wRaOUslZg+EEPBz1KrZhEIkFTUxO33nort912G88++yzbt2/nxRdfZNGiRbP84I7j0NraSltbmyWFJ06coFgsks/nbS+psIsmHIwblu5Fpv6wRVj6dAEXEZu58rVYRjLRSdrnHXfcwXe/+122bdvGK6+8wqlTp+jq6iKXy9HR0cHExARnz561zVplgi8UCnayDjcUnZiYYGhoiHQ6TW9vr3Vn9fT04DgOIyMjnDt3zl4DuR6ZTAallHV1ua5rLXOlgrThhoaGiyZnGRey4IQXN5G/5d5E+MWA3D+ZA8LKRyaTYeHChfbv4bguWehbW1ttPa/LQdwjPT09bNmyhVdeeYUzZ85w+vRpPvWpT9myC5eDEAhRkUQlXbt2Ld///vcZHBzkjTfeoLu7m66uLvbs2cPw8DCbNm2io6PDbuNK10HcfUuXLuXTn/60jW/z/aB574ULF2xyhhiSclxXO+aFAIXjdsLzjwRz33nnncTjcauEV6tVFi9ezJ//+Z/b2KexsTE7t4pae/78ec6ePcuaNWuswVWtVpk3bx4LFiyw4QgnT55k3bp1di4JxxDJ9ZD7LSRU5rvBwUF+/OMf2zlPlEP5TmTMfDhuKqITzoSRwS8L2fHjx3nnnXf4whe+gNaakZERXNclnU6zcuVK2ybiscce4+DBg7aNQViSDj/YQiTEQhfpVR5YmJnowgFtvh/Updi4cSP/+l//axvM9tRTT7FgwQLuuOMOawFKcTKJo5GHN7woSgG8sMwuE5cUsHMch/7+fn73d38XpRSPP/44//iP/8jWrVsZHh6e5Q9ubGxk1apVdHV1ce7cOfbt28fZs2fJZrOzLNNwCma4GqhMZFeTCSSxA+H0VbGIw64cmaikkqpYQQAdHR1WlTt79iynT5+2k9SDDz7Ie++9x9mzZ5mYmLBERuonhTOuJDi0UqkwODhIQ0MDq1atoqmpCWMMS5Ysoauri7Nnz7J//37uvvtu6uvrMSYoGSAVY2WMCEmUYmrS9FUsd5hpQCsLXTgrJPwaWXW/WAgHscozGc5UXLx48az4rbAhUygUyOfzV9yHPHu5XI7bbruNFStWcP78eUZGRmhpaaG7u/uqnkFxxxeLRdrb2/n0pz/N448/zr59+/jud7/LPffcQ1tbG88++yxaa9atW3dV5S/C10Lmh/r6+lnlLYz5/+3db1CU59UG8Gt3AdlllwVBJCgEMBAbAy0YYqx1im1NrI3OaJPOmLTWSepkMp3pdDr9nn7M13b80pmmNelMzbRRq0mcVJOYMVWj1S6iBAQBEUIQlmUXFhZWXN4P9Lq9lypgOvO+b59cv5lMK5F99k/2ec5z7nPOPYNdu3bh3LlzmJqagt/vh8/nQyQSSQsO52MX7bKGjfWQPKcweCkoKDCZZ9YD1dTUmAnFvEHljRTPiS0tLUgkEqY+kzeHHo8HwWDQFHGfP38eGzZsQEVFhWlU8Pl8mJqaSrshzMzMxKpVq+Dz+czP8vPz08oH5jYayPy+dIv3zAzwYsmhXCMjI3jrrbdMgVlubi78fj8mJiYQj8dRVFSETZs2mQGCXq8X8XjczI7gF4DtlFzj5kh+brFgn9g4FMzeXJK7anu9XmzatAk/+tGPsHLlSly8eBGHDh1CR0cHJicnzThzBgO8M5iensbk5KQZgsU7I+5/w+MCMFkPtn/X19fj2WefxcaNGzEwMIAPPvgA4XA4bcqux+PB448/jg0bNiArKwuXL1/GqVOnEI/HTQaGhYX8AvM9YS2U/ZrnwxP8xMQExsfHzZIPgzreGQEwqWamn+2WTHZXLVu2zBRNut1uPP3002bq6ccff2yCPj729PQ04vG4Ke7l7JxIJIJ169bhe9/7nvksa2pq8PTTT8Pj8eDkyZPo6+tDTk4OBgcHTZcE75I9Hg+GhoZw6tQpxGIx7Nq1C+vWrUsrbGRwzBMgC9554eGgQp4Y5b/H3Bscuw7M5XLB7/ebzi4Op2OLNgvgF+L1es13Ij8/3wzCAxa3lMnaN94QAbM3TqtXr8b27dvh8/lw6dIltLW1oaOjA6FQCF/96ldRUVFhlp8Wyrjwv2WeK/j9HR0dNefPhx9+GF/5yleQn59vAn4+n8UEaqxZ4k0YbwrtZTQGTTMzs5PsmUniMvj3v/99+P1+s3+cfQ6/ffs2Dh48aJYc//SnP+HPf/4zDh06hMOHDyMSiaC4uBiJRAJNTU3o7u5OW0az3ws+X36nOVPH5XKhuroa69atQ25ursnuzf1dubcvVUYHQFrhLrMx/BI1NzebjeLYbROPx3Hr1i0zByM7OxulpaXw+/3/1s7INXROTuXPgDvtmiwYZGDE58K2Ze5RlUgk4PV6sWXLFnR0dODdd981a+B79uyB3+/H+Pi4qRXgIC0+HxZLJhIJjI2NobCwEENDQ2bWDeeA8A4HmO0kqKmpwXPPPYfW1lZ0dnaaCy0vutPT01ixYgW2bt1qusMOHjyImpoaNDQ0wOv1mgFpbvfsJnvsACJuprfQ0hUvBnbnht2NwBkWHFfv9/tN+z/3Cert7UVbWxs8Hg8eeeQRVFVVwe/3w+Vyoby8HLt27cLnn3+Ot99+G1u3bkV1dbUJbvgc+V43Nzfj/fffR1lZGZ555hk0NDRgaGgIbrcbpaWl2LlzJ06dOoVQKITTp09j1apVeOCBBxCNRs2dF4vKz58/jxMnTmDlypV49tlnzV0eXzf/u+B/N36/33TZAHe2IAHuDCuT/w78rPgZ28W5dqs0A33up8R/b9cFLYSZQH5/+Xjc7ma+58ibwmQyaW7seE46dOgQWltb8fbbb6OlpQWZmZmoq6sztS52ILcQ3qgxK2sv001PT+Ohhx6C1+tFd3c3/H5/WnPEYl4/n0csFsPNmzdRVlYGr9eLWCxmZvbYNwsul8vczGZnZ6O2ttY0IoTDYeTm5prNUy9dugQA2Lt3Lx5//HFzk+TxeJBIJJBIJHD27Fm8/PLL6OvrQ3t7u8l62YNEeVwApuTB3saCowFyc3PTmjPs31N2596+dKGgXYVvV+kzk/Lb3/4Wx44dQ19fn7mAFRYW4tq1azh48CAeeOABk67lnVd/f7+pywiHw7h+/Trc7jsbdLpcs7MoWNfCOwW/34/R0VGzf9XY2BhGRkbMQELuPP7jH/8Y9fX1GBoawmuvvYa//vWvaGpqQjKZNGns4eFh9Pf3m4Fa/f39AGbX/JcvX47JyUm0t7cjIyMD169fh8/nMyc/Dsvj1gSbN2/G3r17UVFRYZ4zALN043a78eSTT+KXv/wlvvOd76CtrQ2/+c1vcPjwYfT09CA3NxcrV640u4lfunQJ165dQ1ZWFoqKiha9ySRTw4FAwBzb5Zodwc/WfWY2bty4gWg0atptu7q6cPLkSbzyyis4d+4cqqursXv3bjOkj1NGn3/+ebz00kuYmJjAr3/9a7z33nuYmJhAMBhEfn4+fD4fwuEwjhw5ggMHDiA/Px8vv/wyNm7caNrQ2aHR0NCAV155BTU1NfjDH/6AAwcOmEyX3+9HTk4OhoeHceTIEezfvx8VFRV49dVXUVVVZZYtvV4vksmk6bhgsXs0GkU8Hsf4+Lgpnub2IOx2k/8uDNztjiS7QJWBDgMS/n97avK9sBuSNzzMAnPq7kJBCC+mrGuxszu1tbXYtm0bsrOz8frrr+P48eN44oknUFpaivHxcQQCAZO5XcwxeJxUKmUy6GNjY4hGo2bJLJlM4vz58xgcHDTZFHYuzYfn4XA4bDIqPCcz48zd0e1J0y6XC+Pj4xgZGTGlCVNTUzh58qQpW3C73fjd735nbqA4GJJ1fl6vFwUFBVixYgVqa2sRi8Vw+vRptLa2mtIDe9NR+zMH7gS9GRkZGB0dNRlpLVffvy9dRge40/7MO5bR0VFkZWWhsbERZ86cwcTEBMbGxswkzEgkgpMnT+LChQt44YUXsHXrVvj9fgwPDyMajeLKlSuIRqNYsWIFsrKycO3aNbS1taGsrAzBYDBt3xout8RiMXR3d6OrqwupVAqFhYVIpVJ4//338cQTT6CsGH8elAAAEQtJREFUrMy0MtfX1+O5555DLBZDZ2cnDhw4gI6ODjQ2NqK6uhqJRAKXL19GNBo1mafjx4+joaEB5f/aDTgUCuHixYvweDx466238Mwzz6CwsNDMWrGLqH0+H3bs2GH2cOKJlRmO27dvm4Lp7OxsPPjgg7h48SJef/11tLW1YcOGDSgvL8fo6CiuXr2KtrY2BINBbN68Gd/4xjcQDAZNl8V8uLzF/b14solEImhpaUE4HDbt+mfPnsXly5dRXFyMwcFBhMNhdHV14erVq1i/fj327NmDxsZG023Gz7+wsBAvvfQScnJy8NFHH+HYsWNmu4rbt2+jv78fly5dwqeffgq3240XXngBTz31lJkxUlBQYLa7CAQC2LZtG5YsWYL9+/fjnXfeweDgIBobGxEIBDA+Po5PPvkEx48fR2FhIX7xi1/g61//uuncYAcLO8AA4ObNm+jr68O5c+fg8cxO256cnEQoFEIsFkNZWZmWrv4L2R1CzPASAxR7GwJmf1jrtpjHt8cV8FgMlFh7Nh9+3/mdZ21dZmYmdu7cicOHD5ttTzZs2GAyqzk5OWZTzPnYDRQM5ng8e6nb5Zqd5HzmzBnT0cWfL4RZ6FAohAsXLuCb3/ymOa/yHMRgiPty3S2LzJ3qS0pKTIa7paUFTU1N2LFjh8nyBAKBtIw6ABQXF6OxsRGnT5/GuXPnUFdXh9raWpNZZ2aHQY5dT8mMO2/y7G48Zo/sURRyd1+6QIfLTFwm4EmjuroaP/3pT7F161aEQiGcP38eb7zxBoaHh5GXl4eGhgYcOXLE7EE1MDCA3t5e9PX1oaenB7W1tXj00UfNyeHjjz9GUVERtm/fjmAwiLGxsbTi5Pb2dpw5cwapVApPPfUUSktLMTQ0hEQigQ8++MBsgDk8PIxly5Zh69atCAaDaGlpwejoKHw+Hzo7O9HV1WVORN/+9rexZcsW0x3Q3t6OwcFBZGZmorW1FdnZ2di+fTtyc3Pxt7/9DevWrUNlZSWys7PN7sdcL6+oqMDOnTtRUFCAoqIik0a22689ntm9v2pra9HW1obOzk5cvXoV+/fvN9shuFwuNDQ04NVXX8XatWvNF5IFgPN9OZl9m5mZMQWOly5dQlNTE+LxOHbs2IGMjAxEIhGzZxTX971eL1avXo2f/OQnKCgoQHl5OWKxmKl/4no8axh+9rOfYdu2beaEyOLKQCCAiooKPP/883jooYdMESe7RfhZFBUVYWJiArdu3cKTTz6J9evX48KFC2hubsa+ffvMa6mvr8fPf/5zrF69GiUlJWZfHN7ZMqhjYXUoFEJ3dzeys7Pxgx/8AF6vF5FIBD09PQiHw8jIyED5v7a2kP8ddtcUgLQ78FQqZbIprC/jnnd2WzF/N5lMIpFImKCfE8ULCwvTum74+LFYzGRYWW/HRgAuec7MzG5rwr2S2BDAi+PY2Fja1HR76cN+LTwXMKOQn5+PZDKJiYkJ1NfX42tf+xqi0Sjq6+tRWVkJn89n6mh4LH5/k8mkKfBlfcrk5KQZ9cGMMusBmZl1u9347LPPcPr0afT395vSgEgkgtHRUVPvMj4+bur4+B7bjSYnTpzAwMAAdu/ejdzcXLPvIHeHn5mZQSQSMa32nI/DzHooFMKbb76Jo0ePIhgMor+/H++88w5KS0vNBqQzMzNm2c4OToqKilBbW4tgMIhoNIqmpib09vairKzMPH9uS8Pnwptvfi7Z2dlmLzSWNzBjZhe3y9196QIdRvJz74JLS0tN6rW6uhrV1dX44Q9/eNfH4MllzZo1WLNmzYLHnHtSmZ6eRmVlJSorKxf8Xc6cyczMRGNjIxobGxd+kXexfv36ef89v9B8jvF4HKWlpWnvAed8AHfuSHmCrqqqQlVVFbZs2bLgc+G8nYXwy8siXQCoq6tDXV3dgr87F09sQPp4dXY9AMDy5cuxZcuWeV+D3dKeTCbNHZW9Pw0/7/Xr18/7vo+Pj5uCd/vkzLttv9+PTZs2YdOmTfO+NgU5//vs9mLevd+8eROTk5N44403TGb0ww8/xIMPPojHHnvMBC+8ALrdbvT09ODs2bO4cuWKaYp47bXXsHfvXvP4DDbi8TiOHTuG69evm93CP/zwQ3zrW99CSUmJucFhEM+l0nPnzqGtrc0suTQ3N6O+vh6rVq0y2Qyel7gkMzY2hs7OThw9etTcaKVSKVO/GI/HsWfPHoRCIezevRsul8t0LCYSCTNVnttgNDc348qVK6irq4Pb7cbnn3+Oy5cvo6enB5mZmYhEIjh48KDZO48BGzfffffdd/GrX/0KK1euxOjoKCKRCN58802TKT927BgSiQQefvjhtKGMHR0dOHr0KAYHB7Fx40YUFhZicnISfX19aGlpQSgUgs/nw/Lly7Fv3z6sX78+LUhMpVL46KOPcPToUWzZssVkbv74xz/iL3/5C1KpFG7cuIHKykoznoI3tKwD6u3tRVNTEwKBAMLhMD755BPs27cPL774ImprazEwMIDW1lacP38eS5YsQSAQwO9//3u8+OKLyMvLS5uHxUnUANLqPWV+LgAYHh5+JCMjo+X/+smIiPx/xyVUe0PO4eFhhEIh9Pb2pm2V4vV6UVxcjJKSEpSXl2PlypVm+4h//vOfuHr1KuLxuAn+OU2bA0Ife+wxpFIpXLx4Ee3t7RgaGsLw8DCysrIQi8VQXFyMZcuWobKyEo8++qgpoE0mk+js7MTly5cRiUTMpqP2diYFBQXYuHEjysrKzBYkeXl56OjowHvvvWeW9WdmZuD3+7F06VJ897vfNVsh+Hw+nDhxAps3bzaZGWZ1e3p6MD09bTog8/LyUFhYaG4MYrEYYrEYPB6P2UojGAya7VF4k8OatenpaezatQterxd///vfMTk5ie7ublN/5PV6EQgETPE0Pxcu0wUCAVRVVaGmpgYdHR349NNPkUqlzDwil2t2qrnP5zODC7lM6PP5MDg4iLVr12Lt2rXo6+vDP/7xDwwODiIYDCIrKwvl5eVYs2aN2VUcmA2G+/r6MDAwgJ6eHnR1dZnsTEZGBqqqqpCfn48bN27g1q1bGBoaQiAQMBm+yspKVFVVoba2dlF1VXJvCnRERO4DuxmZgWM3HMdNsBV8yZIlpnOGtRYchgfcmbXFx2Q2kMsXzOplZmZiZGTEdGJ6vV74/X6Ew+G0cQh5eXlmHzrWuHAiOlvUmZVl7Y69Z5a9LxqXUoqKinDr1i3EYjGkUikUFRVhbGzMZH9oenoahYWFGBkZQTQaNXvMAXfqXJg5tccmcDo562JYs8J6IL4fqVQKJSUlmJqawtDQkGmz5lY79nIYW/L5+lOpFILBoNk/bGxsDPF43HRWcc4Vu73YqcX3hYEXszmRSMS0f2dmZmJ8fNz82Z6fxmxcMpk0GT6/32+WJ9nJNTIyYoKjZcuWYXR01HSE3W1Gm9w/BToiIveBSyNcOrC3NGDAMHfIIy9W7H5asmSJuTCypoXLwSzIZb0WMwucq8PlIHuMAgMPDpzkMDp7ejYvlvwZ511xiKd9kXa73cjJyUF/f7+ZiM7iXXtTSr/fj6GhoX/LOPh8PoyPj5u/y04pvhesX2InGJfP7MCPM26YBUkmk2mzuYDZlnEGJfyduZvocm8ozsNiTRO3cgHubOnB98EORllXNDU1ZZYsc3JyzHBXuwuKnZj2+AvO47ILnVmryUCVHbp2oXVOTg7i8Tji8bhZxpQvRoGOiMgizczMmGwA51AxWOGFyJ5yO7dbiv9wpAUvlD6fL63dmsX8zEwwg8SLOed4sbYGuLMxKAfxsXaMF1UWKzMgY1aHg/oAIBgMpk39ZWDBv8MlJns6MS/KIyMj8Pv9pm6Pr4mBHF8b30dODbffO2aV+Hc43mHp0qUmeOGec3l5eSZDxt/hsexOM3u7Hw4rZbEzmyvsIXz2/oRsfWdNoT02hJkavg/2tgx8nnxtgUDAFBNnZGSYTJRdjM15Ofx9BtTMzskXp0BHROQ+8GI0d886OyvCImVeiJkJ4R0+sxTMTACzBfPA7IWN86vsjAgv4G6324wgYHaEwZPdfsyLNR+DGSYGTxxEyOUwzrHhUhIwG/hw1gz3nGLrOy/wDAKmpqaQk5OTtuu23TnG1wDc2ZiXSzt83faAVbaZ37x502xD4/V6kZeXZybYAzA1OfYxGOwBMMEkAwZ77pQ9w4jZFmbHfD4fPB6PWYqzN1HmchWbGeZmouxgku+B/dpZ52VvqspMDovbGfzwuckXp0BHRGSR7IsVL7x2HQcHOXIJw96TzZ5tM3dQHi+Y9lYuvCDygj01NWWWc1ifwsCK2QMuOXEZiAXI3GeNS14ATC0Ll2RcLpeZGs6dy5PJpOnWKi4uxmeffQav14tgMGgKnBkIcaigHTjM/cdeRrtXtxC3VgBgptLn5ORgdHTULLUxCGQ7un0MBnQAzJIWs0zcS4tT2e2WdmZ8GOjxfWbAxe5I/pzF4wxC+BnbS5n2ZGoeh58Lg0F+Bqxd4utmgLbYAatyb1+69nIRkf8Usxm8MPICzHkndj2G3f7PC7094oIXPuBORoABDufsZGZmmkCCy0rT09Pmse1Axl7K4hRx+3nbxa38fa/XmzYDhzVCubm58Pl8iEajZtuDYDCIoaEhk43Kzs42dSsDAwNYunSpWaJhZsJuiWZ2icEFxykwE8a/A8B0qDGDxeUwvjYWVhMzIgDSls2YseIMsFQqhUAgkFYXxECJmSV7WjUDTGZbGLRyiYnBFo9hZ4rs52Zj1x6DHADmudl1S1q2+s8poyMich/sGhC7EHUxywt3m2A79/Hu9jv249t/vtex7cda6PEX81zv9ZrnHvtex7rb85zvdd3t9c/9u3OPc6/39osed77XNN97utBrv9uf53su9/u5yb9TRkdE5D7YSxX2/97P7873eAv9jv3nxfzOF3meCz3GQsed7znf62eLff33Os5ijnE/x13Msb7I49/v56kg5z+nhT8RERFxLAU6IiIi4lgKdERERMSxFOiIiIiIYynQEREREcdSoCMiIiKOpUBHREREHEuBjoiIiDiWAh0RERFxLAU6IiIi4lgKdERERMSxFOiIiIiIYynQEREREcdSoCMiIiKOpUBHREREHEuBjoiIiDiWAh0RERFxLAU6IiIi4lgKdERERMSxFOiIiIiIYynQEREREcdSoCMiIiKOpUBHREREHEuBjoiIiDiWAh0RERFxLAU6IiIi4lgKdERERMSxFOiIiIiIYynQEREREcdSoCMiIiKOpUBHREREHEuBjoiIiDiWAh0RERFxLAU6IiIi4lgKdERERMSxFOiIiIiIYynQEREREcdSoCMiIiKOpUBHREREHEuBjoiIiDiWAh0RERFxLAU6IiIi4lgKdERERMSxFOiIiIiIYynQEREREcdSoCMiIiKOpUBHREREHEuBjoiIiDiWAh0RERFxLAU6IiIi4lgKdERERMSxFOiIiIiIYynQEREREcdSoCMiIiKOpUBHREREHEuBjoiIiDiWAh0RERFxLAU6IiIi4lgKdERERMSxFOiIiIiIYynQEREREcdSoCMiIiKOpUBHREREHEuBjoiIiDiWAh0RERFxLAU6IiIi4lgKdERERMSxFOiIiIiIYynQEREREcdSoCMiIiKOpUBHREREHEuBjoiIiDiWAh0RERFxLAU6IiIi4lgKdERERMSxFOiIiIiIYynQEREREcdSoCMiIiKOpUBHREREHEuBjoiIiDiWAh0RERFxLAU6IiIi4lgKdERERMSxFOiIiIiIYynQEREREcdSoCMiIiKOpUBHREREHEuBjoiIiDiWAh0RERFxrP8Bdp3u6Aod27oAAAAASUVORK5CYII=;" vertex="1" parent="1">
          <mxGeometry x="450" y="182.35000000000002" width="165" height="110.29" as="geometry" />
        </mxCell>
        <mxCell id="EVjqb6hqpJj4IS2rLbfz-9" value="Application" style="text;html=1;strokeColor=none;fillColor=none;align=center;verticalAlign=middle;whiteSpace=wrap;rounded=0;" vertex="1" parent="1">
          <mxGeometry x="475.5" y="292.64" width="60" height="30" as="geometry" />
        </mxCell>
      </root>
    </mxGraphModel>
  </diagram>
</mxfile>
